#Title Lemon
#NewTrack
#NewTrack
#trackName FL Keys #2
B16 >C#16 O2G#8:O5D#8 <<D#8:>B16 G#8.:R16 <B8 D#8:>>C#8 O2F#8:>>A#8 <C#8:>F#16 D#8.:R16 <A#8 C#8:>A#8 <<E8:>>G#8 <<B8:>>F#16 <B8.:R16 G#8 <B8:>>F#8 D#:O1B8 >F#8 >D#8 <F#8:>>C#16 D#16 E:<<E8 B8 >G#8:>B8 <<B8:>>A#16 B16 F#:O1B8 >F#8 >D#8:>E8 <<F#8:>>D#16 E16 F8.:<<D8 G#8:R16 >>F16 <F8:>B8 <<G#8:>>A#16 G#16 G8:<<D#8 A#8 >G8 <A#8:>>B16 >C#16 O2G#8:O5D#8 <<D#8:>B16 G#8.:R16 <B8 D#8:>>C#8 O2F#8:>>A#8 <C#8:>F#16 D#8.:R16 <A#8 C#8:>A#8 <<E8:>>G#8 <<B8:>>F#16 <B8&B32.:R16 G#8 <B8:>>F#8 D#:O1B8 >F#8 >D#8 <F#8:>>C#16 D#16 E:<<E8 B8 >G#8:>F#8 <<B8:>>E16 F#16 O1B8:O4D#8 <<F#8:>>F#8 <D#8:>B8 <<F#8:O5D#8 C#8.:O2F#8 >C#8:R16 >>C#16 <<A#8:>>C#16 <B8:R16 <C#8:R16 >B16 B:O1B8 >F#8 >D#8 <F#8:>>B16 >C#16 O2G#8:O5D#8 <<D#8:>B16 G#8.:R16 <B8 D#8:>>C#8 O2F#8:>>A#8 <C#8:>F#16 D#8.:R16 <A#8 C#8:>A#8 <<E8:>>G#8 <<B8:>>F#16 <B8&B32.:R16 G#8 <B8:>>F#8 D#:O1B8 >F#8 >D#8 <F#8:>>C#16 D#16 E:<<E8 B8 >G#8:>B8 <<B8:>>A#16 B16 F#:O1B8 >F#8 >D#8:>E8 <<F#8:>>D#16 E16 F:<<D8 G#8 >F8:>B8 <<G#8:>>A#16 G#16 G8:<<D#8 A#8 >G8 <A#8:>>B16 >C#16 O2G#8:O5D#8 <<D#8:>B16 G#8.:R16 <B8 D#8:>>C#8 O2F#8:>>A#8 <C#8:>F#16 D#8.:R16 <A#8 C#8:>A#8 <<E8:>>G#8 <<B8:>>F#16 <B8&B32.:R16 G#8 <B8:>>F#8 D#:O1B8 >F#8 >D#8 <F#8:>>C#16 D#16 E:<<E8 B8 >G#8:>F#8 <<B8:>>E16 F#16 O1B8:O4D#8 <<F#8:>>F#8 <D#8:>B8 <<F#8:O5D#8 O2F#8:O5C#16 C#8.:R16 <<C#8 A#8:>>C#16 <B8:R16 <C#8:R16 >B16 B:O1B8 >F#8 >D#8 <F#8 >>G#8.:<<C#8 G#8:R16 >>A#16 <E8:>B8 <<G#8:>>A#16 G#16 O1B8:O4F#8 <<F#8:O5D#8 <<D#8:>>D#8 O2F#8 O5C#8.:O2F#8 >C#8:R16 >>D#16 <<A#8:>>E8 <<C#8:>>D#16 C#16 O1B8:O4B8 <<F#8:O5C#8 <<D#8:>F#8 <<F#8 >>E8.:<<C#8 G#8:R16 >>F#16 <E8:>G#8 <<G#8:>>F#16 E16 O1B8:O4D#8 <<F#8:>>B8 <D#8:>B8 <<F#8:>>B8 A#:<<F#8 >C#8 A#8:>G#8 <C#8:>A#8 O1B8:O4B8 <<F#8 >D#8:>>C#16 D#16 O2F#8:O5C#16 <B16 <<E8:>>G#16 B8.:R16 <<B8 >G#8:>>D#16 F#8.:R16 O2B8 <B8:O5C#16 <B8.:R16 <<F#8 >D#8:>>C#16 D#16 O2F#8:O5C#16 <B16 <<F#8:>>G#16 B8.:R16 <C#8 A#8:>>D#16 F#8.:R16 <<C#8 <G#8:O5C#16 <B8.:R16 <D#8 B8:>>C#16 D#16 <<D#8:>>C#16 <B16 <<E8:>>G#16 B8.:R16 <<B8 >G#8:>>D#16 F#8:R16 O2B8:R16 O5F#16 O1B8:O5G#16 F#8.:R16 O2F#8 >D#8:>>F#16 B8.:R16 O2F#8 F#8:O5A#16 F#8.:R16 <<C#8 A#8:>>D#16 F#8.:R16 <<C#8 <D#8:O5C#8 O2A#8 >G8:>>C#16 D#16 O2A#8:O5C#16 <B16 <<E8:>>G#16 B8.:R16 <<B8 >G#8:>>D#16 F#8.:R16 O2B8 <B8:O5C#16 <B8.:R16 <<F#8 >D#8:>B16 B16 <<F#8:O5C#16 D#16 O2D#8:O5E16 D#8.:R16 O2A#8 >G8:>>C#16 <A#8.:R16 <<A#8 >>B:<<G#8 >D#8 B8 D#8:>B16 A#16 <<C#8:>>G#8 <<G#8:>>A#8 <E8:>B8 <<G#8:O5C#8 O1B8:O4B8 <<F#8:>>F#8 <D#8:>D#16 F#8.:R16 <<F#8 E8:>>G#16 >C#8.:R16 O2B8 >G#8:>A#16 B8.:R16 <<B8 >>B:O1B8 >F#8 >D#8 <F#8:>>B16 A#16 <<C#8:>>G#8 <<G#8:>>A#8 <E8:>B8 <<G#8:O5C#8 O1B8:O4B8 <<F#8:>>F#8 <D#8:>B16 >C#8.:R16 O2F#8 E8:O5D#16 E8.:R16 O2B8 >G#8:>>C#16 <B8.:R16 <<B8 >>B:O1B8 >F#8 >D#8 <F#8 >>B:<<G#8 >D#8 >>D#:<<B8 D#8 >>C#:O2F#8 >C#8 >B:<A#8 C#8 >>E:O2E8 B8 O5C#:<<G#8 <B8 O5D#:O1B8 >F#8 >>B:<D#8 <F#8 O5E:O2E8 B8 O5C#:<<G#8 <B8 O5D#:O1B8 >F#8 >>B:<D#8 <F#8 >>B:<<D8 G#8 >>G#:<F8 <G#8 >>G:<<D#8 A#8 >G8:>A#8 <<A#8:>>B16 >C#16 O2G#8:O5D#8 <<D#8:>B16 G#8.:R16 <B8 D#8:>>C#8 O2F#8:>>A#8 <C#8:>F#16 D#8.:R16 <A#8 C#8:>A#8 <<E8:>>G#8 <<B8:>>F#16 <B8&B32.:R16 G#8 <B8:>>F#8 D#:O1B8 >F#8 >D#8 <F#8:>>C#16 D#16 E:<<E8 B8 >G#8:>B8 <<B8:>>A#16 B16 F#:O1B8 >F#8 >D#8:>E8 <<F#8:>>D#16 E16 F:<<D8 G#8 >F8:>B8 <<G#8:>>A#16 G#16 G8:<<D#8 A#8 >G8 <A#8:>>B16 >C#16 O2G#8:O5D#8 <<D#8:>B16 G#8.:R16 <B8 D#8:>>C#8 O2F#8:>>A#8 <C#8:>F#16 D#8.:R16 <A#8 C#8:>A#8 <<E8:>>G#8 <<B8:>>F#16 <B8&B32.:R16 G#8 <B8:>>F#8 D#:O1B8 >F#8 >D#8 <F#8:>>C#16 D#16 E:<<E8 B8 >G#8:>F#8 <<B8:>>E16 F#16 O1B8:O4D#8 <<F#8:>>F#8 <D#8:>B8 <<F#8:O5D#8 O2F#8:O5C#16 D#8.:R16 <<C#8 A#8:>>C#16 <B8.:R16 <C#8 >B:O1B8 >F#8 >D#8 <F#8 >>G#8.:<<C#8 G#8:R16 >>A#16 <E8:>B8 <<G#8:>>A#16 G#16 O1B8:O4F#8 <<F#8:O5D#8 <<D#8:>>D#8 O2F#8 O5C#8.:O2F#8 >C#8:R16 >>D#16 <<A#8:>>E8 <<C#8:>>D#16 C#16 O1B8:O4B8 <<F#8:O5C#8 <<D#8:>F#8 <<F#8 >>E8.:<<C#8 G#8:R16 >>F#16 <E8:>G#8 <<G#8:>>F#16 E16 O1B8:O4D#8 <<F#8:>>B8 <D#8:>B8 <<F#8:>>B8 A#:<<F#8 >C#8 A#8:>G#8 <C#8:>A#8 O1B8:O4B8 <<F#8 >D#8:>>C#16 D#16 O2F#8:O5C#16 <B16 <<E8:>>G#16 B8.:R16 <<B8 >G#8:>>D#16 F#8.:R16 O2B8 <B8:O5C#16 <B8.:R16 <<F#8 >D#8:>>C#16 D#16 O2F#8:O5C#16 <B16 <<F#8:>>G#16 B8.:R16 <C#8 A#8:>>D#16 F#8.:R16 <<C#8 <G#8:O5C#16 <B8.:R16 <D#8 B8:>>C#16 D#16 <<D#8:>>C#16 <B16 <<E8:>>G#16 B8.:R16 <<B8 >G#8:>>D#16 F#8.:R16 O2B8 <B8:O5G#16 F#8.:R16 O2F#8 >D#8:>>F#16 B8.:R16 O2F#8 F#8:O5A#16 F#8.:R16 <<C#8:R16 >>D#16 <<A#8:>>D#16 F#8:R16 <<C#8:R16 >>D#16 O2D#8:O5C#8 O2A#8 >G8:>>C#16 D#16 O2A#8:O5C#16 <B16 <<E8:>>G#16 B8.:R16 <<B8 >G#8:>>D#16 F#8.:R16 O2B8 <B8:O5C#16 <B8.:R16 <<F#8 >D#8:>B16 B16 <<F#8:O5C#16 D#16 O2D#8:O5E16 D#8.:R16 O2A#8 >G8:>>C#16 <A#8.:R16 <<A#8 >>B:<<G#8 >D#8 B8 D#8:>B16 A#16 <<C#8:>>G#8 <<G#8:>>A#8 <E8:>B8 <<G#8:O5C#8 O1B8:O4B8 <<F#8:>>F#8 <D#8:>D#16 F#8:R16 <<F#8:R16 >>F#16 <<E8:>>G#16 >C#8.:R16 O2B8 >G#8:>A#16 B8.:R16 <<B8 >>B:O1B8 >F#8 >D#8 <F#8:>>B16 A#16 <<C#8:>>G#8 <<G#8:>>A#8 <E8:>B8 <<G#8:O5C#8 O1B8:O4B8 <<F#8:>>F#8 <D#8:>B16 >C#8.:R16 O2F#8 E8:O5D#16 E8.:R16 O2B8 >G#8:>>C#16 <B8.:R16 <<B8 >>B:O1B8 >F#8 >D#8 <F#8 >>G#:<<F8 >C8 >>D#:<<G#8 C8 >>F:O2C#8 G#8 O5D#:<<F8 <G#8 >>A#:<<D#8 A#8 O5C#:<<G8 <A#8 O5C:O2G#8 >D#8 >C8 <D#8 >G#:<<C#8 G#8 O5C8.:<<F8 <G#8:R16 O5C16 C#:O1G#8 >D#8 O5C:<<C8 <D#8 >>A#:<<D#8 A#8 >>G:<G8 <A#8 >>G#:<<G#8 >D#8 >C8 <D#8 >G#:<<F8 >C8 >>D#:<<G#8 C8 >>F:O2C#8 G#8 O5D#:<<F8 <G#8 >>A#:<<D#8 A#8 O5C#:<<G8 <A#8 O5C:O2G#8 >D#8 >C8 <D#8 >G#:<<C#8 G#8 O5C:<<F8 <G#8 O5C#:O1G#8 >D#8 O5C:<<C8 <D#8 >>A#:<<D#8 A#8 >>G:<G8 <A#8 >>G#:<<G#8 >D#8 >C8:R16 G8:R16 <D#8:R16 >G#16 G#:<<F8 >C8 >>D#:<<G#8 C8 >>F:O2C#8 G#8 O5D#:<<F8 <G#8 >>A#:<<D#8 A#8 O5C#:<<G8 <A#8 O5C:O2G#8 >D#8 >C8 <D#8 >G#:<<C#8 G#8 O5C:<<F8 <G#8 O5C#:O1G#8 >D#8 O5C:<<C8 <D#8 >>A#:<<D#8 A#8 >>G:<G8 <A#8 >>G#:<<G#8 >D#8 >C8 <D#8:>G16 G#16 G#:<<F8 >C8 >>D#:<<G#8 C8 >>F:O2C#8 G#8 O5D#:<<F8 <G#8 O5G:O2D#8 A#8 >G8:>>G8 O2A#8:O5G#8 G#:O2G#8 >D#8 >C8 <D#8 <C#8:O5G#8 O2G#8:O5D#8 D#:<<F8 <G#8 O5C#:O1G#8 >D#8 >C8:>>C8 O2D#8:>>A#8 A#:<<D#8 A#8 >>B:<G8 <A#8 C#8:>>A#8 <<G#8:>>G#8 G#:<F8 <G#8 C#8:>>F8 <<G#8:>>D#8 <F8:>F8 <<G#8:>>G8 <<D#8:>>G#8 <<A#8:>>G8 <G8:>G#8 <<A#8:>>A#8 B:<<E8 B8 >G#8:>B16 >C#16 O2B8:O5D#16 E&E16:R16 O2F#8 >C#8 A#8:>>C#16 D#16 <<C#8:>>C#16 <B16 <<E8:>>G#16 B8.:R16 <<B8 >G#8:>>D#16 F#8.:R16 O2B8 <B8:O5C#16 <B8.:R16 <<F#8 >D#8:>>C#16 D#16 O2F#8:O5C#16 <B16 <<F#8:>>G#16 B8.:R16 <C#8 A#8:>>D#16 F#8.:R16 <<C#8 <G#8:O5C#16 <B8.:R16 <D#8 B8:>>C#16 D#16 <<D#8:>>C#16 <B16 <<E8:>>G#16 B8.:R16 <<B8 >G#8:>>D#16 F#8:R16 O2B8:R16 O5F#16 O1B8:O5G#16 F#8.:R16 O2F#8 >D#8:>>F#16 B8.:R16 O2F#8 F#8:O5A#16 F#8.:R16 <<C#8 A#8:>>D#16 F#8:R16 <<C#8:R16 >>D#16 O2D#8:O5C#8 O2A#8 >G8:>>C#16 D#16 O2A#8:O5C#16 <B16 <<E8:>>G#16 B8.:R16 <<B8 >G#8:>>D#16 F#8.:R16 O2B8 <B8:O5C#16 <B8.:R16 <<F#8 >D#8:>B16 B16 <<F#8:O5C#16 D#16 O2D#8:O5G#16 D#8.:R16 O2A#8 >G8:>>C#16 <A#8.:R16 <<A#8 >>B:<<G#8 >D#8 B8 D#8:>B16 A#16 <<C#8:>>G#8 <<G#8:>>A#8 <E8:>B8 <<G#8:O5C#8 O1B8:O4B8 <<F#8:>>F#8 <D#8:>D#16 F#8.:R16 <<F#8 E8:>>G#16 >C#8.:R16 O2B8 >G#8:>A#16 B8.:R16 <<B8 >>B:O1B8 >F#8 >D#8 <F#8:>>B16 A#16 <<C#8:>>G#8 <<G#8:>>A#8 <E8:>B8 <<G#8:O5C#8 O1B8:O4B8 <<F#8:>>F#8 <D#8:>E16 D#8.:R16 <<F#8 E8:>>E16 B8.:R16 <<B8 >G#8:>B16 >F#8.:R16 O2B8 O5D#:O1B8 >F#8 >D#8 <F#8:O5D#16 C#16 O2C#8:>>B8 <<G#8:O5C#8 <<E8:>>D#8 O2G#8:O5E8 O1B8:O5D#8 O2F#8:>>B8 <D#8:>F#16 B8.:R16 <<F#8 E8:O5C#16 D#8.:R16 O2B8 >G#8:>>C#16 <B8.:R16 <<B8 >>B2:O1B8 