#Title there is a reason
T134>>C#16 D#16 E8. E8. D# C# <G#2.&G#16&G#64R8R32 G#16 A16 B8. B8. A G# G#2.&G#8:E2.&E8 C#8 <B8 >C#8 E8 F# F# E8 <B8 >C#8.:<C#8. >F#8.:<F#8. >G#&G#16.:<G#&G#16.R8R64 >C#16 D#16 E2. <B8.&B32.:R64 >E8.&E32:R64 G#8.&G#64 D#2.&D#8.:F#2.&F#8.:<B2.&B8.R8R32. >F#8 F#8 E8 F#8. E8. F# E F# G# F# E8 F#8 E8 F#8. G#8. F# E C#8 C#.&C#16.R8R64 F#8 F#8 E8 F#8. E8. F# E F# G# C#2 <B8 B.&B16.R1R8R64 >F#8:C#8 F#8:C#8 E8:<B8 >F#8.:C#8. E8.:<B8. >F#:C# E:<B >F#:C# G#:D# F#:C# E8 F#8 E8 F#8.:C#8. G#8.:D#8. C#. <B B8 >C#8 F#8:C#8 G#16.&G#64:D#16.&D#64R8 C#8 C#8 C#8 E8 E8 F#8 G# C# C#2&C#8 <B:>F#:<F# >E8 F#.:D#. <B8 >D#. C#8 C#2&C#16&C#64R2R32 <A:>C#:<E >C# E:C# C#8 E G# F#.:D#. E:C# F#:D# G#:E F# <B8:G#8 B:G# >C#.:<G#. E8 <B8 >C#8 E16.&E64R8 G#.:E. E:<G# >D# <B G# >E2:G#2:<A2 >A:>C#:<E >C# E:C# C#8 E G# F#.:D#. <B >C# B:G# G#:E F#8 E F# D:F#:<G >E8 F#8 E8 F#8.&F#32.R8 F#:<A >E8 F#8 E8 C#:G#:<A B8 >C#1.&C#. F#:<F# >F#8.:>C#8.:<C#8. F#8.:C#8. F#8:C#8 F#8.:C#8. E8.:C#8. E8:C#8 F#8.:D8. A8.:D8. B8:D8 A8.&A32.:>C#8.&C#32.:<D8.&D32.R E8. A8.:E8. B8:E8 >C#8.:<E8. B8.:E8. A8:E8 E8.:B8.:<B8. >G#8. E8 <B.&B16.:>F#.&F#16.:<G#.&G#16.RR64 >F#:D E:C# F#:D A:F# F#:C# F#:C# C# <A.:B.:>D#.:<D#. >G#8:<G#8 >G#2:<G#2 >C#.:F.:<F. >F8:>C#8:<C#8 C#:>C#2:<F2 F#8.:>C#8.:<C#8. F#8.:C#8. F#8:C#8 F#8.:C#8. E8.:C#8. E8:C#8 F#8.:D8. A8.:D8. B8:D8 A8.&A32.:>C#8.&C#32.:<D8.&D32.R F#8.:<B8. >A8.:E8. B8:E8 >C#8.:<E8. >E8.:<E8. B8:E8 >C#8.:<E8. B8.:E8. A8:E8 F#:<B >E:<B >D1:F#1:<B1 >E2&E8.&E64:G#2&G#8.&G#64:C#2&C#8.&C#64R8R32 A1&A8 B2. >C#8 C#1&C#16R1R8R32. <F#8:C#8 F#8 E8 F#8.:C#8. E8. F# E:C# F#:D# G#:E F#:C# E8 F#8 E8 F#8.:C#8. G#8.:C#8. F# E:<B >C#:<G# B:G# >C#2:<G#2 >G#8 C#1&C#.&C#32.:G#1&G#.&G#32.:<G#1&G#.&G#32.R2.R8. >F#8 G#8. C#8. C#8 C#8. D#32.R8 <F# F#16 E16 F#8 E8 F#8. G#32.R8 F# F#16 E16 F#8 E8 F#8. G#32.R8 F# F#16 E16 F#8 E8 F#8. G#32.R8 C# <B16.&B64R. >C#8 F#8 G# C#16.&C#64R. E8 F#8 G# C#8 D#8 C#16.&C#64R. F#. E8 F#&F#16.R8R64 D#. C#8 <G#2&G#16&G#64:>C#2&C#16&C#64:<E2&E16&E64R2R32 >A:>C#:<E >C# E:C# C#8 E G# F#.:D#. E:C# F#:D# G#:E F# <B8:G#8 B:G# >C#.:<G#. E8.:G#8.:C#8. E32.:G#32.:C#32.R8 >B8 B8 >C#8 <G#:>C#:<E <E8.:G#8.:C#8. E32.:G#32.:C#32.R8 >B8 B8 >C#8 <G#:E <E2:G#2:<A2 >A:>C#:<E >C# E:C# C#8 E G# F#.:D#. <B >C# B:G# G#:E F#8 E F# D:F#:<G >E8 F#8 E8 F#8.&F#32.R8 F#:<A >E8 F#8 E8 F#8. E8. G#1&G#16R2.R32. C#:F#:<A >F#8.:>C#8.:<C#8. F#8.:C#8. F#8:C#8 F#8.:C#8. E8.:C#8. E8:C#8 F#8.:D8. A8.:D8. B8:D8 A8.&A32.:>C#8.&C#32.:<D8.&D32.R E8. A8.:E8. B8:E8 >C#8.:<E8. B8.:E8. A8:E8 E8.:B8.:<B8. >G#8. E8 <B.&B16.:>F#.&F#16.:<G#.&G#16.RR64 >F#:D E:C# F#:D A:F# F#:C# F#:C# C# <B.:>D#.:<A. >G#8:<G#8 >G#2:<G#2 >F.:C#. F8:>C#8:<C#8 F:>C#:<C# <C#16 F16 G#16 >C#16 F#8.:>C#8.:<C#8. F#8.:C#8. F#8:C#8 F#8.:C#8. E8.:C#8. E8:C#8 F#8.:D8. A8.:D8. B8:D8 A8.&A32.:>C#8.&C#32.:<D8.&D32.R F#8.:<B8. >A8.:E8. B8:E8 >C#8.:<E8. >E8.:<E8. B8:E8 >C#8.:<E8. B8.:E8. A8:E8 F#:<B >E:<B >D1:F#1:<B1 >E2&E8.&E64:G#2&G#8.&G#64:C#2&C#8.&C#64R8R32 A2.&A16&A64R8R32 C#8 G#2. F#8:C#8 C#1&C#16:F#1&F#16:R8 <E.:G#.:C#. F#. E8:C#8 E2:C#2 F#2&F#8:D#2&D#8 G#.:B.:E. G#.:>C#.:<E. G#.:E. G#8:E8 G#8:E8 G#8:E8 G#8:E8 G#8:E8 G#:E G.:E. A2:F#2 >D C#16.&C#64R8 <B8 A2 A.:F#. G.:E. F#8:D8 F#:D <B8 >C#8 F#8 >D8 A16.&A64R. E8 E8 D8 E8. D8. E. D <B >D8.&D32.R8 E8 E8 D8 E8. D8. <B. >D E.&E16.R8R64 E8:<B8 >E8:<B8 >D8 E8.:<B8. >D8.:<B8. >E:<B >D:<A >E:C# A:E E2.&E16&E64:C#2.&C#16&C#64R8R32 D8 E:<B >D8 E:<B >D8 E8 <B1&B16:>D#1&D#16:F#. F# B >C# F#2 E.&E16.:R <E E8.:B8.:<B8. >E8.:<B8. >E8:<B8 >E8.:<B8. >D8.:<B8. >D8:<B8 >E8.:C8. G8.:C8. A8:C8 E2:B2:C2 D8.:<B8. >G8.:D8. A8 G8.:B8.:D8. A8. G8 F#8.:A8.:<B8. >G8. D8 E D C1:E1:<A1 >D2&D8.&D64:F#2&F#8.&F#64:<B2&B8.&B64R8R32 >G8 E1:G1:C1 F#2&F#8.&F#64:A2&A8.&A64:D2&D8.&D64R8R32 B8 B2.&B8.R1RR32. C#:F#:<F# >F#:>C#:<C# F#:B:<B >F#8.:>C#8.:<C#8. F#8.:C#8. F#8:C#8 C#8.:F#8.:<F#8. >C#8.:E8.:<E8. >C#8:E8:<E8 >D8.:F#8.:<F#8. >A8.:<A8. >B8:<B8 >A2:>C#2:<C#2 C#8.:F#8.:<F#8. >A8.:<A8. >B8:<B8 >A8.:>C#8.:<C#8. B8.:<B8. >A8:<A8 >G#8.:B8.:<B8. >A8.:<A8. >E8:<E8 B.&B16.:>F#.&F#16.:<F#.&F#16.RR64 >D:F#:<F# >E:<E >F#:<F# >E:A:<A >C#:F#:<F# >C#:F#:<F# >C#:<C# B.:>D#.:<D#. >D#8:G#8:<G#8 >D#2:G#2:<G#2 >F.:G#.:>D.:<C#. >C#8 <F:G#:>C#:<C# <C#16 F16 G#16 >C#16 F#8.:>C#8.:<C#8. F#8.:C#8. F#8:C#8 C#8.:F#8.:<F#8. >C#8.:E8.:<E8. >C#8:E8:<E8 >D8.:F#8.:<F#8. >A8.:<A8. >B8:<B8 >A2:>C#2:<C#2 <B8.:>F#8.:<F#8. >A8.:<A8. >B8:<B8 >A8.:>C#8.:<C#8. >E8.:<E8. B8:<B8 >A8.:>C#8.:<C#8. B8.:<B8. >>C#8:<C#8 C#:F#:<F# >C#:E:<E >D1:F#1:<F#1 >E2&E8.&E64:G#2&G#8.&G#64:<G#2&G#8.&G#64R8R32 >A2.&A16&A64:<A2.&A16&A64R8R32 >C#8:<C#8 >G#2&G#8.&G#64:<G#2&G#8.&G#64R8R32 >F#8:<F#8 >F#1:<F#1 >B2&B8.&B64:<B2&B8.&B64R8R32 >>C#8:<C#8 >C#1.&C#.&C#64:<C#2 C# <A8 B2&B8 A G# A1:>C#1:<F#1 G#1:>C#1:<E1 A1.:>C#1.:<E1. >E2 C#1:F#1:<A1 B1:>E1:<G#1 A2.&A8.:F#2.&F#8. 
#NewTrack
T134 R8 C#8 G#8 >E8 C#8 E. <E:<A A8 B8 >E8 G#2 <B8 >G#8 B8 C8 G#8 >C <C#1&C#8 <<F#8 >C#8 A8 B2&B8 <G#8. >B8. >E2&E8 <<A8 >A8 B8 >E2&E8 <<B1 >B8.&B32.:R64 >E8.&E32:R64 F#8.&F#64R E2 <<A8 >A8 B8 >E2&E8 <<F#.&F#16.:R. >F#2&F#16&F#64:R8 >C#2 <<B. >B&B16.:R8 >E F#:C# E:F#:<B C#8 G#8 >G#. <<A >B:F# >C#:<G# >E.:<B. <F#8 >F#8 >C#8 E F# E2:F#2:<B2 <B8 >>E2:G#2:<B2 C#2.&C#8.:R8 G#8 >C#8 E16.&E64R8 <G#8 >C#8 E8 <<A2.&A8.:R8 >E8 A8 >C#16.&C#64R8 <E8 A8 >C#8 <<F#2.&F#8.:R8 >C#8 F#8 A16.&A64R8 C#8 F#8 A8 <G#2.&G#8.:R8 >D#8 G#8 B16.&B64R8 D#8 G#8 B8 C#2.&C#8.:R8 G#8 >C#8 E16.&E64R8 <G#8 >C#8 E8 <<A2.&A8.:R8 >E8 A8 >C#16.&C#64R8 <E8 A8 >C#8 <<F#2:<F#2 >B2:<B2 O4C#.&C#16.:<C#8 C#&C#16.:R8 G#8 >F#8 F8 C#8 <G#8 F8 <<A1.&A.&A64:>A1.&A.&A64:R2R8 >A8 B8 >E1&E8 O1G#2.&G#8.:>G#2.&G#8.:R8 >D#8 F#8 B2&B8 <G#8 >G#8 B >E F# <<C#2.&C#8.:>C#2.&C#8.:R E8 G#8 B2 E D# <B G# <A1.&A.&A64:>A1.&A.&A64:R2R8 >A8 B8 >E1&E8 O1G#2.&G#8.:>G#2.&G#8.:R8 >D#8 F#8 B2&B16&B64R8R32 D#8 F#8 B8 F#8 D#8 <B <G.&G16.:>G. G.&G16.:R8 >G. <<F#2&F#16&F#64:>F#2 F#&F#16.:R8 >F# >D8 <G#1&G#1&G#8:>C#1&C#1&C#8:<C#1&C#1&C#8 <F#2.&F#8.:>F#. F#&F#16.:R8 >F#:C# <F# <D2.&D8.:>D. D&D16.:R8 >D:<A D <A2.&A8.:>A. A&A16.:R8 >A:E <A <E2.&E8.:>E. E&E16.:R8 >E:<B E <D2.&D8.:>D. D&D16.:R8 >D:<A D <C#2.&C#8.:>C#. C#&C#16.:R8 >C#:<G# C# <D#2.&D#8.:>D#. D#&D#16.:R8 B:G# D# <C#2.&C#8.:>C#. C#8 >F8 G#8 >C# O2F#2.&F#8.:>F#. F#&F#16.:R8 >F#:C# <F# <D2.&D8.:>D. D&D16.:R8 >D:<A D <E2.&E8.:>E. E&E16.:R8 >E:<B E <C#2.&C#8.:>C#. C#&C#16.:R8 >C#:<G# C# <<B2.&B8.:>B. B&B16.:R8 >B:F# <B C#2.&C#8.:>C#. C#&C#16.:R8 >C#:<G# C# <D2.&D8.:>D. D&D16.:R8 >D:<A D E8:<E8 >E8:<E8 >E8:<E8 >E8:<E8 >E8:<E8 >E8:<E8 >E8:<E8 >E8:<E8 >F#8:<F#8 >F#8:<F#8 >F#8:<F#8 >F#8:<F#8 >F#8:<F#8 >F#8:<F#8 >F#8:<F#8 >F#8:<F#8 >F#8:<F#8 >F#8:<F#8 >F#8:<F#8 >F#8:<F#8 >F#2:<F#2 >C#2.&C#8.:R8 G#8 >C#8 E16.&E64R8 <G#8 >C#8 E8 <<A2.&A8.:R8 >E8 A8 >C#16.&C#64R8 <E8 A8 >C#8 <<F#2.&F#8.:R8 >C#8 F#8 A16.&A64R8 C#8 F#8 A8 <G#2.&G#8.:R8 >D#8 G#8 B16.&B64R8 D#8 G#8 B8 C#2.&C#8.:R8 G#8 >C#8 E16.&E64R8 <G#8 >C#8 E8 <<A2.&A8.:R8 >E8 A8 >C#16.&C#64R8 <E8 A8 >C#8 <<F#2.&F#8.:R8 >C#8 F#8 A16.&A64R8 C#8 F#8 A8 C#8.&C#32.:<C#8.&C#32.R2R8 >C#:<C# >C#8 >C#8:<G#8 C#8 >C#8:<G#8 C#8 >C#8:<G#8 <A:<A >A8 >A8:E8 <A8 >A8:E8 <A8 >A8:E8 <F#:<F# >F#8 >F#8:C#8 <F#8 >F#8:C#8 <F#8 >F#8:C#8 <B:<B >B8 >B8.&B32.:F#8 <B8 >B8:F#8 <B8 >B8:F#8 C#:<C# >C#8 >C#8.&C#32.:<G#8 C#8 >C#8:<G#8 C#8 >C#8:<G#8 <A:<A >A8 >A8:E8 <A8 >A8:E8 <A8 >A8:E8 <F#:<F# >F#8 >F#8:C#8 <B B8 >B.:F#. <B8 >C#8 C#:<C# C#8 >C#8 <C#8 A8.:<A8. >A8.:<A8. >A8:<A8 >A8:<A8 >A8 >A:E <A8.:<A8. >A8.:<A8. >A8:<A8 >A8:<A8 >A8 >A8:E8 G# <G#8 >G#8:D#8 <G#16.&G#64R8 G#8 >D#8 G#8 <G#8 >G#8 <G#8 G#16.&G#64:<G#16.&G#64R8 >G#8 >D#8 G#8 C#8.:<C#8. >C#8.:<C#8. >C#16.&C#64:<C#16.&C#64R8 >C#8:<C#8 >C#:<C# >C#8.:<C#8. >C#8.:<C#8. >C#16.&C#64:<C#16.&C#64R8 >C#8:<C#8 >C#:<C# A8.:<A8. >A8.:<A8. >A8:<A8 >A8:<A8 >A8 >A:E <A8.:<A8. >A8.:<A8. >A8:<A8 >A8:<A8 >A8 >A8:E8 G# <G#8 >G#8:D#8 <G#16.&G#64R8 G#8 >D#8 G#8 <G#:<G# >>G#8 <G#16.&G#64R8 G#8 >D#8 G#8 <G8:<G8 >G8 B8 >G16.&G64R <G8:<G8 >F#:<F# >F#8 >C#8 F#8 <F#16.&F#64:<F#16.&F#64R >>C#:<C# C#32. >C#16 <C#16 >C#16 <C#16 >C#16 <C#16 >C#16 <C#16 >C#16 <C#16 >C#16 <C#16 >C#16 <C#16 >C#16 <C#16 >C#16 <C#16 >C#16 <C#16 >C#32.R2 <F#8.:<F#8. >>F#8.:C#8. F#8:C#8 <F#8 >C#8 F# <D8.:<D8. >>D8.:<A8. >D8:<A8 D8 A8 >D <A8.:<A8. >>A8.:E8. A8:E8 <A8 >E8 A <E8.:<E8. >>E8.:<B8. >E8:<B8 E8 B8 >E <D8.:<D8. >>D8.:<A8. >D8:<A8 D8 A8 >D <C#8.:<C#8. >>C#8.:<G#8. >C#8:<G#8 C#8 G#8 >C# <D#8.:<D#8. >>D#8.:<B8. >D#8:<B8 D#8 B8 >D# <C#8.:<C#8. >>C#8.:<G#8. >C#8:<G#8 C#16 F16 G#16 >C#32.R <F#8.:<F#8. >>F#8.:C#8. F#8:C#8 <F#8 >C#8 F# <D8.:<D8. >>D8.:<A8. >D8:<A8 D8 A8 >D <E8.:<E8. >>E8.:<B8. >E8:<B8 E8 B8 >E <C#8.:<C#8. >>C#8.:<G#8. >C#8:<G#8 C#8 G#8 >C# <<B8. >B8.:F#8. B8:F#8 <B8 >F#8 B C#8. >C#8.:<G#8. >C#8:<G#8 C#8 G#8 >C# <D8. >D8.:<A8. >D8:<A8 D8 A8 >D E8:<E8 >E8:<E8 >E8:<E8 >E8:<E8 >E8:<E8 >E8:<E8 >E8:<E8 >E8:<E8 A:<A >A8:<A8 >B16.&B64:<B16.&B64R >B8:<B8 >>C#.:<C#. >C#8:<C#8 B2&B8:<B2&B8 >A:<A >A8:<A8 >B16.&B64:<B16.&B64R8 >B8:<B8 >>C#1&C#:<C#1&C# G:<G >G8:<G8 >A16.&A64:<A16.&A64R8 >A8:<A8 >A8:<A8 >B8.&B32.:<B8.&B32.R8 >B8:<B8 >B8:<B8 >B8:<B8 >B8:<B8 >B8:<B8 >B8:<B8 >G:<G >G8:<G8 >A16.&A64:<A16.&A64R8 >A8:<A8 >A8:<A8 >B:<B >B8:<B8 >B8:<B8 >B16.&B64:<B16.&B64R8 >B8:<B8 >B8:<B8 >B8:<B8 >G:<G >>G8:D8 <G16.&G64R8 G8 >G8:D8 <G8 >D:<D >A8:F#8 D16.&D64R8 D8 A8:F#8 D8 <A:<A >>A8:E8 <A16.&A64R8 A8 >A8:E8 <A8 B:<B >>B8:F#8 <B16.&B64R8 A8 >A8:E8 <A8 G:<G >>G8:D8 <G16.&G64R8 G8 >G8:D8 <G8 F#:<F# >>F#8:D8 <F#16.&F#64R8 F#8 >F#8:D8 <F#8 E:<E >E8 >E16.&E64:<B16.&B64R8 E8 >E8:<B8 E8 A:<A >>A8:E8 <A16.&A64R8 A8 >A8:E8 <A8 B8.:<B8. >B8.:<B8. >B8:<B8 >B8:<B8 >B8:<B8 >B8:<B8 >B8:<B8 >B1:<B1 >E2.&E8.:>E2.&E8.:R >E:G:<B >E:G:<B >E:G:<B <C2.&C8.:>C2.&C8.:R >C:E:<G >C:E:<G >C:E:<G <<G2.&G8.:>G2.&G8.:R >>D:G:<B >D:G:<B >D:G:<B <<B2.&B8.:>B2.&B8.:R >>F#:B:D F#:B:D F#:B:D O1A2.&A8.:>A2.&A8.:R >>C:E:<A >C:E:<A >C:E:<A <<B2.&B8.:>B2.&B8.:R >>D:F#:<B >D:F#:<B >D:F#:<B <C2.&C8.:>C2.&C8.:R >E:G:C E:G:C E:G:C <<D2.&D8.:>D2.&D8.:R >F#:A:D F#:A:D F#1&F#:A1&A:D1&D O1E16 >E16 <E16 >E16 <E16 >E16 <E16 >E16 <E16 >E16 <E16 >E16 <E16 >E16 <E16 >E16 <E16 >E16 <E16 >E16 <E16 >E16 <E16 >E16 <E16 >E16 <E16 >E16 <E16 >E16 <E16 >E16 <F#2.&F#8.:>F# >F#:C# <F#8 >C#8 F#8 C#8 <<D2.&D8.:>D >D:<A D8 A8 >D8 <A8 <A2.&A8.:>A >A:E <A8 >E8 A8 E8 <<E2.&E8.:>E >E:<B E8 B8 >E8 <B8 <D2.&D8.:>D >D:<A D8 A8 >D8 <A8 <C#2.&C#8.:>C# >C#:<G# C#8 G#8 >C#8 <G#8 <D#2.&D#8.:>D# >D#:<B D#8 B8 >D#8 F#8 <<C#2.&C#8.:>C# >C#:<G# C#16 F16 G#16 >C#32.R <<F#2.&F#8.:>F# >F#8:C#8 <F#8 >F#8:C#8 <F#8 >F#:C# <<D2.&D8.:>D >D8:<A8 D8 >D8:<A8 D8 >D:<A <E2.&E8.:>E >E8:<B8 E8 >E8:<B8 E8 >E:<B <C#.&C#16.:>C#.&C#16.:R >F#:C# <<C#.&C#16.:>C#.&C#16.:R >E:C# <<B2.&B8.:>B >B8:F#8 <B8 >B8:F#8 <B8 >B:F# <C#2.&C#8.:>C# >C#8:<G#8 C#8 >C#8:<G#8 C#8 >C#:<G# <D2.&D8.:>D >D8:<A8 D8 >D8:<A8 D8 >D:<A <E2.&E8.:>E >E8:<B8 E8 >E8:<B8 E8 >E:<B <<F#2.&F#8.:>F# >F#8:C#8 <F#8 >F#8:C#8 <F#8 >F#:C# <<G#2.&G#8.:>G#2.&G#8.:R >B8:G#8 <B8 >B8:G#8 <B8 >B:G# <<A2.&A8.:>A >A8:E8 <A8 >A8:E8 <A8 >A:E <B8:<B8 >B8:<B8 >B8:<B8 >B8:<B8 >B8:<B8 >B8:<B8 >B16.&B64:<B16.&B64R8 >>A1 E1 C#1. E2 F#1 E1 F#2.&F#8. 