#Title 七里香-13轨
T142O1C8L1RRRRRRRRRRRRRRR.L4R.O4G>C2<B>C16R16C2&C8RCC<BAB8AG.RGG2FE8G2&G8RGGADF16R16FE.RG>C2<B>C16R16C2&C8RCC<B>CL16DRD4C8.R<G8L4>C<B>CL16CRL4C.L16<BRL4BA&A16R16AB8AG1&G.GL8>CRC2<E4ARA2G4>DRD2L4<DF16R16FE.RL8GRG4FRF4EE4.DRL4DC8E.D2FE2GL8>CRC2R2.<GRG4>DRD2R2.<GRG4>ERE4DRL4DC8R8CDCL8ERL4E.D2.&D8<G>CC16R16C2&C8RC8R8C<BAGB>CDC2<G>CC16R16C2&C8RC8R8C<BAG>DEF.E.<G>CC16R16C2&C8RC8R8C<BAG>DC<B>C16R16C2&C8RC8R8CEDC8R8C<B>D.C16R16C1&C<G>CC16R16C2&C8RC8R8C<BAGB>CDC16R16C.<G>CC16R16C2&C8RC8R8C<BAG>DEFE16R16E.<G>CC16R16C2&C8RC8R8C<BAG>DCDL8FE4C2RCRL4CEDC8R8C<B>D.C16R16L1C.&C4RRRRRRRRRRRRRRR.<G4>C4C16R16C2&C8L4RC8R8C<BAGB>CDC16R16C.<G>CC16R16C2&C8RC8R8C<BAG>DEFE16R16E.<G>CC16R16C2&C8RC8R8C<BAG>DC<BL8>CC2&CL4RC8R8CEDC8R8C<B>D.C16R16C1R2<GL8>CRC2<E4ARA2G4>DRDE4&E16L16R<D4FRF4.L8E.D16C4GRG4FRL4FL16ERL4ED&D16R16DC8E.D2FE2GL8>CRC2R2.<GRG4>DRD2R2.<GRG4>ERE4DRL4DC8R8CDCL8ERL4E.D2.&D8<G>CC16R16C2&C8RC8R8C<BAGB>CDC16R16C.<G>CC16R16C2&C8RC8R8C<BAG>DEFE16R16E.<G>CC16R16C2&C8RC8R8C<BAG>DC<B>C16R16C2.L8RCRL4CEDC8R8C<B>D.C16R16C1&CR<B2>C2.C8R8C<BAGB>CD.C16R16C8R8<G>CC16R16C2&C8RC8R8CEDCDEFE16R16E.<G>C8R8C16R16C2&C8.L8R.CRL4C<BAG>DCDL8FE4C2RCRL4CEDCC<B>D.C16R16C1.&C
#NewTrack
L1RRRRRRR.R4.L8O1DEGA2.DEF2.F4G2.GA>C4C4L2<BA.D8E8F.L4FGGGGGGL2GA.D8E8F.R4G.G8A8>C4C4<BA.D8E8F.F4G.G8A8>C4C4<G#A.D8E8F.F4G.G4>C<G#A.D8E8F.F4G.G4L8GRG4G#RL4G#L2A.E4F.F4G.L8GA>CRC4<BRL4BA2REF2.FG2.L8GA>CRC4L2<G#A.E4F.F4G.L8GA>CRC4L2<BA.L4EF2.FGGGGGGEEL2A.E4F.F4G.L8GA>CRC4<BRL4BA2REF2.FG2.L8GA>CRC4L2<G#A.E4F.F4GG#AED.D4G.L8GAL2>C.C8R8C<G#A.E4F.F4G.L8GA>CRC4<BRL4BA2REF2.FG2.L8GA>CRC4L2<G#A.E4F.F4GG#AED.D4G.L8GA>C2.CRL1CRRRRRRRRL2<A.A4G.L4GL2F#.F#.L4F#G#L2A.A4G.L4GL2F#.F#.L4F#G#L2A.E4F.F4G.L8GA>CRC4<BRL4BA2REF2.FG2.L8GA>CRC4L2<G#A.E4F.F4GG#AED.D4G.L8GA>C2.CRC1<A2.DEF2.R4G2.GA>C4C4L2<BA.D8E8F.F4G.G8A8L4>CCL2<G#A.E4F.F4G.L8GA>CRC4L2<BA.L4EF2.FGGGGGGEEL2A.E4F.F4G.L8GA>CRC4<BRL4BA2REF2.FG2.L8GA>CRC4L2<G#A.E4F.F4GG#AED.D4G.L8GA>C2.CRC1L2<A.E4F.F4G.L8GA>CRC4<BRL4BA2REF2.FG2.L8GA>CRC4L2<G#A.E4F.F4GG#AED.D4G.L8GA>C2.CRC1
#NewTrack
L1RRRRRRRRRRRRRRRRRRRRRRRRRRRRRRRRRRRRRRRRRRRRRRRRRRRRRRRRRRRRRRRRRRRRRRRRRRRRRRRRL4R>E<A>EDE<A>EDE<A>ADE<A>ADE<A>ED:<C>E<A>ED:<C>E<A>ADE<A>ED
#NewTrack
L1RRRRRRRRRRRRRRRRRRRRRRRRRRRRRRRRRRRRRRRRRRRRRRRRRRRRRRRRRRRRRRRRRRRRRRRRRRRRRRRRL4R<<A1:>A>CEC<<G1:>G>CEC<<F#1.&F#:>F#>DCDCDE<G:<EA2.:>A>CE:R8<<E8AG2.:>G>CE:R8<<E8GF#1&F#1:>F#>DEDEDED
#NewTrack
L1RRRRRRRRL4R<A:E:L8>C.&C32.<E:>C:<A16.&A64A:E:>C16.&C64<A4:E4:>C.&C32.<A:E:>C16.&C64<A:E:>C16.&C64<F4:C4:A.&A32.F:A:C16.&C64F:C:A16.&A64F4:A4:C.&C32.F:A:C16.&C64F:C:A16.&A64G4:D4:B.&B32.G:D:B16.&B64G:D:B16.&B64G4:B4:D.&D32.G:D:B16.&B64G:D:B16.&B64G4:>C4:<E.&E32.G:E:>C16.&C64<G:E:>C16.&C64<G4:B4:D.&D32.G:B:D16.&D64G:D:B16.&B64A4:E4:>C.&C32.<A:E:>C16.&C64<A:E:>C16.&C64<A4:E4:>C.&C32.<A:E:>C16.&C64<A:E:>C16.&C64<F4:A4:C.&C32.F:A:C16.&C64F:C:A16.&A64F4:C4:A.&A32.F:C:A16.&A64F:C:A16.&A64A4:>C4:<F.&F32.A:>C:<F16.&F64A:F:>C16.&C64<A4:F4:>C.&C32.<A:F:>C16.&C64<A:F:>C16.&C64<G4:B4:D.&D32.G:D:B16.&B64G:D:B16.&B64L4G:B:D8.&D32.G:D:B8.&B32.A:>C:L8<E.&E32.A:E:>C16.&C64<A:E:>C16.&C64<A4:>C4:<E.&E32.E:<A:>C16.&C64C:E:<A16.&A64>F4:A4:C.&C32.F:C:A16.&A64F:C:A16.&A64F4:C4:A.&A32.F:C:A16.&A64F:C:A16.&A64B4:G4:D.&D32.G:D:B16.&B64G:D:B16.&B64G4:D4:B.&B32.G:D:B16.&B64G:D:B16.&B64G4:E4:>C.&C32.<G:>C:<E16.&E64G:E:>C16.&C64<G4:B4:D.&D32.G:D:B16.&B64G:D:B16.&B64>C4:<A4:E.&E32.A:E:>C16.&C64<E:A:>C16.&C64<A4:E4:>C.&C32.<E:<A:>C16.&C64C:<A:>E16.&E64F4:A4:C.&C32.F:C:A16.&A64F:C:A16.&A64C4:A4:F.&F32.F:A:C16.&C64F:C:A16.&A64B4:G4:D.&D32.G:D:B16.&B64G:D:B16.&B64G4:B4:D.&D32.D:G:B16.&B64G:D:B16.&B64L4G:E:>C8.&C32.<G:>C:<E8.&E32.G#:E:L8B.&B32.G#:E:B16.&B64G#:B:E16.&E64A4:E4:>C.&C32.<A:E:>C16.&C64<A:E:>C16.&C64<E4:A4:>C.&C32.<A:E:>C16.&C64<A:E:>C16.&C64<A4:F4:C.&C32.F:C:A16.&A64F:C:A16.&A64F4:C4:A.&A32.F:A:C16.&C64F:C:A16.&A64G4:D4:B.&B32.G:D:B16.&B64G:D:B16.&B64G4:D4:B.&B32.G:D:B16.&B64G:D:B16.&B64G4:E4:>C.&C32.<G:E:>C16.&C64<G:E:>C16.&C64<G#4:B4:E.&E32.G#:E:B16.&B64G#:E:B16.&B64A4:E4:>C.&C32.<A:E:>C16.&C64<A:E:>C16.&C64<A4:E4:>C.&C32.<A:E:>C16.&C64<A:E:>C16.&C64<F4:A4:C.&C32.F:C:A16.&A64F:C:A16.&A64F4:C4:A.&A32.C:F:A16.&A64F:C:A16.&A64G4:B4:D.&D32.G:D:B16.&B64G:D:B16.&B64G4:B4:D.&D32.G:D:B16.&B64G:D:B16.&B64G4:D4:B.&B32.G:B:D16.&D64D:G:B16.&B64G#4:E4:B.&B32.G#:E:B16.&B64G#:E:B16.&B64A4:>C4:<E.&E32.A:E:>C16.&C64<A:E:>C16.&C64<A4:>C4:<E.&E32.E:<A:>C16.&C64C:E:<A16.&A64>F4:A4:C.&C32.F:C:A16.&A64F:C:A16.&A64F4:C4:A.&A32.F:C:A16.&A64F:C:A16.&A64B4:G4:D.&D32.G:D:B16.&B64G:D:B16.&B64G4:D4:B.&B32.G:D:B16.&B64G:D:B16.&B64G4:E4:>C.&C32.<G:>C:<E16.&E64G:E:>C16.&C64<G4:B4:D.&D32.G:D:B16.&B64G:D:B16.&B64>C4:<A4:E.&E32.A:E:>C16.&C64<E:A:>C16.&C64<A4:E4:>C.&C32.<E:<A:>C16.&C64C:<A:>E16.&E64F4:A4:C.&C32.F:C:A16.&A64F:C:A16.&A64C4:A4:F.&F32.F:A:C16.&C64F:C:A16.&A64B4:G4:D.&D32.G:D:B16.&B64G:D:B16.&B64G4:B4:D.&D32.D:G:B16.&B64G:D:B16.&B64L4G:E:>C8.&C32.<G:>C:<E8.&E32.G#:E:L8B.&B32.G#:E:B16.&B64G#:B:E16.&E64A4:E4:>C.&C32.<A:E:>C16.&C64<A:E:>C16.&C64<E4:A4:>C.&C32.<A:E:>C16.&C64<A:E:>C16.&C64<A4:F4:C.&C32.F:C:A16.&A64F:C:A16.&A64F4:C4:A.&A32.F:A:C16.&C64F:C:A16.&A64G4:D4:B.&B32.G:D:B16.&B64G:D:B16.&B64G4:D4:B.&B32.G:D:B16.&B64G:D:B16.&B64G4:E4:>C.&C32.<G:E:>C16.&C64<G:E:>C16.&C64<G#4:B4:E.&E32.G#:E:B16.&B64G#:E:B16.&B64A4:E4:>C.&C32.<A:E:>C16.&C64<A:E:>C16.&C64<A4:E4:>C.&C32.<A:E:>C16.&C64<A:E:>C16.&C64<F4:A4:C.&C32.F:C:A16.&A64F:C:A16.&A64F4:C4:A.&A32.C:F:A16.&A64F:C:A16.&A64G4:B4:D.&D32.G:D:B16.&B64G:D:B16.&B64G4:B4:D.&D32.G:D:B16.&B64G:D:B16.&B64G4:D4:B.&B32.G:B:D16.&D64D:G:B16.&B64G#4:E4:B.&B32.G#:E:B16.&B64G#:E:B16.&B64A4:>C4:<E.&E32.A:E:>C16.&C64<A:E:>C16.&C64<A4:>C4:<E.&E32.E:<A:>C16.&C64C:E:<A16.&A64>F4:A4:C.&C32.F:C:A16.&A64F:C:A16.&A64F4:C4:A.&A32.F:C:A16.&A64F:C:A16.&A64B4:G4:D.&D32.G:D:B16.&B64G:D:B16.&B64G4:D4:B.&B32.G:D:B16.&B64G:D:B16.&B64G4:E4:>C.&C32.<G:>C:<E16.&E64G:E:>C16.&C64<G4:B4:D.&D32.G:D:B16.&B64G:D:B16.&B64>C4:<A4:E.&E32.A:E:>C16.&C64<E:A:>C16.&C64<A4:E4:>C.&C32.<E:<A:>C16.&C64C:<A:>E16.&E64F4:A4:C.&C32.F:C:A16.&A64F:C:A16.&A64C4:A4:F.&F32.F:A:C16.&C64F:C:A16.&A64B4:G4:D.&D32.G:D:B16.&B64G:D:B16.&B64G4:B4:D.&D32.D:G:B16.&B64G:D:B16.&B64L4G:E:>C8.&C32.<G:>C:<E8.&E32.G#:E:L8B.&B32.G#:E:B16.&B64G#:B:E16.&E64A4:E4:>C.&C32.<A:E:>C16.&C64<A:E:>C16.&C64<E4:A4:>C.&C32.<A:E:>C16.&C64<A:E:>C16.&C64<A4:F4:C.&C32.F:C:A16.&A64F:C:A16.&A64F4:C4:A.&A32.F:A:C16.&C64F:C:A16.&A64G4:D4:B.&B32.G:B:D16.&D64D:G:B16.&B64G#4:E4:B.&B32.G#:E:B16.&B64G#:E:B16.&B64A4:>C4:<E.&E32.A:E:>C16.&C64<A:E:>C16.&C64<E4:C4:A.&A32.A:E:C16.&C64E:C:A16.&A64D4:F4:A.&A32.D:A:F16.&F64F:D:A16.&A64A4:D4:F.&F32.D:F:A16.&A64F:D:A16.&A64B4:D4:G.&G32.D:G:B16.&B64D:G:B16.&B64B4:G4:D.&D32.D:G:B16.&B64G:B:D16.&D64G4:E4:>C.&C32.<G:>C:<E16.&E64G:E:>C16.&C64<G4:>C4:<E.&E32.G:>C:<E16.&E64G:E:>C16.&C64C4:<G4:E.&E32.G:E:>C16.&C64<G:E:>C16.&C64<E4:G#4:B.&B32.G#:E:B16.&B64G#:E:B16.&B64A4:>C4:<E.&E32.A:E:>C16.&C64<A:E:>C16.&C64<A4:>C4:<E.&E32.E:<A:>C16.&C64C:E:<A16.&A64>F4:A4:C.&C32.F:C:A16.&A64F:C:A16.&A64F4:C4:A.&A32.F:C:A16.&A64F:C:A16.&A64B4:G4:D.&D32.G:D:B16.&B64G:D:B16.&B64G4:D4:B.&B32.G:D:B16.&B64G:D:B16.&B64G4:E4:>C.&C32.<G:>C:<E16.&E64G:E:>C16.&C64<G4:B4:D.&D32.G:D:B16.&B64G:D:B16.&B64>C4:<A4:E.&E32.A:E:>C16.&C64<E:A:>C16.&C64<A4:E4:>C.&C32.<E:<A:>C16.&C64C:<A:>E16.&E64F4:A4:C.&C32.F:C:A16.&A64F:C:A16.&A64C4:A4:F.&F32.F:A:C16.&C64F:C:A16.&A64B4:G4:D.&D32.G:D:B16.&B64G:D:B16.&B64G4:B4:D.&D32.D:G:B16.&B64G:D:B16.&B64L4G:E:>C8.&C32.<G:>C:<E8.&E32.G#:E:L8B.&B32.G#:E:B16.&B64G#:B:E16.&E64A4:E4:>C.&C32.<A:E:>C16.&C64<A:E:>C16.&C64<E4:A4:>C.&C32.<A:E:>C16.&C64<A:E:>C16.&C64<A4:F4:C.&C32.F:C:A16.&A64F:C:A16.&A64F4:C4:A.&A32.F:A:C16.&C64F:C:A16.&A64G4:D4:B.&B32.G:B:D16.&D64D:G:B16.&B64G#4:E4:B.&B32.G#:E:B16.&B64G#:E:B16.&B64A4:>C4:<E.&E32.A:E:>C16.&C64<A:E:>C16.&C64<E4:C4:A.&A32.A:E:C16.&C64E:C:A16.&A64D4:F4:A.&A32.D:A:F16.&F64F:D:A16.&A64A4:D4:F.&F32.D:F:A16.&A64F:D:A16.&A64B4:D4:G.&G32.D:G:B16.&B64D:G:B16.&B64B4:G4:D.&D32.D:G:B16.&B64G:B:D16.&D64G4:E4:>C.&C32.<G:>C:<E16.&E64G:E:>C16.&C64<G4:>C4:<E.&E32.G:>C:<E16.&E64G:E:>C16.&C64C1:<G1:E2.&E.&E32.>E4:<A4:>C.&C32.C:E:<A16.&A64>C:<A:>E16.&E64<A4:>C4:E.&E32.C:<A:>E16.&E64<A:>C:E16.&E64E4:<B4:G.&G32.B:G:>E16.&E64<G:B:>E16.&E64<G4:B4:>E.&E32.<B:G:>E16.&E64<G:>E:<B16.&B64A4:>C4:<F#.&F#32.A:>C:<F#16.&F#64>C:<A:F#16.&F#64>C4:<A4:F#.&F#32.F#:A:>C16.&C64<F#:A:>C16.&C64<F#4:A4:>C.&C32.<F#:>C:R64<A16.&A64F#:A:R64L16>C.&C64:R.<F#.&F#64:>C8:R64<A&A64:RF#8&F#32:L64RA8:R>C16.&C:R16.L4<F#:>C:<A8.&A32.>E:<A:L8>C.&C32.C:E:<A16.&A64>C:<A:>E16.&E64<A4:>C4:E.&E32.C:<A:>E16.&E64<A:>C:E16.&E64E4:<B4:G.&G32.B:G:>E16.&E64<G:B:>E16.&E64<G4:B4:>E.&E32.<B:G:>E16.&E64<G:>E:<B16.&B64A4:>C4:<F#.&F#32.A:>C:<F#16.&F#64>C:<A:F#16.&F#64>C4:<A4:F#.&F#32.F#:A:>C16.&C64<F#:A:>C16.&C64<F#4:A4:>C.&C32.<F#:>C:R64<A16.&A64F#:A:R64L16>C.&C64:R.<F#.&F#64:>C8:R64<A&A64:RF#8&F#32:L64RA8:R>C16.&C:R16.L4<F#:>C:<A8.&A32.>E:<A:L8>C.&C32.C:E:<A16.&A64>C:<A:>E16.&E64<A4:>C4:E.&E32.C:<A:>E16.&E64<A:>C:E16.&E64E4:<B4:G.&G32.B:G:>E16.&E64<G:B:>E16.&E64<G4:B4:>E.&E32.<B:G:>E16.&E64<G:>E:<B16.&B64A4:>C4:<F#.&F#32.A:>C:<F#16.&F#64>C:<A:F#16.&F#64>C4:<A4:F#.&F#32.F#:A:>C16.&C64<F#:A:>C16.&C64<F#4:A4:>C.&C32.<F#:>C:R64<A16.&A64F#:A:R64L16>C.&C64:R.<F#.&F#64:>C8:R64<A&A64:RF#8&F#32:L64RA8:R>C16.&C:R16.L4<F#:>C:<A8.&A32.>E:<A:L8>C.&C32.C:E:<A16.&A64>C:<A:>E16.&E64<A4:>C4:E.&E32.C:<A:>E16.&E64<A:>C:E16.&E64E4:<B4:G.&G32.B:G:>E16.&E64<G:B:>E16.&E64<G4:B4:>E.&E32.<B:G:>E16.&E64<G:>E:<B16.&B64A4:>C4:<F#.&F#32.A:>C:<F#16.&F#64>C:<A:F#16.&F#64>C4:<A4:F#.&F#32.F#:A:>C16.&C64<F#:A:>C16.&C64<F#4:A4:>C.&C32.<F#:>C:R64<A16.&A64F#:A:R64L16>C.&C64:R.<F#.&F#64:>C8:R64<A&A64:RF#8&F#32:L64RA8:R>C16.&C:R16.L4<F#:>C:<A8.&A32.A:>C:L8<E.&E32.A:E:>C16.&C64<A:E:>C16.&C64<A4:>C4:<E.&E32.E:<A:>C16.&C64C:E:<A16.&A64>F4:A4:C.&C32.F:C:A16.&A64F:C:A16.&A64F4:C4:A.&A32.F:C:A16.&A64F:C:A16.&A64B4:G4:D.&D32.G:D:B16.&B64G:D:B16.&B64G4:D4:B.&B32.G:D:B16.&B64G:D:B16.&B64G4:E4:>C.&C32.<G:>C:<E16.&E64G:E:>C16.&C64<G4:B4:D.&D32.G:D:B16.&B64G:D:B16.&B64>C4:<A4:E.&E32.A:E:>C16.&C64<E:A:>C16.&C64<A4:E4:>C.&C32.<E:<A:>C16.&C64C:<A:>E16.&E64F4:A4:C.&C32.F:C:A16.&A64F:C:A16.&A64C4:A4:F.&F32.F:A:C16.&C64F:C:A16.&A64B4:G4:D.&D32.G:D:B16.&B64G:D:B16.&B64G4:B4:D.&D32.D:G:B16.&B64G:D:B16.&B64L4G:E:>C8.&C32.<G:>C:<E8.&E32.G#:E:L8B.&B32.G#:E:B16.&B64G#:B:E16.&E64A4:E4:>C.&C32.<A:E:>C16.&C64<A:E:>C16.&C64<E4:A4:>C.&C32.<A:E:>C16.&C64<A:E:>C16.&C64<A4:F4:C.&C32.F:C:A16.&A64F:C:A16.&A64F4:C4:A.&A32.F:A:C16.&C64F:C:A16.&A64G4:D4:B.&B32.G:B:D16.&D64D:G:B16.&B64G#4:E4:B.&B32.G#:E:B16.&B64G#:E:B16.&B64A4:>C4:<E.&E32.A:E:>C16.&C64<A:E:>C16.&C64<E4:C4:A.&A32.A:E:C16.&C64E:C:A16.&A64D4:F4:A.&A32.D:A:F16.&F64F:D:A16.&A64A4:D4:F.&F32.D:F:A16.&A64F:D:A16.&A64B4:D4:G.&G32.D:G:B16.&B64D:G:B16.&B64B4:G4:D.&D32.D:G:B16.&B64G:B:D16.&D64G4:E4:>C.&C32.<G:>C:<E16.&E64G:E:>C16.&C64<G4:>C4:<E.&E32.G:>C:<E16.&E64G:E:>C16.&C64C1:<G1:E2.&E.&E32.A4:>C4:<E.&E32.A:E:>C16.&C64<A:E:>C16.&C64<A4:>C4:<E.&E32.E:<A:>C16.&C64C:E:<A16.&A64>F4:A4:C.&C32.F:C:A16.&A64F:C:A16.&A64F4:C4:A.&A32.F:C:A16.&A64F:C:A16.&A64B4:G4:D.&D32.G:D:B16.&B64G:D:B16.&B64G4:D4:B.&B32.G:D:B16.&B64G:D:B16.&B64G4:E4:>C.&C32.<G:>C:<E16.&E64G:E:>C16.&C64<G4:B4:D.&D32.G:D:B16.&B64G:D:B16.&B64>C4:<A4:E.&E32.A:E:>C16.&C64<E:A:>C16.&C64<A4:E4:>C.&C32.<E:<A:>C16.&C64C:<A:>E16.&E64F4:A4:C.&C32.F:C:A16.&A64F:C:A16.&A64C4:A4:F.&F32.F:A:C16.&C64F:C:A16.&A64B4:G4:D.&D32.G:D:B16.&B64G:D:B16.&B64G4:B4:D.&D32.D:G:B16.&B64G:D:B16.&B64L4G:E:>C8.&C32.<G:>C:<E8.&E32.G#:E:L8B.&B32.G#:E:B16.&B64G#:B:E16.&E64A4:E4:>C.&C32.<A:E:>C16.&C64<A:E:>C16.&C64<E4:A4:>C.&C32.<A:E:>C16.&C64<A:E:>C16.&C64<A4:F4:C.&C32.F:C:A16.&A64F:C:A16.&A64F4:C4:A.&A32.F:A:C16.&C64F:C:A16.&A64G4:D4:B.&B32.G:D:B16.&B64G:D:B16.&B64G4:D4:B.&B32.G:D:B16.&B64G:D:B16.&B64G4:E4:>C.&C32.<G:E:>C16.&C64<G:E:>C16.&C64<G#4:B4:E.&E32.G#:E:B16.&B64G#:E:B16.&B64A4:E4:>C.&C32.<A:E:>C16.&C64<A:E:>C16.&C64<A4:E4:>C.&C32.<A:E:>C16.&C64<A:E:>C16.&C64<F4:A4:C.&C32.F:C:A16.&A64F:C:A16.&A64F4:C4:A.&A32.C:F:A16.&A64F:C:A16.&A64G4:B4:D.&D32.G:D:B16.&B64G:D:B16.&B64G4:B4:D.&D32.G:D:B16.&B64G:D:B16.&B64G4:D4:B.&B32.G:B:D16.&D64D:G:B16.&B64G#4:E4:B.&B32.G#:E:B16.&B64G#:E:B16.&B64A4:>C4:<E.&E32.A:E:>C16.&C64<A:E:>C16.&C64<A4:>C4:<E.&E32.E:<A:>C16.&C64C:E:<A16.&A64>F4:A4:C.&C32.F:C:A16.&A64F:C:A16.&A64F4:C4:A.&A32.F:C:A16.&A64F:C:A16.&A64B4:G4:D.&D32.G:D:B16.&B64G:D:B16.&B64G4:D4:B.&B32.G:D:B16.&B64G:D:B16.&B64G4:E4:>C.&C32.<G:>C:<E16.&E64G:E:>C16.&C64<G4:B4:D.&D32.G:D:B16.&B64G:D:B16.&B64>C4:<A4:E.&E32.A:E:>C16.&C64<E:A:>C16.&C64<A4:E4:>C.&C32.<E:<A:>C16.&C64C:<A:>E16.&E64F4:A4:C.&C32.F:C:A16.&A64F:C:A16.&A64C4:A4:F.&F32.F:A:C16.&C64F:C:A16.&A64B4:G4:D.&D32.G:D:B16.&B64G:D:B16.&B64G4:B4:D.&D32.D:G:B16.&B64G:D:B16.&B64L4G:E:>C8.&C32.<G:>C:<E8.&E32.G#:E:L8B.&B32.G#:E:B16.&B64G#:B:E16.&E64A4:E4:>C.&C32.<A:E:>C16.&C64<A:E:>C16.&C64<E4:A4:>C.&C32.<A:E:>C16.&C64<A:E:>C16.&C64<A4:F4:C.&C32.F:C:A16.&A64F:C:A16.&A64F4:C4:A.&A32.F:A:C16.&C64F:C:A16.&A64G4:D4:B.&B32.G:B:D16.&D64D:G:B16.&B64G#4:E4:B.&B32.G#:E:B16.&B64G#:E:B16.&B64A4:>C4:<E.&E32.A:E:>C16.&C64<A:E:>C16.&C64<E4:C4:A.&A32.A:E:C16.&C64E:C:A16.&A64D4:F4:A.&A32.D:A:F16.&F64F:D:A16.&A64A4:D4:F.&F32.D:F:A16.&A64F:D:A16.&A64B4:D4:G.&G32.D:G:B16.&B64D:G:B16.&B64B4:G4:D.&D32.D:G:B16.&B64G:B:D16.&D64G4:E4:>C.&C32.<G:>C:<E16.&E64G:E:>C16.&C64<G4:>C4:<E.&E32.G:>C:<E16.&E64G:E:>C16.&C64C1:<G1:E2.&E.&E32.A4:>C4:<E.&E32.A:E:>C16.&C64<A:E:>C16.&C64<A4:>C4:<E.&E32.E:<A:>C16.&C64C:E:<A16.&A64>F4:A4:C.&C32.F:C:A16.&A64F:C:A16.&A64F4:C4:A.&A32.F:C:A16.&A64F:C:A16.&A64B4:G4:D.&D32.G:D:B16.&B64G:D:B16.&B64G4:D4:B.&B32.G:D:B16.&B64G:D:B16.&B64G4:E4:>C.&C32.<G:>C:<E16.&E64G:E:>C16.&C64<G4:B4:D.&D32.G:D:B16.&B64G:D:B16.&B64>C4:<A4:E.&E32.A:E:>C16.&C64<E:A:>C16.&C64<A4:E4:>C.&C32.<E:<A:>C16.&C64C:<A:>E16.&E64F4:A4:C.&C32.F:C:A16.&A64F:C:A16.&A64C4:A4:F.&F32.F:A:C16.&C64F:C:A16.&A64B4:G4:D.&D32.G:D:B16.&B64G:D:B16.&B64G4:B4:D.&D32.D:G:B16.&B64G:D:B16.&B64L4G:E:>C8.&C32.<G:>C:<E8.&E32.G#:E:L8B.&B32.G#:E:B16.&B64G#:B:E16.&E64A4:E4:>C.&C32.<A:E:>C16.&C64<A:E:>C16.&C64<E4:A4:>C.&C32.<A:E:>C16.&C64<A:E:>C16.&C64<A4:F4:C.&C32.F:C:A16.&A64F:C:A16.&A64F4:C4:A.&A32.F:A:C16.&C64F:C:A16.&A64G4:D4:B.&B32.G:B:D16.&D64D:G:B16.&B64G#4:E4:B.&B32.G#:E:B16.&B64G#:E:B16.&B64A4:>C4:<E.&E32.A:E:>C16.&C64<A:E:>C16.&C64<E4:C4:A.&A32.A:E:C16.&C64E:C:A16.&A64D4:F4:A.&A32.D:A:F16.&F64F:D:A16.&A64A4:D4:F.&F32.D:F:A16.&A64F:D:A16.&A64B4:D4:G.&G32.D:G:B16.&B64D:G:B16.&B64B4:G4:D.&D32.D:G:B16.&B64G:B:D16.&D64G4:E4:>C.&C32.<G:>C:<E16.&E64G:E:>C16.&C64<G4:>C4:<E.&E32.G:>C:<E16.&E64G:E:>C16.&C64C1:<G1:E2.&E.&E32.A4:E4:>C.&C32.<E:>C:<A16.&A64A:E:>C16.&C64<A4:E4:>C.&C32.<A:E:>C16.&C64<A:E:>C16.&C64<F4:C4:A.&A32.F:A:C16.&C64F:C:A16.&A64F4:A4:C.&C32.F:A:C16.&C64F:C:A16.&A64G4:D4:B.&B32.G:D:B16.&B64G:D:B16.&B64G4:B4:D.&D32.G:D:B16.&B64G:D:B16.&B64G4:>C4:<E.&E32.G:E:>C16.&C64<G:E:>C16.&C64<G4:B4:D.&D32.G:B:D16.&D64G:D:B16.&B64A4:E4:>C.&C32.<A:E:>C16.&C64<A:E:>C16.&C64<A4:E4:>C.&C32.<A:E:>C16.&C64<A:E:>C16.&C64<F4:A4:C.&C32.F:A:C16.&C64F:C:A16.&A64F4:C4:A.&A32.F:C:A16.&A64F:C:A16.&A64A4:>C4:<F.&F32.A:>C:<F16.&F64A:F:>C16.&C64<A4:F4:>C.&C32.<A:F:>C16.&C64<A:F:>C16.&C64<G4:B4:D.&D32.G:D:B16.&B64G:D:B16.&B64G2:B2:D4.&D16.&D64
#NewTrack
L1RRRRRRRRL4RAE>C<EAFAFGDGB>C<GBGAE>C<EAFAF8A8>C<G>C<GB1<<A>CEC8<A8FA>C<F8A8GB>D<G8B8>C<GBGA>CEC8<A8FA>C<FGB>D<B8G8>C<GG#2A>CEC8<A8FA>C<FGB>D<B8G8>C<GG#BA>CEC8<A8FA>C<F8A8GB>D<GBG8>D8<G#2A>CEC8<A8FA>C<F8A8GB>D<G8B8>C<GBGA>CEC8<A8FA>C<FGB>D<B8G8>C<GG#2A>CEC8<A8FA>C<FGB>D<B8G8>C<GG#BA>CEC8<A8FA>C<F8A8GB>D<GBG8>D8<G#2A1:R>G>C<G8>C.:R8<<F1:R>G>C<G8>C8<<G1:>G2BG8B8C1:>C2.<G<A1:R>G>C<G8>C.:R8<<F1:R>G>C<G8>C.:R8<<G1:R>GL2BC:L4>C<G<G#2:>EG<A1:R>G>C<B8>C8<<F1:>FG>C<G8>C8<<G2:>>DC<<G#2:>B>C<<A2:>>C<G<E2:>EG<D1:>FA>C<A8>C8<<G1:>G2B>C<C1.:>C<GEG>C<F<G#2:>GF<A1:R>G>C<G8>C.:R8<<F1:R>G>C<G8>C8<<G1:>G2BG8B8C1:>C2.<G<A1:R>G>C<G8>C.:R8<<F1:R>G>C<G8>C.:R8<<G1:R>GL2BC:L4>C<G<G#2:>EG<A1:R>G>C<B8>C8<<F1:>FG>C<G8>C8<<G2:>>DC<<G#2:>B>C<<A2:>>C<G<E2:>EG<D1:>FA>C<A8>C8<<G1:>G2B>C<C1.&C.:>C<GEG>C1<E:C:L8R.R32.E:C:R16.R64E:C:R16.R64E4:C4:R.R32.E:C:R16.R64E:C:R16.R64E:<B:R16.R64>E:<B:R16.R64L4>E:<B:R8.R32.>E:<B:L8R.R32.B:>E:R16.R64E:<B:R16.R64>C4:<A4:R.R32.>C:<A:R16.R64>C:<A:R16.R64>C4:<A4:R.R32.>C:<A:R16.R64>C:<A:R16.R64>C:<A:R16.R64>C:<A:R16.R64L4A:>C:R8.R32.C:<A:L8R.R32.>C:<A:R16.R64A:>C:R16.R64C4:E4:R.R32.C:E:R16.R64C:E:R16.R64E4:C4:R.R32.C:E:R16.R64C:E:R16.R64E:<B:R16.R64>E:<B:R16.R64L4>E:<B:R8.R32.B:>E:L8R.R32.<B:>E:R16.R64E:<B:R16.R64>C4:<A4:R.R32.>C:<A:R16.R64>C:<A:R16.R64>C4:<A4:R.R32.>C:<A:R16.R64A:>C:R16.R64C:<A:R16.R64A:>C:R16.R64L4C:<A:R8.R32.>C:<A:L8R.R32.>C:<A:R16.R64A:>C:R16.R64E4:C4:R.R32.E:C:R16.R64E:C:R16.R64E4:C4:R.R32.E:C:R16.R64E:C:R16.R64E:<B:R16.R64>E:<B:R16.R64L4>E:<B:R8.R32.>E:<B:L8R.R32.B:>E:R16.R64E:<B:R16.R64>C4:<A4:R.R32.>C:<A:R16.R64>C:<A:R16.R64>C4:<A4:R.R32.>C:<A:R16.R64>C:<A:R16.R64>C:<A:R16.R64>C:<A:R16.R64L4A:>C:R8.R32.C:<A:L8R.R32.>C:<A:R16.R64A:>C:R16.R64C4:E4:R.R32.C:E:R16.R64C:E:R16.R64E4:C4:R.R32.C:E:R16.R64C:E:R16.R64E:<B:R16.R64>E:<B:R16.R64L4>E:<B:R8.R32.B:>E:L8R.R32.<B:>E:R16.R64E:<B:R16.R64>C4:<A4:R.R32.>C:<A:R16.R64>C:<A:R16.R64>C4:<A4:R.R32.>C:<A:R16.R64A:>C:R16.R64C:<A:R16.R64A:>C:R16.R64L4C:<A:R8.R32.>C:<A:L8R.R32.>C:<A:R16.R64A:>C:R16.R64<A1:L4R>G>C<G8>C.:R8<<F1:R>G>C<G8>C8<<G1:>G2BG8B8C1:>C2.<G<A1:R>G>C<G8>C.:R8<<F1:R>G>C<G8>C.:R8<<G1:R>GL2BC:L4>C<G<G#2:>EG<A1:R>G>C<B8>C8<<F1:>FG>C<G8>C8<<G2:>>DC<<G#2:>B>C<<A2:>>C<G<E2:>EG<D1:>FA>C<A8>C8<<G1:>G2B>C<C1&C1:>C<GEG>C1<A1:>EAEC<A1:>FAFA<G1:>DGDGC2:GE<B2:>GD<A1:>GCGC<F1:>C<A>C<A>D<G>D<GL2G:L4>ECE2:<B2<A>CEC8<A8FA>C<FGB>D<B8G8>C<GG#BA>CEC8<A8FA>C<F8A8GB>D<GBG8>D8<G#2A1:R>G>C<G8>C.:R8<<F1:R>G>C<G8>C8<<G1:>G2BG8B8C1:>C2.<G<A1:R>G>C<G8>C.:R8<<F1:R>G>C<G8>C.:R8<<G1:R>GL2BC:L4>C<G<G#2:>EG<A1:R>G>C<B8>C8<<F1:>FG>C<G8>C8<<G2:>>DC<<G#2:>B>C<<A2:>>C<G<E2:>EG<D1:>FA>C<A8>C8<<G1:>G2B>C<C1&C1:>C<GEG>C1<<A1:R>G>C<G8>C.:R8<<F1:R>G>C<G8>C8<<G1:>G2BG8B8C1:>C2.<G<A1:R>G>C<G8>C.:R8<<F1:R>G>C<G8>C.:R8<<G1:R>GL2BC:L4>C<G<G#2:>EG<A1:R>G>C<B8>C8<<F1:>FG>C<G8>C8<<G2:>>DC<<G#2:>B>C<<A2:>>C<G<E2:>EG<D1:>FA>C<A8>C8<<G1:>G2B>C<C1&C1:>C<GEG>C1<<A:>E:R8.R32.E:<A:R8.R32.>E:<A:L8R.R32.>E:<A:R16.R64A:>E:R16.R64L4C:F:R8.R32.C:F:R8.R32.F:C:L8R.R32.C:F:R16.R64C:F:R16.R64L4D:<G:R8.R32.>D:<G:R8.R32.G:>D:L8R.R32.D:<G:R16.R64>D:<G:R16.R64L4G:>C:R8.R32.C:<G:R8.R32.B:G:R8.R32.G:B:R8.R32.>E:<A:R8.R32.>E:<A:R8.R32.>E:<A:L8R.R32.A:>E:R16.R64<A:>E:R16.R64L4C:F:R8.R32.C:F:R8.R32.F:C:L8R.R32.C:F:R16.R64C:F:R16.R64L4C:F:R8.R32.C:F:R8.R32.C:F:L8R.R32.F:C:R16.R64F:C:R16.R64L4G.:D.:RR16.R64G8:D8:R16.R64D:G:R8.R32.D:G:R8.R32.A:E:L8>D.&D32.<A:>D:<E16.&E64A:E:>D16.&D64<E4:A4:>D.&D32.<A:>D:<E16.&E64L4A:E:>D8.&D32.D:<E:L8A.&A32.A:E:>D16.&D64<E:A:>D16.&D64<A:>D:<E16.&E64A:E:>D16.&D64<E:A:>D16.&D64L1<A&A:E&E:>C.&C4.&C16.&C64
#NewTrack
L1RRRRRRRRR4<A&A:>C<FG&G:B>C2<B2A&A:>C<FG&G:>C<BRRRRRRRRRRRRRRRE4<B8>C8<G#2A2.L4EF1G1>CD<B2A2.EF1G1L2>C<BA.L4EF1G1>CD<B2A2.EF1>DEDFEF<B>C<A2.>EL1FG>C2<B2AFGL4CEFEA1F1DEFC<A2>E2D1G1RGEG>C<FGF<A2.>EL1FG>C2<B2AFGL4CEFEA1F1DEFC<A2>E2D1G1RGEG>C<FGFL1RRRRRRR.R4R16R64L32C.:RC#.:RD.:RD#.:RL8>E:<E1:>CE:CE:CE:CE:CE:CE:CE:CE:<D1:>CE:CE:CE:CE:CE:CE:CE:CE:<<F#1:>>CE:CE:CE:CE:CE:CE:CE:C<A:<A>B:<B>>C:<C>D:<D>E:<E>G:<F>D4:<D4>E:<E1:>CE:CE:CE:CE:CE:CE:CE:CE:<D1:>CE:CE:CE:CE:CE:CE:CE:CE:<<F#1:>>CE:CE:CE:CE:CE:CE:CE:C<A:<A>B:<B>>C:<C>D:<D>E:<E>G:<FL4>D:<D<A2.>EL1FG>C2<B2AFGL4CEFEA1F1DEFC<A2>E2D1G1RGEG>C<FGFL1RRRRRRRR<A2.L4EF1G1>CD<B2A2.EF1>DEDFEF<B>C<A2.>EL1FG>C2<B2AFGL4CEFEA1F1DEFC<A2>E2D1G1RGEG>C<FGF<A2.>EL1FG>C2<B2AFGL4CEFEA1F1DEFC<A2>E2D1G1RGEG>C<FGF
#NewTrack
L1RRRRRRRRRRRRRRRRRRRRRRRRRRRRRRRRR4C&C:<A&A>D:<BL4>E:CF:DD2:<B2L1>C&C:<A&AL4>D<B.>C8DE.:C.F8:D8D2:<B2L1>C&C:<A&A>D:<BL4>E:CF:DD2:<B2L1>C&C:<A&AL4>DEDFDEL8DFEC<A2.>E4L1FDEC2.E4FDE2L4FEC2.EF1G>EFDL1CCDC&C4L4<FGF<A2.>EL1FDEC2.E4FDE2L4FEC2.EF1G>EFDL1CCDC&C4L4<FGFL1RRRRRRR.L4>A:<A>B:<B>>C:<C>D:<DB:<B>>C:<CB:<B>A:<A>E:<E>D:<D>A1.:<A1.>B2:<B2>>C:<C>D:<DB:<B>>C:<CB:<B>A:<A>E:<EL8>D:<D>E:<E>A1.:<A1.L2>B:<B<A.>E4L1FDEC2.E4FDE2L4FEC2.EF1G>EFDE2DC8<G8FG>CE:<E>G:<G>>C:<CL2>D:<D>E:<EL4>F:<F>D:<D>E2:<E2L16>E:<E>D:<D>C:<CB:<B>A:<A>G:<G>F:<F>E:<EL1RRRRRRRRC&C:<A&A>D:<BL4>E:CF:DD2:<B2L1>C&C:<A&AL4>DEDFDEL8DFEC<A2.>E4L1FDEC2.E4FDE2L4FEC2.EF1G>EFDE2DC8<G8FG>CE:<E>G:<G>>C:<CL2>D:<D>E:<EL4>F:<F>D:<D>E2:<E2L16>E:<E>D:<D>C:<CB:<B>A:<A>G:<G>F:<F>E:<E<A2.>E4L1FDEC2.E4FDE2L4FEC2.EF1BGB2>C2&C8L8<BGEL4FG>CE:<E>G:<G>>C:<CL2>D:<D>E:<EL4>F:<F>D:<D>E2:<E2L16>E:<E>D:<D>C:<CB:<B>A:<A>G:<G>F:<F>E:<E
#NewTrack
L1RRRRRRRRRRRRRRRRRRRRRRRRRRRRRRRRRRRRRRRR.R4<E4L8ARA2R2.DRD4FRF4E2&ER>C4<BRL4BA8R8ABAL8>CRL4C.<B2.&B8>G:<G>>C:<CL16>C:<CR>C2&C8:<C2&C8R4L8>C:<CRL4>C:<CB:<B>A:<A>G:<G>B:<B>>C:<C>D:<D>C2:<C2G:<G>>C:<CL16>C:<CR>C2&C8:<C2&C8R4L8>C:<CRL4>C:<CB:<B>A:<A>G:<G>>D:<D>E:<E>F.:<F.>E.:<E.G:<G>>C:<CL16>C:<CR>C2&C8:<C2&C8R4L8>C:<CRL4>C:<CB:<B>A:<A>G:<G>>D:<D>C:<CB:<BL16>>C:<CR>C2&C8:<C2&C8R4L8>C:<CRL4>C:<C>E:<E>D:<DL8>C:<CRL4>C:<CB:<B>>D.:<D.L16>C:<CR>C1&C4:<C1&C4L4G:<G>>C:<CL16>C:<CR>C2&C8:<C2&C8R4L8>C:<CRL4>C:<CB:<B>A:<A>G:<G>B:<B>>C:<C>D:<DL16>C:<CRL4>C.:<C.G:<G>>C:<CL16>C:<CR>C2&C8:<C2&C8R4L8>C:<CRL4>C:<CB:<B>A:<A>G:<G>>D:<D>E:<E>F:<FL16>E:<ERL4>E.:<E.G:<G>>C:<CL16>C:<CR>C2&C8:<C2&C8R4L8>C:<CRL4>C:<CB:<B>A:<A>G:<G>>D:<D>C:<C>D:<D>F8:<F8>E:<E>C2:<C2L8R>C:<CRL4>C:<C>E:<E>D:<DL8>C:<CRL4>C:<CB:<B>>D.:<D.L16>C:<CRL1>C:<CRRRRRRRRRRRRRRRRL4RG:<G>>C:<CL16>C:<CR>C2&C8:<C2&C8R4L8>C:<CRL4>C:<CB:<B>A:<A>G:<G>B:<B>>C:<C>D:<DL16>C:<CRL4>C.:<C.G:<G>>C:<CL16>C:<CR>C2&C8:<C2&C8R4L8>C:<CRL4>C:<CB:<B>A:<A>G:<G>>D:<D>E:<E>F:<FL16>E:<ERL4>E.:<E.G:<G>>C:<CL16>C:<CR>C2&C8:<C2&C8R4L8>C:<CRL4>C:<CB:<B>A:<A>G:<G>>D:<D>C:<C>D:<D>F8:<F8>E:<E>C2:<C2L8R>C:<CRL4>C:<C>E:<E>D:<DL8>C:<CRL4>C:<CB:<B>>D.:<D.L16>C:<CRL1>C:<CRRRRRRRRR.<E4L8ARA2R2.DRD4FRF4E2&ER>C4<BRL4BA8R8ABAL8>CRL4C.<B2.&B8>G:<G>>C:<CL16>C:<CR>C2&C8:<C2&C8R4L8>C:<CRL4>C:<CB:<B>A:<A>G:<G>B:<B>>C:<C>D:<DL16>C:<CRL4>C.:<C.G:<G>>C:<CL16>C:<CR>C2&C8:<C2&C8R4L8>C:<CRL4>C:<CB:<B>A:<A>G:<G>>D:<D>E:<E>F:<FL16>E:<ERL4>E.:<E.G:<G>>C:<CL16>C:<CR>C2&C8:<C2&C8R4L8>C:<CRL4>C:<CB:<B>A:<A>G:<G>>D:<D>C:<CB:<BL16>>C:<CR>C2.:<C2.L8R>C:<CRL4>C:<C>E:<E>D:<DL8>C:<CRL4>C:<CB:<B>>D.:<D.L16>C:<CR>C1:<C1L2RB:<B>>C.:<C.L8>C:<CRL4>C:<CB:<B>A:<A>G:<G>B:<B>>C:<C>D.:<D.L16>C:<CRL8>C:<CRL4G:<G>>C:<CL8B:<B>>C2&C:<C2&CR4>C:<CRL4>C:<C>E:<E>D:<D>C:<C>D:<D>E:<E>F:<FL16>E:<ERL4>E.:<E.G:<G>>C:<CL16>C:<CR>C2&C8:<C2&C8R4L8>C:<CRL4>C:<CB:<B>A:<A>G:<G>>D:<D>C:<CB:<BL16>>C:<CR>C2.:<C2.L8R>C:<CRL4>C:<C>E:<E>D:<DL8>C:<CRL4>C:<CB:<B>>D.:<D.L16>C:<CR>C1:<C1
#NewTrack
RL8D:A:>D:<<ARL16>C:G:>C:<<ER>D:A:>D:<<GR8.>E:>C:E:<<AR8.>E:A:<ARER>C:G:>C:<<GRAR>D:A:>D:<<ERGRA:>E:A:<ER>C:G:>C:<<GR>D:A:>D:<<ARL8>D:A:>D:<<ARL16>C:G:>C:<<GR>D:A:>D:<<AR8.>E:>C:E:<<ERGR>E:A:<ARER>C:G:>C:<<ARER>C:G:>C:<<GR>D:A:>D:<<AR>C:G:>C:<<GR>D:A:>D:<<ARERL8>D:A:>D:<<ARL16>C:G:>C:<<GR>D:A:>D:<<ARER>E:>C:E:<<GRARA:>E:A:<ERARA:>E:A:<GRAR>C:G:>C:<<ER>D:A:>D:<<ARL32>C.:G.:>C.:<<G.R16L8A&A64:>D&D64:A&A64:>D&D64:RL16<<A:ERL8>D:A:>D:<<ARL16>C:G:>C:<<GR>D:A:>D:<<ARER>E:>C:E:<<GRARA:>E:A:<ERARA:>E:A:<ERGR>C:G:>C:<<AR>D:A:>D:<<ARL32>C.:G.:>C.:<<G.R16L8A&A64:>D&D64:A&A64:>D&D64:R<<E16L1RRRRRRRRRRRRRRRRRRRRRRRRRRRRRRRRRRRRRRRRRRRRRRRRRRRRRRRRRRRRRRRRRRRRRRRRR16L8>>ER<AR>E16.RR64D4&D64:R4ER<AR>ERDRER<AR>ARDRER<AR>ARDRER<AR>ERDRER<AR>ERDRER<AR>ARDRER<AR>ERDL1RRRRRRRRRRRRRRRRRRRRRRRRRRRRRRRRRRRRRRRRRRRRRRRRRRRRRRRRRRRRRRRRRRRRRRRRRRRRRRRRR8L4<DC8DE<A>CL8CDEDCC1&C1
#NewTrack
L1RRRRRRR.R4L8<<EEL4C:R8E8C:>C#<A#A#:EC:A#C:A#A#A#:EA#8E8C:A#A#A#:EL8A#EL4C:A#8E8C:A#A#:EA#C:>C#<A#A#:EC:A#C:A#A#A#:EA#C:>A<C:A#A#:EC:L8A#EC4:A#EC4:A#EA#:EBAFL4C:>C#<F#F#:EC:F#8F#8C:F#F#F#:EC:F#8F#8C:F#F#F#:EC:F#8F#8C:F#C:F#F#:EA#8E8C:F#F#F#:EC:F#8F#8C:F#F#F#:EC:F#8F#8C:F#F#F#:EL8F#F#:EC4:F#EC:F#C:F#L4F#:EA#:EC:>C#<F#F#:EC:F#C:F#F#L8F#:EF#L4C:F#C:F#F#F#:EC:L8F#F#C4:F#4F#F#F#:EF#L4C:A#8E8C:>C#<F#F#:EC:L8F#F#L4C:F#8F#8F#F#:EC:F#8F#8C:F#F#F#:EL8F#F#:EC4:F#F#:EC:F#C:F#E4:A#4:RCA#:EEL4C:>C#<F#F#:EC:F#8F#8C:F#F#F#:EC:F#8F#8C:F#F#F#:EC:F#8F#8C:F#C:F#F#:EC:A#C:F#F#F#:EC:F#8F#8C:F#F#F#:EC:F#8F#8C:F#F#F#:EC:F#8F#8C:F#C:L8F#F#L4F#:EA#8E8C:>C#<F#F#:EC:F#C:F#F#L8F#:EF#L4C:F#C:F#F#F#:EC:L8F#F#C4:F#4F#F#F#:EF#L4C:A#8E8C:>C#<F#F#:EC:L8F#F#L4C:F#8F#8F#F#:EC:F#8F#8C:>A<C:A#A#:EC:A#C:L8A#EC4:A#4A#:EEEEL4C:>C#<A#A#:EC:A#C:A#A#A#:EC:A#C:A#A#A#:EC:A#C:A#C:A#A#:EA#8E8C:>C#<A#A#:EC:A#C:A#A#A#:EC:A#C:A#A#A#:EL8A#EC4:A#EL4A#:C8C8A#:EA#:EC:>C#<A#A#:EC:A#C:A#A#A#:EC:A#C:A#A#A#:EC:A#C:A#A#A#:EC:A#8E8C:>C#<A#A#:EC:A#C:A#A#A#:EC:A#C:A#A#A#:EL8A#EC4:A#EL4A#:L8CCE4:A#4:RCA#:EEL4C:>C#<A#A#:EC:A#C:A#A#A#:EC:A#C:A#A#A#:EC:A#C:A#C:A#A#:EA#8E8C:>C#<A#A#:EC:A#C:A#A#A#:EC:A#C:A#A#A#:EL8A#EC4:A#EL4A#:C8C8A#:EA#:EC:>C#<A#A#:EC:A#C:A#A#A#:EC:A#C:A#A#A#:EC:A#C:A#A#A#:EC:A#8E8C:>C#<A#A#:EC:A#C:A#A#A#:EC:A#C:>C#<A#A#:EL8A#EC4:A#EA#:AEEAF4L1RRRRRRRRL4C:>C#<A#A#:EC:A#C:A#A#A#:EC:A#C:A#A#A#:EC:A#C:A#C:A#A#:EA#8E8C:>C#<A#A#:EC:A#C:A#A#A#:EC:A#>A:<C:EL8C:EC:EC:EC:EC:EC:EE:C:FE:C:FE:C:FE:C:FE:C:FE:C:FE:C:FE:C:FL4C:>C#<A#A#:EC:A#C:A#A#A#:EC:A#C:A#A#A#:EC:A#C:A#C:A#A#:EA#8E8C:>C#<A#A#:EC:A#C:A#A#A#:EC:A#C:A#A#A#:EL8A#EC4:A#EL4A#:L8CCA#4:E4A#:EEL4C:>C#<A#A#:EC:A#C:A#A#A#:EC:A#C:A#A#A#:EC:A#C:A#A#A#:EC:A#8E8C:>C#<A#A#:EC:A#C:A#A#A#:EC:A#C:>C#<A#A#:EL8A#EL4C:L8A#EC4:A#4EEEEL1RRRRRRR.L4RE8E8C:>C#<F#F#:EC:F#C:F#F#L8F#:EF#L4C:F#C:F#F#F#:EC:L8F#F#C4:F#4F#F#F#:EF#L4C:A#8E8C:>C#<F#F#:EC:L8F#F#L4C:F#8F#8F#F#:EC:F#8F#8C:>A<C:A#A#:EC:A#L8A#:C:EC:EE:C:FE:C:FE:C:FE:C:FE:C:FE:C:FL4C:>C#<A#A#:EC:A#C:A#A#A#:EC:A#C:A#A#A#:EC:A#C:L8A#EL4A#:L8CCA#4:E4A#:EEL4C:>C#<A#A#:EC:A#C:A#A#A#:EC:A#C:A#A#A#:EL8A#EC4:A#EL4A#:L8CCA#4:E4A#:EEL4C:>C#<A#A#:EC:A#C:A#A#A#:EC:A#C:A#A#A#:EC:A#C:A#A#L8A#:EEL4C:A#8E8C:>C#<A#A#:EC:A#C:A#A#A#:EC:A#C:>C#<A#A#:EL8A#EL4C:L8A#EC4:A#4EEEEL4C:>C#<A#A#:EC:A#C:A#A#A#:EC:A#C:A#A#A#:EC:A#C:A#C:A#A#:EA#8E8C:>C#<A#A#:EC:A#C:A#A#A#:EC:A#C:A#A#A#:EL8A#EC4:A#EL4A#:L8CCA#4:E4A#:EEL4C:>C#<A#A#:EC:A#C:A#A#A#:EC:A#C:A#A#A#:EC:A#C:A#A#A#:EC:A#8E8C:>C#<A#A#:EC:A#C:A#A#A#:EC:A#C:>C#<A#A#:EL8A#EL4C:L8A#EC4:A#4EEEE
#NewTrack
L1RRRRRRR.R4L16DRERGRARL4>CRCR8E8DCR<A8:L16RR64>C.:RR64<A.:RR64L4GR8A8>CDERL16<DRERGRA8L4>CRCR8E8DCR<A8>C8L1D.RRRRRRRRRRRRRRRRRRRRRRRRRRRRRRRRRRRRRRRRRRRRRRRRRRRRRRRRRRRRRRRRRRRRRRRRRRRRRRRRRRRRRRRRRRRRRRRRRRRRRRRRRRRRRRRRRRRRRRRRRRRRRRRRRRRRRRRRRRRRRRRRL8<DEGA>C2C4.ED4C2<A:L16RR64>C.:RR64<A.:RR64L4G.A8>CDE2L8<DEGA>C2C4.ED4C2<A>CD1.&D4
#NewTrack
L1RRRRRRR.R4L8>DEGA>C2C4.ED4C2<A:L16RR64>C.:RR64<A.:RR64L4G.A8>CDE2L8<DEGA>C2C4.ED4C2<A>CL1D.&D4RRRRRRRRRRRRRRRRRRRRRRRRRRRRRRRRRRRRRRRRRRRRRRRRRRRRRRRRRRRRRRRRRRRRRRRRRRRRRRRRRRRRRRRRRRRRRRRRRRRRRRRRRRRRRRRRRRRRRRRRRRRRRRRRRRRRRRRRRRRRRRR.R4L8<DEGA>C2C4.ED4C2<A:L16RR64>C.:RR64<A.:RR64L4G.A8>CDE2L8<DEGA>C2C4.ED4C2<A>CD1.&D4
#NewTrack
L1RRRRRRRRRRRRRRR8.R32.L64ER4.R16.RER4.R16.RER4.R16.RER8.R32.ER8.R32.ER4.R16.RER8.R32.ER16.RER2.R16.RER8.R32.ER8.R32.ER8.R32.ER8.R32.ER16.RER8.R32.ER2R16.RER8.R32.ER4.R16.RER8.R32.ER16.RER2.R16.RER8.R32.ER8.R32.ER8.R32.ER8.R32.ER16.RER8.R32.ER2R16.RER8.R32.ER4.R16.RER8.R32.ER16.RER2.R16.RER8.R32.ER8.R32.ER8.R32.ER8.R32.ER16.RER8.R32.ER4R16.RER8.R32.ER8.R32.ER8.R32.ER16.RER4R16.RER16.RER8.R32.ER4R16.RER8.R32.ER16.RER8.R32.ER1R4R16.RER8.R32.ER8.R32.ER4.R16.RER8.R32.ER8.R32.ER4.R16.RER8.R32.ER8.R32.ER4.R16.RER8.R32.ER16.RER8.R32.ER2R16.RER8.R32.ER8.R32.ER8.R32.ER8.R32.ER16.RER4R16.RER8.R32.ER8.R32.ER16.RER4R16.RER8.R32.ER8.R32.ER8.R32.ER4.R16.RER8.R32.ER8.R32.ER4.R16.RER8.R32.ER8.R32.ER8.R32.ER8.R32.ER8.R32.ER8.R32.ER8.R32.ER8.R32.ER8.R32.ER8.R32.ER8.R32.ER8.R32.ER8.R32.ER8.R32.ER8.R32.ER8.R32.ER8.R32.ER8.R32.ER8.R32.ER8.R32.ER8.R32.ER8.R32.ER4.R16.RER2R8.R32.ER8.R32.ER8.R32.ER16.RER2.R16.RER8.R32.ER8.R32.ER8.R32.ER8.R32.ER8.R32.ER8.R32.ER8.R32.ER8.R32.ER4.R16.RER8.R32.ER8.R32.ER16.RER2.R16.RER8.R32.ER8.R32.ER8.R32.ER8.R32.ER8.R32.ER8.R32.ER8.R32.ER4R16.RER4R16.RER8.R32.ER8.R32.ER16.RER2.R16.RER8.R32.ER8.R32.ER8.R32.ER8.R32.ER8.R32.ER8.R32.ER8.R32.ER8.R32.ER16.RER2.R16.RER8.R32.ER8.R32.ER8.R32.ER8.R32.ER8.R32.ER8.R32.ER8.R32.ER4R16.RER16.RER1R8.R32.ER8.R32.ER8.R32.ER16.RER2.R16.RER8.R32.ER8.R32.ER8.R32.ER8.R32.ER8.R32.ER8.R32.ER8.R32.ER4R16.RER4R16.RER8.R32.ER8.R32.ER16.RER2.R16.RER8.R32.ER8.R32.ER8.R32.ER8.R32.ER8.R32.ER8.R32.ER8.R32.ER8.R32.ER16.RER4R16.RER8.R32.ER8.R32.ER16.RER2.R16.RER8.R32.ER8.R32.ER8.R32.ER8.R32.ER8.R32.ER8.R32.ER8.R32.ER8.R32.ER16.RER8.R32.ER2R16.RER8.R32.ER8.R32.ER8.R32.ER8.R32.ER8.R32.ER8.R32.ER8.R32.ER4R16.RER16.RER1.R4.R16.RER2R32ER4.R16E8R4R32.ER4.RER4.RE8R4REL1RRRRRRRRRRRR4R16L64RER4.R16.RER4.R16.RER8.R32.ER8.R32.ER8.R32.ER16.RER2.R16.RER8.R32.ER8.R32.ER8.R32.ER8.R32.ER8.R32.ER8.R32.ER8.R32.ER4R16.RER4R16.RER8.R32.ER8.R32.ER16.RER2.R16.RER8.R32.ER8.R32.ER8.R32.ER8.R32.ER8.R32.ER8.R32.ER8.R32.ER4R16.RER4R16.RER8.R32.ER8.R32.ER16.RER2.R16.RER8.R32.ER8.R32.ER8.R32.ER8.R32.ER8.R32.ER8.R32.ER8.R32.ER8.R32.ER16.RER2.R16.RER8.R32.ER8.R32.ER8.R32.ER8.R32.ER8.R32.ER8.R32.ER8.R32.ER4R16.RER16.RER1R4.R16.RER8.R32.ER8.R32.ER4.R16.RER8.R32.ER8.R32.ER4.R16.RER8.R32.ER8.R32.ER4.R16.RER8.R32.ER16.RER4R16.RER4.R16.RER8.R32.ER8.R32.ER8.R32.ER8.R32.ER16.RER8.R32.ER4R16.RER8.R32.ER16.RER4R16.RER4.R16.RER8.R32.ER4.R16.RER8.R32.ER8.R32.ER4.R16.RER8.R32.ER8.R32.ER8.R32.ER8.R32.ER8.R32.ER8.R32.ER8.R32.ER8.R32.ER8.R32.ER8.R32.ER8.R32.ER8.R32.ER8.R32.ER8.R32.ER8.R32.ER8.R32.ER8.R32.ER8.R32.ER8.R32.ER8.R32.ER8.R32.ER8.R32.ER4R16.RER2.R16.RER8.R32.ER8.R32.ER16.RER2.R16.RER8.R32.ER8.R32.ER8.R32.ER8.R32.ER8.R32.ER8.R32.ER8.R32.ER4R16.RER4R16.RER8.R32.ER8.R32.ER16.RER2.R16.RER8.R32.ER8.R32.ER8.R32.ER8.R32.ER8.R32.ER8.R32.ER8.R32.ER4R16.RER4R16.RER8.R32.ER8.R32.ER16.RER2.R16.RER8.R32.ER8.R32.ER8.R32.ER8.R32.ER8.R32.ER8.R32.ER8.R32.ER8.R32.ER16.RER2.R16.RER8.R32.ER8.R32.ER8.R32.ER8.R32.ER8.R32.ER8.R32.ER8.R32.ER4R16.RER16.RER1R4.R16.RER8.R32.ER8.R32.ER4.R16.RER8.R32.ER8.R32.ER8.R32.ER8.R32.ER8.R32.ER8.R32.ER8.R32.ER8.R32.ER4.R32.ER4R32.ER8.R32.ER8.R32.ER16.RER2.R16.RER8.R32.ER8.R32.ER8.R32.ER8.R32.ER8.R32.ER8.R32.ER8.R32.ER8.R32.ER16.RER4R16.RER8.R32.ER8.R32.ER16.RER2.R16.RER8.R32.ER8.R32.ER8.R32.ER8.R32.ER8.R32.ER8.R32.ER8.R32.ER8.R32.ER16.RER8.R32.ER2R16.RER8.R32.ER8.R32.ER8.R32.ER8.R32.ER8.R32.ER8.R32.ER8.R32.ER4R16.RER16.REL1RRRRRRRRR4R32.E16R16E32R8.R32.E64R8.R32.E64R4R16R64E16.R8.L32R.ER4RER4R64E64R4.E.