#Title 为你写诗
#trackName Dance Piano (8)
G.&G16 G.&G32. >D.&D16 D.&D32. E.&E32. E.&E16 D2.&D16.&D64 C.&C32. C.&C16 <B.&B32. B2&B8&B64 A.&A16 A.&A32. G1&G.&G16.R2.R8 G8.&G32:B8.&B32:<<G1&G32:>D1&D32:G1&G32:>D8.&D32 G8.&G64 G8.&G32:B8.&B32:D8.&D32 G8.&G32 G8.&G64:B8.&B64:D8.&D64 <<G8.&G32:>>G8.&G32 G8.&G32:B8.&B32:<G8.&G32:>D8.&D32 <<G8.&G32:>>G8.&G32 G8.&G64:>C8.&C64:<<C2&C16.&C64:G2&G16.&G64:>C2&C16.&C64:D8.&D64 G8.&G32 G8.&G32:>C8.&C32:<D8.&D32 <G.&G64:>C.&C64:G8.&G64 G.&G64:>D8.&D32 <<C8.&C32:>>D8.&D32 <G.&G64:<G8.&G32:>C8.&C32:>E8.&E32 <<C8.&C64:>>E8.&E64 D8.&D32:O2D1&D32.:A1&A32.:>D1&D32.:>A8.&A32 A8.&A32 >D8.&D64:<A8.&A64 A8.&A32 >F#8.&F#32:<A8.&A32 >F#8.&F#32:O2D8.&D32:O5D8.&D32 F#8.&F#64:<<D8.&D64:>A8.&A64 >F#8.&F#32:O2D8.&D32:O5D8.&D32 G8.&G32:<<C1&C32.:G1&G32.:>C1&C32.:>D8.&D32 G8.&G64:<B8.&B64 >G8.&G32:D8.&D32 G8.&G32:<B8.&B32 >D8.&D32:G8.&G32:<B8.&B32 >G8.&G64:<<C8.&C64:>B8.&B64 >D8.&D32:G8.&G32:<C8.&C32:B8.&B32 >D8.&D32:<<C8.&C32:>D8.&D32 G2.&G16&G64:>D2.&D16&D64:G2.&G16&G64:<<G8.&G32:<G8.&G32 >D8.&D64 >D8.&D32:<G8.&G32 D8.&D32 >>D2.&D16&D64:G2.&G16&G64:>D2.&D16&D64:<<D8.&D64:<G8.&G64 D8.&D32 >D8.&D32:<G8.&G32 D8.&D32 >>C2.&C16&C64:G2.&G16&G64:>C2.&C16&C64:<<C8.&C64:<G8.&G64 C8.&C32 >C8.&C32:<G8.&G32 C8.&C64 >C8.&C32:>E2.&E16&E64:G2.&G16&G64:>E2.&E16&E64:O3G8.&G32 C8.&C32 >C8.&C32:<G8.&G32 C8.&C64 >D8.&D32:>D2.&D16&D64:A2.&A16&A64:>D2.&D16&D64:O3F#8.&F#32 D8.&D32 >D8.&D64:<F#8.&F#64 D8.&D32 >D8.&D32:>F#2.&F#16&F#64:>F#2.&F#16&F#64:O3A8.&A32 D8.&D32 >D8.&D64:<A8.&A64 D8.&D32 >D8.&D32:>G.&G64:>C.&C64:G.&G64:O3G8.&G32 C8.&C64 >D8.&D32:>C8.&C32:G8.&G32:<<G8.&G32 >G8.&G32:<C8.&C32 >>C8.&C32:G8.&G32:<<C8.&C32 >G8.&G64:<C8.&C64 >C8.&C32:>C8.&C32:G8.&G32:<<G8.&G32 >G8.&G32:<C8.&C32 G8.&G64:D8.&D64 >B8.&B32:<<B8.&B32 >G8.&G32:>B16&B64:<D8.&D32 <B8.:R16.R64 >>B16&B64R64 <D8.:F#8.:>B16. A16&A64R64 A8.&A32:<<A8.&A32 >F#8.&F#32:>A&A32:<D8.&D32 <A8&A32.:R16.R64 >>D16. C8.&C32:>D8.&D32:<<G8.&G32 >>C8.&C32:<<C8.&C32 >>C8.&C32:<<G8.&G32 >D.&D64:B8.&B32 B8.&B64 A8.&A32:<D8.&D32 >G8.&G64:D8.&D64 D8.&D32:<F#8.&F#32 <G8.&G32 >>B8.&B32:<<B8.&B32 >G8.&G32:>B16&B64:<D8.&D32 <B8.:R16. >>B16&B64R64 <D8.:F#8.:>B16&B64R64 A16&A64R64 A8.&A32:<<A8.&A32 >F#8.&F#64:>A&A32.:<D8.&D64 <A8.:R16.R64 O5D16&D64R64 <C8.&C32:>D8.&D32:<<G8.&G32 >>C8.&C32:<<C8.&C32 >>C8.&C64:<<G8.&G64 >D.&D64:B8.&B32 B8.&B32 A8.&A64:<D8.&D64 >D8.:G16&G64R64 A&A32:R16.R64 <F#8.&F#32 <B8.&B32 >>B8.&B64:<D#8.&D#64 >F#8.&F#32:B8.&B32:<B8.&B32 D#.&D#64:>B8.&B32 B8.&B64 >E8.&E32:<<D#8.&D#32 >>G8.&G32:<<B8.&B32 >B.&B64:>F#.&F#64:O2B8.&B32 E8.&E64 O5D8.&D32:O2B8.&B32 >G8.&G32:>>F#8.&F#32:<<E8.&E32 D.&D32.:>B2.&B16&B64:>G2.&G16&G64:O2D.&D32. A8.&A32 >F#8.&F#32:D8.&D32 >>G8.&G64:O2A8.&A64 >>B8.&B32:>G8.&G32:O2C8.&C32 O5D8.&D32:<<C8.&C32 G8.&G64:>G8.&G64:>D8.&D64:<<E8.&E64 C.&C64:>B8.&B32 B8.&B32:G8.&G32 G8.&G32:<C8.&C32 G8.&G64:>G8.&G64:<E8.&E64 >G1&G32:>D1&D32:O2G8.&G32 D8.&D32 A8.&A64 >A8.&A32:F#8.&F#32 D.&D16 <A8.:R16. O5D16&D64R64 <<A8.&A32:>G8.&G32:>D8.&D32:<<F#8.&F#32 >G8.&G32:<D8.&D32 >G&G32:>E&E32:O2C8.&C64 >C8.:R16.R64 >>E16&E64R64 <C8.&C32:>D8.&D32:<<G8.&G32 >B8.&B32:<C8.&C32 >D&D32:A&A32:<<D8.&D64 A8.:R16.R64 >>A16&A64R64 <A8.&A32:>B8.&B32:<D8.&D32 >>C8.&C64:O2A8.&A64 >>F#8.&F#32:>D8.&D32:O1B8.&B32 O4B8.&B32:<<B8.&B32 >B8.&B32:>B8.&B32:<F#8.&F#32 >A8.&A32:<<B8.&B32 >>E&E32:G#&G#32:<<E8.&E64 G#8.:R16.R64 >>G#16&G#64R64 <E8.&E64:>A8.&A64:<<B8.&B64 >>B8.&B32:<<B8.&B32 >>G8.&G32:>C8.&C32:<<C8.&C32 >B8.&B32:<E8.&E32 G8.:>C8.:G16&G64R64 E8.:R16.R64 <C8.:R16. >D&D32.:G&G32.:R16.R64 <D8.&D32 >G8.&G32:<F#8.&F#32:>D8.&D32 A8.&A64:<A8.&A64:>D8.&D64:E8.&E64 B8.&B32:<D8.&D32:>E8.&E32 >C8.&C32:O2C8.&C32:>C8.&C32:>E8.&E32 B8.&B32:<E8.&E32:>E8.&E32 <G8.:>C8.:G16. G&G32.:>E&E32.:R16.R64 <<C8.&C32 >>D8.&D32:<<D8.&D32:>A8.&A32 <F#8.:R16.R64 >>D16. D8.&D32:<<A8.&A32:>D8.&D32:G8.&G32 <D8.&D32:>G8.&G32 G.&G64:>E&E32:O2C8.&C32 >C8.:R16. >>E16&E64R64 D8.&D32:<<G8.&G32:>C8.&C32:G8.&G32 B8.&B32:<C8.&C32:>E8.&E32 D.&D64:A&A32.:<<D8.&D64 A8.:R16.R64 >>A16&A64R64 B8.&B32:<D8.&D32:A8.&A32:>E8.&E32 >C8.&C32:O2A8.&A32:>>F#8.&F#32 >D8.&D64:O1B8.&B64:O4F#8.&F#64 <<B8.:O5D16&D64R64 D8.:R16.R64 <<F#8&F#32.:B8&B32.:R16.R64 >B&B32:>F#&F#32:R16.R64 O2B8.&B64 >>B.&B64:>E.&E64:O2E8.&E32 G#8.&G#32 O5E16&E64:O2B8.:>E8.:>B16&B64R64 >D8.:R16.R64 O2E8.:R16. >>B16&B64R64 G.&G64:>C.&C64:<<C8.&C32 C8.&C32 >>C8.&C64:<<G8.&G64:>C8.&C64:E8.&E64 <C8.&C32:>G8.&G32 G8.&G32:<D8.&D32:>D8.&D32 <D8.&D32:>D8.&D32 A.&A64:<A8.&A32:>D8.&D32 <D8.&D64 >E2.&E16&E64:B2.&B16&B64:<<E8.&E32 E8.&E64 >E8.&E32:<B8.&B32 E8.&E32 E8.&E32 G#8.&G#32 O5E16.:O2B8.:>E8.:>B16. >D8.:R16.R64 O2G#8&G#32.:R16.R64 >>B16&B64R64 E.&E64:>C.&C64:<<C8.&C32 C8.&C64 G8.&G32:>C8.&C32:>C8.&C32 <<C8.:>B16&B64R64 B16&B64R64 G8.&G32:<D8.&D32:>D8.&D32 <D8.&D64:>D8.&D64 A.&A64:D8.&D32:<A8.&A32 D8.&D32 >G2.&G16&G64:<<G8.&G64 B8.&B32 >G8.&G32:D8.&D32 <G.&G32. B8.&B32 >>D.&D64:>D.&D64:<<G8.&G32:D8.&D32 <G8.&G64 >>G2.&G16&G64:>D2.&D16&D64:G2.&G16&G64:<<G8.&G32:<G8.&G32 >D8.&D32 >D8.&D32:<G8.&G32 D8.&D64 >>D2.&D16&D64:G2.&G16&G64:>D2.&D16&D64:<<D8.&D32:<G8.&G32 D8.&D32 >D8.&D64:<G8.&G64 D8.&D32 >>C2.&C16&C64:G2.&G16&G64:>C2.&C16&C64:<<C8.&C32:<G8.&G32 C8.&C32 >C8.&C64:<G8.&G64 C8.&C32 >>E2.&E16&E64:G2.&G16&G64:>E2.&E16&E64:<<C8.&C32:<G8.&G32 C8.&C64 >C8.&C32:<G8.&G32 C8.&C32 >>D2.&D16&D64:A2.&A16&A64:>D2.&D16&D64:<<D8.&D32:<F#8.&F#32 D8.&D32 >D8.&D64:<F#8.&F#64 D8.&D32 >>F#2.&F#16&F#64:>F#2.&F#16&F#64:<<D8.&D64:<A8.&A64 D8.&D32 >D8.&D32:<A8.&A32 D8.&D32 >>G.&G64:>C.&C64:G.&G64:<<D8.&D32:<G8.&G32 C8.&C64 >>G8.&G32:<<G8.&G32:>D8.&D32:>C8.&C32 <<C8.&C32:>G8.&G32 >G8.&G64:<<C8.&C64:>>C8.&C64 <<C8.&C32:>G8.&G32 >G8.&G32:<<G8.&G32:>C8.&C32:>C8.&C32 <<C8.&C32:>G8.&G32 <G8.&G64:D8.&D64 <B8.&B32:>>B8.&B32 B16&B64:<G8.&G32:D8.&D32 <B8.:R16.R64 >>B16. <D8.:F#8.:>B16&B64R64 A16&A64R64 <<A8.&A32:>>A8.&A32 A&A32:<F#8.&F#32:D8.&D32 <A8&A32.:R16. >>D16&D64R64 <G8.&G32:>C8.&C32:>D8.&D32 <<C8.&C32:>>C8.&C32 <<G8.&G64:>>C8.&C64 <D.&D64:B8.&B32 B8.&B32 <D8.&D32:>A8.&A32 D8.&D64:G8.&G64 <F#8.&F#32:>D8.&D32 <<G8.&G32 B8.&B64:>>B8.&B64 B16&B64:<G8.&G32:D8.&D32 <B8.:R16.R64 >>B16&B64R64 <D8.:F#8.:>B16&B64R64 A16&A64R64 <<A8.&A64:>>A8.&A64 A&A32.:<F#8.&F#32:D8.&D32 <A8.:R16.R64 O5D16&D64R64 <<G8.&G64:>C8.&C64:>D8.&D64 <<C8.&C32:>>C8.&C32 <<G8.&G32:>>C8.&C32 <D.&D64:B8.&B32 B8.&B64 <D8.&D32:>A8.&A32 D8.:G16&G64R64 A&A32:R16.R64 <F#8.&F#64 <B8.&B32 >D#8.&D#32:>B8.&B32 B8.&B32:<B8.&B32:>F#8.&F#32 <D#.&D#64:>B8.&B64 B8.&B32 <D#8.&D#32:>>E8.&E32 <<B8.&B32:>>G8.&G32 <B.&B64:>F#.&F#64:O2B8.&B64 E8.&E32 B8.&B32:O5D8.&D32 <<E8.&E64:G8.&G64:>>F#8.&F#64 <B2.&B16&B64:>G2.&G16&G64:<<D.&D16:<D.&D16 A8.&A32 >F#8.&F#64:D8.&D64 <A8.&A32:O5G8.&G32 G8.&G32:O2C8.&C32:>>B8.&B32 <C8.&C64:>>D8.&D64 D8.&D32:<<E8.&E32:G8.&G32:>G8.&G32 <C.&C64:>B8.&B32 B8.&B32:G8.&G32 <C8.&C64:>G8.&G64 <E8.&E32:G8.&G32:>G8.&G32 G1&G32:>D1&D32:O2G8.&G32 D8.&D64 A8.&A32 >A8.&A32:F#8.&F#32 D.&D32. <A8.:R16.R64 O5D16&D64R64 D8.&D32:<<F#8.&F#32:A8.&A32:>G8.&G32 <D8.&D64:>G8.&G64 G&G32.:>E&E32.:O2C8.&C32 >C8.:R16.R64 >>E16&E64R64 <<G8.&G32:>C8.&C32:>D8.&D32 <<C8.&C64:>B8.&B64 D&D32:A&A32:<<D8.&D32 A8.:R16.R64 >>A16&A64R64 <D8.&D64:A8.&A64:>B8.&B64 <<A8.&A32:O5C8.&C32 D8.&D32:O1B8.&B32:O4F#8.&F#32 <<B8.&B32:>>B8.&B32 <F#8.&F#64:B8.&B64:>B8.&B64 <<B8.&B32:>>A8.&A32 E&E32:G#&G#32:<<E8.&E32 G#8&G#32.:R16.R64 >>G#16. <<B8.&B32:>E8.&E32:>A8.&A32 <<B8.&B32:>>B8.&B32 >C8.&C32:<<C8.&C32:>G8.&G32 <E8.&E32:>B8.&B32 <G8.:>C8.:G16. E8.:R16.R64 <C8.:R16.R64 >D&D32:G&G32:R16.R64 <D8.&D32 >G8.&G64:<F#8.&F#64:>D8.&D64 A8.&A32:<A8.&A32:>D8.&D32:E8.&E32 B8.&B32:<D8.&D32:>E8.&E32 >C8.&C32:O2C8.&C32:>C8.&C32:>E8.&E32 B8.&B64:<E8.&E64:>E8.&E64 <G8.:>C8.:G16&G64R64 G&G32:>E&E32:R16.R64 <<C8.&C32 >>D8.&D64:<<D8.&D64:>A8.&A64 <F#8.:R16.R64 >>D16&D64R64 D8.&D32:<<A8.&A32:>D8.&D32:G8.&G32 <D8.&D32:>G8.&G32 G.&G64:>E&E32:O2C8.&C64 >C8.:R16.R64 >>E16&E64R64 D8.&D32:<<G8.&G32:>C8.&C32:G8.&G32 B8.&B64:<C8.&C64:>E8.&E64 D.&D64:A&A32:<<D8.&D32 A8.:R16.R64 >>A16&A64R64 B8.&B32:<D8.&D32:A8.&A32:>E8.&E32 >C8.&C64:O2A8.&A64:>>F#8.&F#64 >D8.&D32:O1B8.&B32:O4F#8.&F#32 <<B8&B32.:O5D16&D64R64 D8.:R16.R64 <<F#8.:B8.:R16.R64 >B&B32:>F#&F#32:R16. O2B8.&B32 >>B.&B64:>E.&E64:O2E8.&E32 G#8.&G#32 O5E16.:O2B8.:>E8.:>B16. >D8.:R8 O2E8.:R16. >>B16&B64R64 G.&G64:>C.&C64:<<C8.&C32 C8.&C32 >>C8.&C64:<<G8.&G64:>C8.&C64:E8.&E64 <C8.&C32:>G8.&G32 G8.&G32:<D8.&D32:>D8.&D32 <D8.&D32:>D8.&D32 A.&A64:<A8.&A64:>D8.&D64 <D8.&D32 >E2.&E16&E64:B2.&B16&B64:<<E8.&E32 E8.&E64 >E8.&E32:<B8.&B32 E8.&E32 E8.&E32 G#8.&G#64 O5E16&E64:O2B8&B32.:>E8&E32.:>B16&B64R64 >D8.:R16.R64 O2G#8.:R16.R64 >>B16&B64R64 E.&E64:>C.&C64:<<C8.&C64 C8.&C32 G8.&G32:>C8.&C32:>C8.&C32 <<C8.:>B16&B64R64 B16&B64R64 G8.&G64:<D8.&D64:>D8.&D64 <D8.&D32:>D8.&D32 A.&A64:D8.&D32:<A8.&A32 D8.&D64 <G8.&G32:>>G8.&G32 <D8.&D32:>D8.&D32 G.&G64:<<B8.&B32 >D8.&D64 >>D.&D64:O2G8.&G32 >D8.&D32 >>D.&D64:O2B8.&B64 >D8.&D32 >>E.&E64:O2G8.&G32 >E8.&E32 >>E.&E64:<<C8.&C64 E8.&E32 >>D2.&D16&D64:O2G8.&G32 >D8.&D64 <B8.&B32 >D8.&D32 >>C.&C64:O2G8.&G32 >E8.&E64 >>C.&C64:<<C8.&C32 E8.&E32 >B.&B64:<<G8.&G32 >D8.&D64 >B.&B64:<<B8.&B32 >D8.&D32 >A.&A64:<<F#8.&F#64 >D8.&D32 >A.&A64:<<A8.&A32 >D8.&D32 >G2&G16.&G64:<D8.&D64:<G8.&G64 >D8.&D32:<G8.&G32 >D8.&D32:<G8.&G32 O5E16&E64:O2G8&G32.:>D8&D32.:>E16&E64R64 >F#16.:<F#16. >G8.&G64:<<C8.&C64:G8.&G64:>G8.&G64 <C8&C32.:G8&G32.:>>F#16R32 G16R64 A8.&A64:<<D8.&D64:A8.&A64:>A8.&A64 <D8&D32.:A8&A32.:>>G16R64 A16R32 B8.:<<C8.:G8.:>B8. <C8&C32.:G8&G32.:>>A16R32 B16R64 >C8.&C64:O3D8.&D64:A8.&A64:>>C8.&C64 <<D8&D32.:A8&A32.:>>B16R64 >C16R32 O3C8&C32:G8&G32:O6E16R64 D16R64 O3C8&C32:G8&G32:O6C16R64 E16R64 O3C8&C32:G8&G32:O6E16R64 D16R64 O3C8&C64:G8&G64:O6C16R64 E32.R32 O3D8&D32:A8&A32:O6F#16R64 E16R64 O3D8&D32:A8&A32:O6D16R64 F#16R64 O3D8&D32:A8&A32:O6F#16R64 E16R64 O3D8&D32:A8&A32:O6D16R64 F#16R64 D8.:G8.:O3C8.:G8.:>>G8. >D8.&D64:O3C8.&C64:G8.&G64:>>D8.&D64 G8.&G64:>C8.&C64:O3C8.&C64:G8.&G64:>>C8.&C64 B8.&B64:<<C8.&C64:G8.&G64:>B8.&B64 >>D8.&D64:G8.&G64:O3C8.&C64:G8.&G64:>>G8.&G64 >D8.:O3C8.:G8.:>>D8. G8.&G64:>C8.&C64:O3C8.&C64:G8.&G64:>>C8.&C64 B8.&B64:<<C8.&C64:G8.&G64:>B8.&B64 >E8.&E64:O2E8.&E64:>E8.&E64:>E8.&E64 >D8.&D64:O2D8.&D64:>D8.&D64:>D8.&D64 >C8.:O2C8.:>C8.:>C8. B8.&B64:O1B8.&B64:>B8.&B64:>B8.&B64 <D.&D32:>D.&D32:>D.&D32 <<A.&A64:>D.&D64:<D.&D64 E8.&E32 E8.&E32 >E8.&E32:<B8.&B32 E8.&E64 E8.&E32 O5E8.&E32:O2E8.&E32 >E8.&E64:>A8.&A64:>E8.&E64:O2B8.&B64 >>A8.&A32:<<E8.&E32 >>A&A32.:>F#&F#32.:O2D8.&D32 >D8.:R16.R64 >>F#16&F#64R64 <D8.&D64:>E8.&E64:<<A8.&A64 >>C#8.&C#32:<<D8.&D32 >E&E32:B&B32:<<E8.&E32 B8&B32.:R16.R64 >>B16. <B8.&B32:>>C#8.&C#32:<<E8.&E32 >>D8.&D32:O2B8.&B32 >>G#8.&G#32:>E8.&E32:O2C#8.&C#32 O5C#8.&C#32:<<C#8.&C#32 >C#8.&C#64:>C#8.&C#64:<<G#8.&G#64 >B8.&B32:<C#8.&C#32 >F#&F#32:A#&A#32:<<F#8.&F#32 A#8.:R16.R64 >>A#16. <F#8.&F#32:>B8.&B32:<C#8.&C#32 >>C#8.&C#32:<<C#8.&C#32 >A8.&A32:>D8.&D32:<<D8.&D32 >>C#8.&C#64:<<F#8.&F#64 A8.:>D8.:A16&A64R64 F#8.:R16.R64 <D8&D32.:R16.R64 >E&E32:A&A32:R16.R64 <E8.&E64 >A8.&A32:<G#8.&G#32:>E8.&E32 B8.&B32:<B8.&B32:>E8.&E32:F#8.&F#32 >C#8.&C#32:<<E8.&E32:>F#8.&F#32 >D8.&D64:O2D8.&D64:>D8.&D64:>F#8.&F#64 >C#8.&C#32:<<F#8.&F#32:>F#8.&F#32 <A8&A32.:>D8&D32.:A16&A64R64 A&A32:>F#&F#32:R16.R64 <<D8.&D64 >>E8.&E32:<<E8.&E32:>B8.&B32 <G#8.:R16.R64 >>E16&E64R64 <E8.&E32:A8.&A32:>E8.&E32:<<B8.&B32 >A8.&A64:<E8.&E64 >A.&A64:>F#&F#32:O2D8.&D32 >D8&D32.:R16.R64 >>F#16&F#64R64 E8.&E64:<<A8.&A64:>D8.&D64:A8.&A64 >C#8.&C#32:<<D8.&D32:>F#8.&F#32 E.&E64:B&B32:<<E8.&E32 B8.:R16.R64 >>B16&B64R64 >C#8.&C#32:<<E8.&E32:B8.&B32:>F#8.&F#32 >D8.&D64:O2B8.&B64:>>G#8.&G#64 >E8.&E32:O2C#8.&C#32:>>G#8.&G#32 <C#8.:>>E16&E64R64 E8.:R16.R64 <<G#8.:>C#8.:R16.R64 >C#&C#32:G#&G#32:R16. <<C#8.&C#32 >>C#.&C#64:F#.&F#64:O2F#8.&F#32 A#8.&A#32 >C#8.:F#8.:>>F#16.:C#16. E8.:R16.R64 O2F#8&F#32.:R16.R64 O5C#16&C#64R64 <A.&A64:>D.&D64:<<D8.&D32 D8.&D64 >D8.&D32:F#8.&F#32:>D8.&D32:<<A8.&A32 >A8.&A32:<D8.&D32 >E8.&E32:A8.&A32:<E8.&E32 >E8.&E64:<E8.&E64 >E8.&E32:B.&B64:<B8.&B32 E8.&E32 >F#2.&F#16&F#64:>C#2.&C#16&C#64:O2F#8.&F#64 F#8.&F#32 >F#8.&F#32:C#8.&C#32 <F#8.&F#32 F#8.&F#64 A#8.&A#32 >C#8.:F#8.:>>F#16&F#64:C#16&C#64R64 E8.:R16.R64 O2A#8.:R16.R64 O5C#16. <F#.&F#64:>D.&D64:<<D8.&D32 D8.&D32 >D8.&D32:>D8.&D32:<<A8.&A32 D8.:>>C#16. C#16&C#64R64 <E8.&E32:A8.&A32:<E8.&E32 >E8.&E32:<E8.&E32 >E8.&E64:B.&B64:<B8.&B64 E8.&E32 >E1.&E8.:A1.&A8.:<<A8.&A32 A8.&A32 >A8.&A32:E8.&E32 <A.&A32. A8.&A64 >A8.&A32:E8.&E32 <A8.&A32 <A.&A64:>A.&A64:R8.R32 O5E8.&E32:<A8.&A32 <E&E32:A&A32:>>E8.&E64:<A8.&A64 A8.:>E8.:R16.R64 O2A16&A64R64 >>A8.&A32:>E8.&E32:O2A8.&A32 O5D8.&D64:O2A8.&A64 >A8.&A32:>E8.&E32:>C#8.&C#32:<<E8.&E32 >>D8.&D32:O2A8.&A32 >>A8.&A32:>D8.&D32:O2D8.&D32 >>F#8.&F#64:>C#8.&C#64:O2D8.&D64 >D8.&D32:>F#8.&F#32:>C#8.&C#32:O2A8.&A32 D.&D64:O5C#8.&C#32:<F#8.&F#32 A8.&A64:D8.&D64 E8.&E32:<<D8.&D32 >D8.&D32:>F#8.&F#32:B8.&B32:<<A8.&A32 >>A.&A64:<<D8.&D32 <A.&A64:>A.&A64:R8.R64 O5E8.&E32:<A8.&A32 <E&E32.:A&A32.:>>E8.&E32:<A8.&A32 A8.:>E8.:R16.R64 O2A16. >>A8.&A32:>E8.&E32:O2A8.&A32 O5D8.&D32:O2A8.&A32 >A8.&A32:>A8.&A32:>C#8.&C#32:<<E8.&E32 >>D8.&D64:O2A8.&A64 >>F#8.&F#32:>D8.&D32:O2D8.&D32 >>F#8.&F#32:>C#8.&C#32:O2D8.&D32 >D8.&D64:>F#8.&F#64:>C#8.&C#64:O2A8.&A64 D.&D64:O5C#8.&C#32:<F#8.&F#32 >C#8.&C#32:<F#8.&F#32 A8.&A32:>E8.&E32:O2D8.&D32 >D8.&D64:>D8.&D64:B8.&B64:<<A8.&A64 >>A8.&A32:<<D8.&D32 <A.&A64:>A.&A64:R8.R32 O5E8.&E64:<A8.&A64 <E&E32:A&A32:>>E8.&E32:<A8.&A32 A8.:>E8.:R16.R64 O2A16&A64R64 >>A8.&A32:>E8.&E32:O2A8.&A32 O5D8.&D64:O2A8.&A64 >A8.&A32:>E8.&E32:>C#8.&C#32:<<E8.&E32 >>D8.&D32:O2A8.&A32 >>F#8.&F#64:>D8.&D64:O2D8.&D64 >>F#8.&F#32:>C#8.&C#32:O2D8.&D32 >D8.&D32:>F#8.&F#32:>C#8.&C#32:O2A8.&A32 D.&D64:O5C#8.&C#32:<F#8.&F#32 >C#8.&C#64:<F#8.&F#64 A8.&A32:>E8.&E32:O2D8.&D32 >D8.&D32:>B8.&B32:<<A8.&A32 >>D.&D64:A.&A64:<<D8.&D64 <A.&A64:>A.&A64:R8.R32 O5E8.&E32:<A8.&A32 <E&E32:A&A32:>>E8.&E32:<A8.&A32 A8&A32.:>E8&E32.:R16.R64 O2A16. >>A8.&A32:>E8.&E32:O2A8.&A32 O5D8.&D32:O2A8.&A32 >A8.&A32:>E8.&E32:>C#8.&C#32:<<E8.&E32 >>D8.&D64:O2A8.&A64 >>F#8.&F#32:>D8.&D32:O2D8.&D32 O5C#8.&C#32:O2D8.&D32 >D8.&D64:>F#8.&F#64:>C#8.&C#64:O2A8.&A64 D.&D64:O5C#8.&C#32 <A8.&A32:D8.&D32 E8.&E32:<<D8.&D32 >D8.&D64:>F#.&F#64:B.&B64:<<A8.&A64 D8.&D32 >>A8.&A32:<<A8.&A32 >>E8.&E64:<<A8.&A64 >A8.&A32:>A.&A64:<E8.&E32 <A8.&A32 O5E.&E64:O2A8.&A32 A8.&A64 >A8.&A32:>>E.&E64:<<E8.&E32 <A8.&A32 O5F#.&F#64:O2D8.&D64 D8.&D32 >D8.&D32:>>F#.&F#64:O2A8.&A32 D8.&D32 O5E2.&E16&E64:O2A8.&A64 A8.&A32 >A8.&A32:E8.&E32 <A8.&A64 O5D.&D64:<<D8.&D32 D8.&D32 >D8.&D32:>D.&D64:<<A8.&A32 D8.&D64 >>C#.&C#64:O2A8.&A32 A8.&A32 >A8.&A64:>>C#.&C#64:<<E8.&E64 <A8.&A32 >>B.&B64:<<E8.&E32 E8.&E32 >E8.&E64:>B.&B64:<<B8.&B64 E8.&E32 >>A2.&A16&A64:<<A8.&A32 >E8.&E64 A8.&A32 C#8.&C#32 >>B.&B64:<<B8.&B32 E8.&E32 >>B.&B64:<<B8.&B64 E8.&E32 >>A2.&A16.&A64:<<A2.&A16.&A64 >>B.&B64:<<B8.&B32 E8.&E64 >>B.&B64:<<B8.&B32 E8.&E32 >>A2&A8&A64:<<A2&A8&A64 