#Title 千本樱（原版最终修正版）

#trackName Ç§±¾Ó£
#NewTrack
#trackName Percussion
#instrumentName Microsoft GS Wavetable Synth
R1L8<<E.:A.:<B.:>D#.:F#.E.:G.:<B.:>D#.:F#.E:F&F32.:<B:>D#:F#E.:A.:<B.:>D#.:F#.E.:G.:<B.:>D#.:F#.E:F&F32.:<B:>D#:F#E.:A.:<B.:>D#.:F#.E.:G.:<B.:>D#.:F#.E:F&F32.:<B:>D#:F#E.:A.:<B.:>D#.:A#.E.:G.:<B.:>D#.:F#.E:F&F32.:<B:>D#:>A<E.:A.:<B.:>D#.:>C#.<E.:G.:<B.:>D#.:F#.E:F&F32.:<B:>D#:F#E.:A.:<B.:>D#.:F#.E.:G.:<B.:>D#.:F#.E:F&F32.:<B:>D#:F#L4>C:<E:<B:>D#:>A<E:A:<B:>D#:>C#<E:G:<B:>D#:>A<E:F:<B:>D#:>C#L8<F#:>G:<<B>A#E:D#:F#>>A16A16<<F#:<B>A#E:D#:F#>>A16A16<<F#:<B>A#E:D#:F#>>A16A16<<F#:<B>A#E:D#:F#>>A16A16<<F#:<B>A#E:D#:F#>>A16A16<<F#:<B>A#E:D#:F#>>A16A16<<F#:<B>A#E:D#:F#>>A16A16<<F#:<B>A#E:D#:F#>>A16A16<<F#:>G:<<B>A#E:D#:F#>>A16A16<<F#:<B>A#E:D#:F#>>A16A16<<F#:<B>A#E:D#:F#>>A16A16<<F#:<B>A#E:D#:F#>>A16A16<<F#:<B>A#E:D#:F#>>A16A16<<F#:<B>A#E:D#:F#>>A16A16<<F#:>G:<<B>A#E:D#:F#>>A16A16<<F#:<B>A#E:D#:F#>>A16A16<<F#:>G:<<B>A#E:D#:F#>>A16A16<<F#:<B>A#E:D#:F#>>A16A16<<F#:<B>A#E:D#:F#>>A16A16<<F#:<B>A#E:D#:F#>>A16A16<<F#:<B>A#E:D#:F#>>A16A16<<F#:<B>A#E:D#:F#>>A16A16<<F#:<B>A#E:D#:F#>>A16A16<<F#:<B>A#E:D#:F#>>A16A16<<F#:>G:<<B>A#E:D#:F#>>A16A16<<F#:<B>A#E:D#:F#>>A16A16<<F#:<B>A#E:D#:F#>>A16A16<<F#:<B>A#E:D#:F#>>A16A16<<F#:<B>A#E:D#:F#>>A16A16<<F#:<B>A#E:D#:F#>>A16A16<<F#:>A:<<B>A#F#:E:D#:>C#>A16A16<<F#:<B>A#E:D#:F#>>A16A16<<F#:>G:<<B>A#E:D#:F#>>A16A16<<F#:<B>A#E:D#:F#>>A16A16<<F#:<B>A#E:D#:F#>>A16A16<<F#:<B>A#E:D#:F#>>A16A16<<F#:<B>A#E:D#:F#>>A16A16<<F#:<B>A#E:D#:F#>>A16A16<<F#:<B>A#E:D#:F#>>A16A16O1B:>A#F#E:D#:A#>>A16A16<<F#:>G:<<B>A#E:D#:F#>>A16A16<<F#:<B>A#E:D#:F#>>A16A16<<F#:<B>A#E:D#:F#>>A16A16<<F#:<B>A#E:D#:F#>>A16A16<<F#:<B>A#E:D#:F#>>A16A16<<F#:<B>A#E:D#:F#>>A16A16<<F#:<B>A#E:D#:F#>>A16A16<<F#:<B>A#E:D#:F#>>A16A16L4<<F#:>G:<<B>E:F#:D#F#:<B>E:D#:F#F#:<B>E:F#:D#F#:<B>E:D#:F#F#:<B>E:F#:D#F#:<B>E:D#:F#F#:<B>F#:E:D#:>A<F#:>C#:<<B>E:A#:D#F#:>G:<<B>E:F#:D#F#:<B>E:D#:F#F#:<B>E:F#:D#F#:<B>E:D#:F#L8F#:<B>E:>C:<A#:>A:<D#A:<B:>F#A#.&A#32.:E.&E32.:G.&G32.:D#.&D#32.:>C#.&C#32.R4R64<F:F#:<B>>C:<F#:<B>A:F#:>A:<<B>G:F#:<B>F:E:A#:>C#:<D#R2F#:>G:<<B>A#E:D#:F#>>A16A16<<F#:<B>A#E:D#:F#>>A16A16<<F#:<B>A#E:D#:F#>>A16A16<<F#:<B>A#E:D#:F#>>A16A16<<F#:<B>A#E:D#:F#>>A16A16<<F#:<B>A#E:D#:F#>>A16A16<<F#:<B>A#E:D#:F#>>A16A16<<F#:<B>A#E:D#:F#>>A16A16<<F#:>G:<<B>A#E:D#:F#>>A16A16<<F#:<B>A#E:D#:F#>>A16A16<<F#:<B>A#E:D#:F#>>A16A16<<F#:<B>A#E:D#:F#>>A16A16<<F#:<B>A#E:D#:F#>>A16A16<<F#:<B>A#E:D#:F#>>A16A16<<F#:>G:<<B>A#E:D#:F#>>A16A16<<F#:<B>A#E:D#:F#>>A16A16<<F#:>G:<<B>A#E:D#:F#>>A16A16<<F#:<B>A#E:D#:F#>>A16A16<<F#:<B>A#E:D#:F#>>A16A16<<F#:<B>A#E:D#:F#>>A16A16<<F#:<B>A#E:D#:F#>>A16A16<<F#:<B>A#E:D#:F#>>A16A16<<F#:<B>A#E:D#:F#>>A16A16<<F#:<B>A#E:D#:F#>>A16A16<<F#:>G:<<B>A#E:D#:F#>>A16A16<<F#:<B>A#E:D#:F#>>A16A16<<F#:<B>A#E:D#:F#>>A16A16<<F#:<B>A#E:D#:F#>>A16A16<<F#:<B>A#E:D#:F#>>A16A16<<F#:<B>A#E:D#:F#>>A16A16<<F#:>A:<<B>A#F#:E:D#:>C#>A16A16<<F#:<B>A#E:D#:F#>>A16A16<<F#:>G:<<B>A#E:D#:F#>>A16A16<<F#:<B>A#E:D#:F#>>A16A16<<F#:<B>A#E:D#:F#>>A16A16<<F#:<B>A#E:D#:F#>>A16A16<<F#:<B>A#E:D#:F#>>A16A16<<F#:<B>A#E:D#:F#>>A16A16<<F#:<B>A#E:D#:F#>>A16A16<<F#:<B>A#E:D#:F#>>A16A16<<F#:>G:<<B>A#E:D#:F#>>A16A16<<F#:<B>A#E:D#:F#>>A16A16<<F#:<B>A#E:D#:F#>>A16A16<<F#:<B>A#E:D#:F#>>A16A16<<F#:<B>A#E:D#:F#>>A16A16<<F#:<B>A#E:D#:F#>>A16A16<<F#:>G:<<B>A#E:D#:F#>>A16A16<<F#:<B>A#E:D#:F#>>A16A16<<F#:>G:<<B>A#E:D#:F#>>A16A16<<F#:<B>A#E:D#:F#>>A16A16<<F#:<B>A#E:D#:F#>>A16A16<<F#:<B>A#E:D#:F#>>A16A16<<F#:<B>A#E:D#:F#>>A16A16<<F#:<B>A#E:D#:F#>>A16A16<<F#:<B>A#E:D#:F#>>A16A16<<F#:<B>A#E:D#:F#>>A16A16<<F#:>G:<<B>A#E:D#:F#>>A16A16<<F#:<B>A#E:D#:F#>>A16A16<<F#:<B>A#E:D#:F#>>A16A16<<F#:<B>A#E:D#:F#>>A16A16<<F#:<B>A#E:D#:F#>>A16A16<<F#:<B>A#E:D#:F#>>A16A16<<F#:>A:<<B>A#F#:E:D#:>C#>A16A16<<F#:<B>A#E:D#:F#>>A16A16L4<<F#:>G:<<B>E:F#:D#F#:<B>E:D#:F#F#:<B>E:F#:D#F#:<B>E:D#:F#F#:<B>E:F#:D#F#:<B>E:D#:F#F#:<B>F#:E:D#:>A<F#:>C#:<<B>E:A#:D#F#:>G:<<B>E:F#:D#F#:<B>E:D#:F#F#:<B>E:F#:D#F#:<B>E:D#:F#L8F#:<B>E:>C:<A#:>A:<D#A:<B:>F#A#.&A#32.:E.&E32.:G.&G32.:D#.&D#32.:>C#.&C#32.R4R64<F:F#:<B>>C:<F#:<B>A:F#:>A:<<B>G:F#:<B>F:E:A#:>C#:<D#R2F#:>G:<<B>A#E:D#:F#>>A16A16<<F#:<B>A#E:D#:F#>>A16A16<<F#:<B>A#E:D#:F#>>A16A16<<F#:<B>A#E:D#:F#>>A16A16<<F#:<B>A#E:D#:F#>>A16A16<<F#:<B>A#E:D#:F#>>A16A16<<F#:<B>A#E:D#:F#>>A16A16<<F#:<B>A#E:D#:F#>>A16A16<<F#:>G:<<B>A#E:D#:F#>>A16A16<<F#:<B>A#E:D#:F#>>A16A16<<F#:<B>A#E:D#:F#>>A16A16<<F#:<B>A#E:D#:F#>>A16A16<<F#:<B>A#E:D#:F#>>A16A16<<F#:<B>A#E:D#:F#>>A16A16<<F#:>G:<<B>A#E:D#:F#>>A16A16<<F#:<B>A#E:D#:F#>>A16A16<<F#:>G:<<B>A#E:D#:F#>>A16A16<<F#:<B>A#E:D#:F#>>A16A16<<F#:<B>A#E:D#:F#>>A16A16<<F#:<B>A#E:D#:F#>>A16A16<<F#:<B>A#E:D#:F#>>A16A16<<F#:<B>A#E:D#:F#>>A16A16<<F#:<B>A#E:D#:F#>>A16A16<<F#:<B>A#E:D#:F#>>A16A16<<F#:>G:<<B>A#E:D#:F#>>A16A16<<F#:<B>A#E:D#:F#>>A16A16<<F#:<B>A#E:D#:F#>>A16A16<<F#:<B>A#E:D#:F#>>A16A16<<F#:<B>A#E:D#:F#>>A16A16<<F#:<B>A#E:D#:F#>>A16A16<<F#:>A:<<B>A#F#:E:D#:>C#>A16A16<<F#:<B>A#E:D#:F#>>A16A16<<F#:>C:<<B:>>GR4<A:<B:>F#G:F#:<BR4>F:E:A#:D#>C:<<B:>F#R4A:<B:>F#G:F#:<BR4>F:E:A#:D#>C:<<B:>F#R4E:A:D#:A#G:F#:<BR4>F:E:A#:D#F#:>G:<<BL16>>C:>A<C:>A<<A:E:A#:>A:<D#A:>>AA:<<G>>A:<<GF:>>A:<C#:<<B>F:>>A:O1BO4A:<C:<<BO4A:<<A:<B>G:E:A#:>A:<D#L32<B:O4A:<<G:R64<B:O4A:<<G:R64<B:O4A:<<G:R64L16F:F#:>C#:<<BO4A:<<FL8F#:>G:<<B>A#E:D#:F#>>A16A16O1B:>A#F#E:D#:A#>>A16A16<<F#:<B>A#E:D#:F#>>A16A16O1B:>A#F#E:D#:A#>>A16A16<<F#:<B>A#E:D#:F#>>A16A16O1B:>A#F#E:D#:A#>>A16A16<<F#:<B>A#E:D#:F#>>A16A16O1B:>A#F#E:D#:A#>>A16A16<<F#:>G:<<B>A#E:D#:F#>>A16A16O1B:>A#F#E:D#:A#>>A16A16<<F#:<B>A#E:D#:F#>>A16A16O1B:>A#F#E:D#:A#>>A16A16<<F#:<B>A#E:D#:F#>>A16A16O1B:>A#F#E:D#:A#>>A16A16<<F#:<B>A#E:D#:F#>>A16A16O1B:>A#F#E:D#:A#>>A16A16<<F#:>G:<<B>A#E:D#:F#L16>>A:<<A#>>AL8O1B:>F#A#E:D#:F#L16>>A:<<A#>>AL8<<F#:<B>A#E:D#:F#L16>>A:<<A#>>AL8O1B:>F#A#E:D#:F#L16>>A:<<A#>>AL8<<F#:<B>A#E:D#:F#L16>>A:<<A#>>AL8O1B:>F#A#E:D#:F#L16>>A:<<A#>>AL8<<F#:<B>A#E:D#:F#L16>>A:<<A#>>AL8O1B:>F#A#E:D#:F#L16>>A:<<A#>>AL8<<F#:>G:<<B>A#E:D#:F#L16>>A:<<A#>>AL8O1B:>F#A#E:D#:F#L16>>A:<<A#>>AL8<<F#:<B>A#E:D#:F#L16>>A:<<A#>>AL8O1B:>F#A#E:D#:F#L16>>A:<<A#>>AL8<<F#:<B>A#E:D#:F#L16>>A:<<A#>>AL8O1B:>F#A#E:D#:F#L16>>A:<<A#>>AL8<<F#:>A:<<B>>C#:<A#E:D#:F#L16>>A:<<A#>>AL8<<F#:<B:>>A<A#F#:E:D#:>C#L16>A:<<A#>>AL4<<F#:>G:<<B>E:F#:D#F#:<B>E:D#:F#F#:<B>E:F#:D#F#:<B>E:D#:F#F#:<B>E:F#:D#F#:<B>E:D#:F#F#:<B>F#:E:D#:>A<F#:>C#:<<B>E:A#:D#F#:>G:<<B>E:F#:D#F#:<B>E:D#:F#F#:<B>E:F#:D#F#:<B>E:D#:F#L8F#:<B>E:>C:<A#:>A:<D#A:<B:>F#A#.&A#32.:E.&E32.:G.&G32.:D#.&D#32.:>C#.&C#32.R4R64<F:F#:<B>>C:<F#:<B>A:F#:>A:<<B>G:F#:<B>F:E:A#:>C#:<D#R2F#:>GL16<G#G#F#G#G#G#G#8>>AA<<G#>>AAA<<F#8G#G#F#G#G#G#G#8>>AA<<G#>>AAA<<F#8G#G#F#G#G#G#G#8>>AA<<G#>>AAA<<F#8G#G#F#G#G#G#G#8>>AA<<E:G#>>A<<E:>>AA<<F#8:>G8<G#G#F#G#G#G#G#8>>AA<<G#>>AAA<<F#8G#G#F#G#G#G#G#8>>AA<<G#>>AAA<<F#8G#G#F#G#G#G#G#8>>AA<<G#>>AAA<<F#8:>G8<G#:>A<G#:>C#<A#G#:>G<G#:>G<G#:>GA8:<G#8>C#:>A<C#:>A<<E:>G:<G#>A:>A<<E:>C#:>A<<A#:>>AL8<<F#:>G:<<B>A#E:D#:F#>>A16A16<<F#:<B>A#E:D#:F#>>A16A16<<F#:<B>A#E:D#:F#>>A16A16<<F#:<B>A#E:D#:F#>>A16A16<<F#:<B>A#E:D#:F#>>A16A16<<F#:<B>A#E:D#:F#>>A16A16<<F#:<B>A#E:D#:F#>>A16A16<<F#:<B>A#E:D#:F#>>A16A16<<F#:>G:<<B>A#E:D#:F#>>A16A16<<F#:<B>A#E:D#:F#>>A16A16<<F#:<B>A#E:D#:F#>>A16A16<<F#:<B>A#E:D#:F#>>A16A16<<F#:<B>A#E:D#:F#>>A16A16<<F#:<B>A#E:D#:F#>>A16A16<<F#:>A:<<B>A#F#:E:D#:>C#>A16A16<<F#:>G:<<B>A#E:D#:F#>>A16A16<<F#:>G:<<B>A#E:D#:F#>>A16A16<<F#:<B>A#E:D#:F#>>A16A16<<F#:<B>A#E:D#:F#>>A16A16<<F#:<B>A#E:D#:F#>>A16A16<<F#:<B>A#E:D#:F#>>A16A16<<F#:<B>A#E:D#:F#>>A16A16<<F#:<B>A#E:D#:F#>>A16A16<<F#:<B>A#E:D#:F#>>A16A16<<F#:>G:<<B>A#E:D#:F#>>A16A16<<F#:<B>A#E:D#:F#>>A16A16<<F#:<B>A#E:D#:F#>>A16A16<<F#:<B>A#E:D#:F#>>A16A16<<F#:<B>A#E:D#:F#>>A16A16<<F#:<B>A#E:D#:F#>>A16A16<<F#:>G:<<B>A#E:D#:F#>>A16A16<<F#:<B>A#E:D#:F#>>A16A16<<F#:>G:<<B>A#E:D#:F#>>A16A16<<F#:<B>A#E:D#:F#>>A16A16<<F#:<B>A#E:D#:F#>>A16A16<<F#:<B>A#E:D#:F#>>A16A16<<F#:<B>A#E:D#:F#>>A16A16<<F#:<B>A#E:D#:F#>>A16A16<<F#:<B>A#E:D#:F#>>A16A16<<F#:<B>A#E:D#:F#>>A16A16<<F#:>G:<<B>A#E:D#:F#>>A16A16<<F#:<B>A#E:D#:F#>>A16A16<<F#:<B>A#E:D#:F#>>A16A16<<F#:<B>A#E:D#:F#>>A16A16<<F#:<B>A#E:D#:F#>>A16A16<<F#:<B>A#E:D#:F#>>A16A16<<F#:>A:<<B>A#16>C#16<E:D#:F#L16>>A:<A>AL8<<F#:>G:<<B>A#E:D#:F#>>A16A16<<F#:>A:<<B>A#16>C#16<E:D#:F#L16>>A:<A>A:<<A#L8<B:>E:F#:>G:<D#
#NewTrack
#trackName Cymbal
#instrumentName Microsoft GS Wavetable Synth
L1RRRRRRRRRRRRRRRRRRRRRRRRRRRRRRRRRRRR.F4.&F16&F64:A4.&A16&A64:>D4.&D16&D64:<D4.&D16&D64RRRRRRRRRRRRRRRRRRRRRRRRRRRRRRRRRRRRRRR.R32.F4.&F16&F64:A4.&A16&A64:>D4.&D16&D64:<D4.&D16&D64RRRRRRRRRRRRRRRRRRRRRRRRRRRRRRRRRRRRRRRRRRRRR.R32.F4.&F16&F64:A4.&A16&A64:>D4.&D16&D64:<D4.&D16&D64R.R32.F4.&F16&F64:A4.&A16&A64:>D4.&D16&D64:<D4.&D16&D64R.R32.F4.&F16&F64:A4.&A16&A64:>D4.&D16&D64:<D4.&D16&D64R.R32.F4.&F16&F64:A4.&A16&A64:>D4.&D16&D64:<D4.&D16&D64
#NewTrack
#trackName Tango Accordion
#instrumentName Microsoft GS Wavetable Synth
R2.R8L32R>CDEL1<A:>D:<FL2>D.:F.:<A.L4>F:G:CL2F.&F8:A.&A8:D.&D8L8E:G:CL4A:>D<C:F:<AB:>D:<G>C:E:<A
#NewTrack
#trackName Electric Bass (finger)
#instrumentName Microsoft GS Wavetable Synth
R1L8<<D.D.CD.D.CD.D.CD4F4D.D.CD.D.CL4DFGAA#F>C<G>D<DFGA#A#>CC<DFGAA#A#>C<GDFAFA#A#>CCL8DR16DR16FDRL4D<A#F>C<G>D<DFGA#A#>CC<DFGAA#A#>C<GDFAFA#A#>CCL8<DR16DR16FDRD4DRDRDRDR<A#RA#R>CRCRDRDRDRDR<A#RA#R>CRGRDRDRDRDR<A#RA#R>CRCRDRDRDRDR<A#RA#R>GFECL4<A#A#A#A#FFFFA#A#>CCDDL8GFEDL4<A#A#A#A#FFFFL8GGRGG4BGARAAR2L4>DD<A#A#>CC<FF>DD<A#A#>CC<FF>DD<A#A#>CC<FFA#A#AAA#>CDDDD<A#A#>CC<FF>DD<A#A#>CC<FF>DD<A#A#>CC<FFA#A#AAA#>CDDA#F>C<G>D<DFGA#A#>CC<DFGAA#A#>C<GDFAFA#A#>CCL8<DR16DR16FDRD4DRDRDRDR<A#RA#R>CRCRDRDRDRDR<A#RA#R>CRGRDRDRDRDR<A#RA#R>CRCRDRDRDRDR<A#RA#R>GFECL4<A#A#A#A#FFFFA#A#>CCDDL8GFEDL4<A#A#A#A#FFFFL8GGRGG4BGARAAR2L4>DD<A#A#>CC<FF>DD<A#A#>CC<FF>DD<A#A#>CC<FFA#A#AAA#>CDDDD<A#A#>CC<FF>DD<A#A#>CC<FF>DD<A#A#>CC<FFA#A#AAA#>CDDL8DR4D<A#R4A#>CR4CDR4DDR4D<A#L4RA#8>CCC#C#DDDDD#D#D#D#<A#A#A#A#>CCC#C#DDDDD#D#D#D#<A#A#A#A#>CCC#C#<A#A#>CC<DFGAA#A#>CC<DFGAA#A#>CC<DFGAA#A#>CCL8DR16DR16FDRL4D<A#A#A#A#FFFFA#A#>CCDDL8GFECL4<A#A#A#A#FFFFL8GGRGG4A#GARAAL2R>D<A#>C<F>D<A#>C<F>D<A#>C<FL4A#A#AAA#>CDREECCDD<GG>EECCDD<GG>EECCDD<GG>CC<BB>CDEE>C<G>D<A>E<EGA>CCDD<EGAB>CCD<AEGBG>CCDDL8ER16ER16GERL4EC<G>D<A>E<EGA>CCDD<EGAB>CCD<AEGBG>CCDDL8<ER16ER16GERE4ER16ER16DE4
#NewTrack
#trackName Vibraphone
#instrumentName Microsoft GS Wavetable Synth
L1RRRRRG8A8L16DCDCG8A8DCDCG8A8DCDCE64F.&F64L32E.:RF.:RE.:RL8DCGAL16DCDCG8A8DCDCG8A8>CRFREFEDL8C<AGAL16DCDCG8A8DCDCG8A8DCDCE64F.&F64L32E.:RF.:RE.:RL8DCDL16CDF8DFA8GA>CF<A>CF8L32E.:RF.:RE.:RL8DCDR<A:>DC:FC4:GAL16DCDCC4:G8A8DCDCC4:G8A8DCDCE64F.&F64L32E.:RF.:RE.:RL8DCC4:GAL16DCDCC4:G8A8DCDCC4:G8A8>CRFREFEDL8C<AC4:GAL16DCDCC4:G8A8DCDCC4:G8A8DCDCE64F.&F64L32E.:RF.:RE.:RD8C8L16GFA>CDC<AGL8<A:>DC:FD:GE:A<A:>DR16<A:>DR16<A:>C<A:>DL1RRRRRRRRRRRRRRRRRRRRRRRRRRRRRRRRR4.C4:G8A8L16DCDCC4:G8A8DCDCC4:G8A8DCDCE64F.&F64L32E.:RF.:RE.:RL8DCC4:GAL16DCDCC4:G8A8DCDCC4:G8A8>CRFREFEDL8C<AC4:GAL16DCDCC4:G8A8DCDCC4:G8A8DCDCE64F.&F64L32E.:RF.:RE.:RD8C8L16GFA>CDC<AGL8<A:>DC:FD:GE:A<A:>DR16<A:>DR16<A:>C<A:>DL1RRRRRRRRRRRRRRRRRRRRRRRRRRRRRRRRRRRRRRRRRRRRR8L16<A>C#DEAGAFAGAFGFGECD<AGAGAFGFGED4.R8<DEFEFDA8GAGE>FEDFGL8A.>C<AL16GAGAGL8A.<DCGFAG>DCGF>DC<A>CDEFL16D<A#FA#>DFGEC8<G>CEGA8.G8.AGA4.L1RRRRRRRRRRRRRRRRRRRRRRRRL8R<ABL16EDEDA8B8EDEDA8B8EDEDF#64G.&G64L32F#.:RG.:RF#.:RL8EDABL16EDEDA8B8EDEDA8B8>DRGRF#GF#EL8D<BABL16EDEDA8B8EDEDA8B8EDEDF#64G.&G64L32F#.:RG.:RF#.:RL8EDEL16DEG8EGB8AB>DG<B>DG8L32F#.:RG.:RF#.:RL8EDER<B:>ED:GD4:ABL16EDEDD4:A8B8EDEDD4:A8B8EDEDF#64G.&G64L32F#.:RG.:RF#.:RL8EDD4:ABL16EDEDD4:A8B8EDEDD4:A8B8>DRGRF#GF#EL8D<BD4:ABL16EDEDD4:A8B8EDEDD4:A8B8EDEDF#64G.&G64L32F#.:RG.:RF#.:RE8D8L16AGB>DED<BAL8<B:>ED:GE:AF#:B<B:>ER16<B:>ER16<B:>D<B:>ER4.<B:>ER16<B:>ER16<B:>D<B4:>E4
#NewTrack
#trackName Bright Acoustic Piano
#instrumentName Microsoft GS Wavetable Synth
L1RRRRRL8RD:<A#:>FRD:<A#:>FRC:<G:>ERC:<G:>ER<A:F:>DR<A:F:>DR<A:F:>DR<A:F:>DRD:<A#:>FRD:<A#:>FRC:<G:>ERC:<G:>ER<A:F:>DR<A:F:>DR<A:F:>DR<A:F:>DRD:<A#:>FRD:<A#:>FRC:<G:>ERC:<G:>ER<A:F:>DR<A:F:>DR<A:F:>DR<A:F:>DRD:<A#:>FRD:<A#:>FRC:<G:>ERC:<G:>E<A:F:>DR16<A:F:>DR16<A:F:>F<A:F:>DRL4<A:F:>DL8RD:<A#:>FRD:<A#:>FRC:<G:>ERC:<G:>ER<A:F:>DR<A:F:>DR<A:F:>DR<A:F:>DRD:<A#:>FRD:<A#:>FRC:<G:>ERC:<G:>ER<A:F:>DR<A:F:>DR<A:F:>DR<A:F:>DRD:<A#:>FRD:<A#:>FRC:<G:>ERC:<G:>ER<A:F:>DR<A:F:>DR<A:F:>DR<A:F:>DRD:<A#:>FRD:<A#:>FRC:<G:>ERC:<G:>E<A:F:>DR16<A:F:>DR16<A:F:>F<A:F:>DRL4<A:F:>DL8<A:F:>DR<A.:F.:>D.L16<A:F:>DR<A:F:>DR8L4<A:F:>DL8<A#:F:>DRL4<A#:F:>DL8C:<G:>ERL4C:<G:>EL8<A:F:>DR<A.:F.:>D.L16<A:F:>DR<A:F:>DR8L4<A:F:>DL8<A#:F:>DRL4<A#:F:>DL8C:<G:>ERL4C:<G:>EL8<A:F:>DR<A.:F.:>D.L16<A:F:>DR<A:F:>DR8L4<A:F:>DL8<A#:F:>DRL4<A#:F:>DL8C:<G:>ERL4C:<G:>EL8<A:F:>DR<A.:F.:>D.L16<A:F:>DR<A:F:>DR8L4<A:F:>DL2<A#:F:>DC:<G:>EL4<A#:F:>D<A#:F:>D<A#:F:>D<A#:F:>D<A:F:>C<A:F:>C<A:F:>C<A:F:>C<A#:F:>D<A#:F:>DC:<G:>EC:<G:>E<A:F:>D<A:F:>D<A:F:>D<A:F:>D<A#:F:>D<A#:F:>D<A#:F:>D<A#:F:>D<A:F:>C<A:F:>C<A:F:>C<A:F:>CL8<B:G:>D<B:G:>DR<B:G:>DL4<B:G:>D<B:G:>DC#:<A:>EL8C#:<A:>EC#:<A:>ER2<A.:F.:>D.<A.:F.:>D.<A:F:>DR<A#:F:>DR16<A#.:F.:>D.C.:<G.:>E.C.:<G.:>E.C:<G:>EL4C:<A:>FL8C:<A:>FC:<A:>F<A.:F.:>D.<A.:F.:>D.<A:F:>DR<A#:F:>DR16<A#.:F.:>D.C.:<G.:>E.C.:<G.:>E.C:<G:>EL4C:<A:>FC:<A:>FL8<A.:F.:>D.<A.:F.:>D.<A:F:>DR<A#:F:>DR16<A#.:F.:>D.C.:<G.:>E.C.:<G.:>E.C:<G:>EL4C:<A:>FL8C:<A:>FC:<A:>FL4<A#:F:>D<A#:F:>DC:<A:>EC:<A:>E<A#:F:>DC:<G:>E<A:F:>D<A:F:>DL8<A.:F.:>D.<A.:F.:>D.<A:F:>DR<A#:F:>DR16<A#.:F.:>D.C.:<G.:>E.C.:<G.:>E.C:<G:>EL4C:<A:>FL8C:<A:>FC:<A:>F<A.:F.:>D.<A.:F.:>D.<A:F:>DR<A#:F:>DR16<A#.:F.:>D.C.:<G.:>E.C.:<G.:>E.C:<G:>EL4C:<A:>FC:<A:>FL8<A.:F.:>D.<A.:F.:>D.<A:F:>DR<A#:F:>DR16<A#.:F.:>D.C.:<G.:>E.C.:<G.:>E.C:<G:>EL4C:<A:>FL8C:<A:>FC:<A:>FL4<A#:F:>D<A#:F:>DC:<A:>EC:<A:>EL8<A#:F:>DRC:<G:>ER<A:F:>DRL4<A:F:>DL8RD:<A#:>FRD:<A#:>FRC:<G:>ERC:<G:>ER<A:F:>DR<A:F:>DR<A:F:>DR<A:F:>DRD:<A#:>FRD:<A#:>FRC:<G:>ERC:<G:>ER<A:F:>DR<A:F:>DR<A:F:>DR<A:F:>DRD:<A#:>FRD:<A#:>FRC:<G:>ERC:<G:>ER<A:F:>DR<A:F:>DR<A:F:>DR<A:F:>DRD:<A#:>FRD:<A#:>FRC:<G:>ERC:<G:>E<A:F:>DR16<A:F:>DR16<A:F:>F<A:F:>DRL4<A:F:>DL8<A:F:>DR<A.:F.:>D.L16<A:F:>DR<A:F:>DR8L4<A:F:>DL8<A#:F:>DRL4<A#:F:>DL8C:<G:>ERL4C:<G:>EL8<A:F:>DR<A.:F.:>D.L16<A:F:>DR<A:F:>DR8L4<A:F:>DL8<A#:F:>DRL4<A#:F:>DL8C:<G:>ERL4C:<G:>EL8<A:F:>DR<A.:F.:>D.L16<A:F:>DR<A:F:>DR8L4<A:F:>DL8<A#:F:>DRL4<A#:F:>DL8C:<G:>ERL4C:<G:>EL8<A:F:>DR<A.:F.:>D.L16<A:F:>DR<A:F:>DR8L4<A:F:>DL2<A#:F:>DC:<G:>EL4<A#:F:>D<A#:F:>D<A#:F:>D<A#:F:>D<A:F:>C<A:F:>C<A:F:>C<A:F:>C<A#:F:>D<A#:F:>DC:<G:>EC:<G:>E<A:F:>D<A:F:>D<A:F:>D<A:F:>D<A#:F:>D<A#:F:>D<A#:F:>D<A#:F:>D<A:F:>C<A:F:>C<A:F:>C<A:F:>CL8<B:G:>D<B:G:>DR<B:G:>DL4<B:G:>D<B:G:>DC#:<A:>EL8C#:<A:>EC#:<A:>ER2<A.:F.:>D.<A.:F.:>D.<A:F:>DR<A#:F:>DR16<A#.:F.:>D.C.:<G.:>E.C.:<G.:>E.C:<G:>EL4C:<A:>FL8C:<A:>FC:<A:>F<A.:F.:>D.<A.:F.:>D.<A:F:>DR<A#:F:>DR16<A#.:F.:>D.C.:<G.:>E.C.:<G.:>E.C:<G:>EL4C:<A:>FC:<A:>FL8<A.:F.:>D.<A.:F.:>D.<A:F:>DR<A#:F:>DR16<A#.:F.:>D.C.:<G.:>E.C.:<G.:>E.C:<G:>EL4C:<A:>FL8C:<A:>FC:<A:>FL4<A#:F:>D<A#:F:>DC:<A:>EC:<A:>E<A#:F:>DC:<G:>E<A:F:>D<A:F:>DL8<A.:F.:>D.<A.:F.:>D.<A:F:>DR<A#:F:>DR16<A#.:F.:>D.C.:<G.:>E.C.:<G.:>E.C:<G:>EL4C:<A:>FL8C:<A:>FC:<A:>F<A.:F.:>D.<A.:F.:>D.<A:F:>DR<A#:F:>DR16<A#.:F.:>D.C.:<G.:>E.C.:<G.:>E.C:<G:>EL4C:<A:>FC:<A:>FL8<A.:F.:>D.<A.:F.:>D.<A:F:>DR<A#:F:>DR16<A#.:F.:>D.C.:<G.:>E.C.:<G.:>E.C:<G:>EL4C:<A:>FL8C:<A:>FC:<A:>FL4<A#:F:>D<A#:F:>DC:<A:>EC:<A:>EL8<A#:F:>DRC:<G:>ER<A:F:>DRL4<A:F:>DL8<A:F:>DR4.<A#:F:>DR4.C:<G:>ER4.<A:F:>DR4.<A:F:>DR4.<A#:F:>DR4.C:<G:>EL16C:<G:>ERC:<G:>ERC:<G:>ERL8C#:<G#:>FC#:<G#:>FC#:<G#:>FC#:<G#:>FR<A:F:>DR<A:F:>DR<A:F:>DR<A:F:>DR<A#:G:>D#R<A#:G:>D#R<A#:G:>D#R<A#:G:>D#R<A#:F:>DR<A#:F:>DR<A#:F:>DR<A#:F:>DRC:<G:>ERC:<G:>ERC#:<G#:>EC#:<G#:>EC#:<G#:>ER<A:F:>DR<A:F:>DR<A:F:>DR<A:F:>DR<A#:G:>D#R<A#:G:>D#R<A#:G:>D#R<A#:G:>D#R<A#:F:>DR<A#:F:>DR<A#:F:>DR<A#:F:>DRC:<G:>ERC:<G:>EC#:<G#:>EC#:<G#:>EC#:<G#:>EC#:<G#:>ERD:<A#:>FRD:<A#:>FRC:<G:>ERC:<G:>ER<A:F:>DR<A:F:>DR<A:F:>DR<A:F:>DRD:<A#:>FRD:<A#:>FRC:<G:>ERC:<G:>ER<A:F:>DR<A:F:>DR<A:F:>DR<A:F:>DRD:<A#:>FRD:<A#:>FRC:<G:>ERC:<G:>ER<A:F:>DR<A:F:>DR<A:F:>DR<A:F:>DRD:<A#:>FRD:<A#:>FRC:<G:>ERC:<G:>E<A:F:>DR16<A:F:>DR16<A:F:>F<A:F:>DRL4<A:F:>D<A#:F:>D<A#:F:>D<A#:F:>D<A#:F:>D<A:F:>C<A:F:>C<A:F:>C<A:F:>C<A#:F:>D<A#:F:>DC:<G:>EC:<G:>E<A:F:>D<A:F:>D<A:F:>D<A:F:>D<A#:F:>D<A#:F:>D<A#:F:>D<A#:F:>D<A:F:>C<A:F:>C<A:F:>C<A:F:>CL8<B:G:>D<B:G:>DR<B:G:>DL4<B:G:>D<B:G:>DC#:<A:>EL8C#:<A:>EC#:<A:>ER2<A.:>C.<A.:>C.<A:>C<A#2:>D2<G.:>D.<G.:>D.<G:>DC2:F2<A.:>C.<A.:>C.<A:>C<A#2:>D2<G.:>D.<G.:>D.<G:>DC2:F2<A.:>C.<A.:>C.<A:>C<A#.:>D.<A#.:>D.<A#:>D<G.:>D.<G.:>D.<G:>DC.:F.C.:F.C:FL4<A#:F:>D<A#:F:>DC:<A:>EC:<A:>E<A#:F:>DC:<G:>E<A:F:>D<A:F:>DL8<B.:G.:>E.<B.:G.:>E.<B:G:>ERC:<G:>ER16C.:<G.:>E.D.:<A.:>F#.D.:<A.:>F#.D:<A:>F#L4D:<B:>GL8D:<B:>GD:<B:>G<B.:G.:>E.<B.:G.:>E.<B:G:>ERC:<G:>ER16C.:<G.:>E.D.:<A.:>F#.D.:<A.:>F#.D:<A:>F#L4D:<B:>GD:<B:>GL8<B.:G.:>E.<B.:G.:>E.<B:G:>ERC:<G:>ER16C.:<G.:>E.D.:<A.:>F#.D.:<A.:>F#.D:<A:>F#L4D:<B:>GL8D:<B:>GD:<B:>GL4C:<G:>EC:<G:>ED:<B:>F#D:<B:>F#L8C:<G:>ERD:<A:>F#R<B:G:>ERL4<B:G:>EL8RE:C:GRE:C:GRD:<A:>F#RD:<A:>F#R<B:G:>ER<B:G:>ER<B:G:>ER<B:G:>ERE:C:GRE:C:GRD:<A:>F#RD:<A:>F#R<B:G:>ER<B:G:>ER<B:G:>ER<B:G:>ERE:C:GRE:C:GRD:<A:>F#RD:<A:>F#R<B:G:>ER<B:G:>ER<B:G:>ER<B:G:>ERE:C:GRE:C:GRD:<A:>F#RD:<A:>F#<B:G:>ER16<B:G:>ER16<B:G:>G<B:G:>ERL4<B:G:>EL8RE:C:GRE:C:GRD:<A:>F#RD:<A:>F#R<B:G:>ER<B:G:>ER<B:G:>ER<B:G:>ERE:C:GRE:C:GRD:<A:>F#RD:<A:>F#R<B:G:>ER<B:G:>ER<B:G:>ER<B:G:>ERE:C:GRE:C:GRD:<A:>F#RD:<A:>F#R<B:G:>ER<B:G:>ER<B:G:>ER<B:G:>ERE:C:GRE:C:GRD:<A:>F#RD:<A:>F#<B:G:>ER16<B:G:>ER16<B:G:>G<B:G:>ERL4<B:G:>EL8<B:G:>ER16<B:G:>ER16<B:G:>DL4<B:G:>E
#NewTrack
#trackName Bright Acoustic Piano
#instrumentName Microsoft GS Wavetable Synth
L1RRRRRRRRRRRR.R4L8A:>DC:FGAL16DCDCG8A8DCDCG8A8DCDCE64F.&F64L32E.:RF.:RE.:RL8DCGAL16DCDCG8A8DCDCG8A8>CRFREFEDL8C<AGAL16DCDCG8A8DCDCG8A8DCDCE64F.&F64L32E.:RF.:RE.:RD8C8L16GFA>CDC<AGL8DFGA<A:>DR16<A:>DR16<A:>C<A:>DL1RRRRRRRRRRRRRRRRRRRRRRRRRRRRRRRRR4.G8A8L16DCDCG8A8DCDCG8A8DCDCE64F.&F64L32E.:RF.:RE.:RL8DCGAL16DCDCG8A8DCDCG8A8>CRFREFEDL8C<AGAL16DCDCG8A8DCDCG8A8DCDCE64F.&F64L32E.:RF.:RE.:RD8C8L16GFA>CDC<AGL8DFGA<A:>DR16<A:>DR16<A:>C<A:>DL1RRRRRRRRRRRRRRRRRRRRRRRRRRRRRRRRR4.L8A:>D<A:>D<A:>D<A:>D<A:>D<A:>DD16C16<AD:GD:GD:GD:GD:GD:GG16F16D<A:>D<A:>D<A:>D<A:>D<A:>D<A:>DL16DC<A8G8AGA>CDFA>CDFE8DC<AFDA8AFDAFDA8AFDA#GD#A#8A#GD#A#GD#A#8A#GD#A#FDA#8A#FDA#FDA#8A#FDGECG8GECAECA8AECAFDA>D<AFDAFDA>FD<AFA#GD#A#>D#<A#GD#A#GD#A#>GF#FD#D<A#FA#>F<A#>DFA#FD<A#A#GD<A#>C4<CEG>CC#4<C#FG#>C#GAFAGFEDEDCDDC<AGAGFAGFEFD2L8DEFAL16GA>DEFEDFA4.L8>C<A2<DCGFAG>DCGFL32>C.:R<A.:R>C.:R<A.:R>C.:R<A.:R>C2<F8L16D<A#FA#>DFG8EC<G>CEGA8.G8.AGA4.L1RRRRRRRRRRRRRRRRRRRRRRRRRRRRRRR.R4.L8<B:>ED:GABL16EDEDA8B8EDEDA8B8EDEDF#64G.&G64L32F#.:RG.:RF#.:RL8EDABL16EDEDA8B8EDEDA8B8>DRGRF#GF#EL8D<BABL16EDEDA8B8EDEDA8B8EDEDF#64G.&G64L32F#.:RG.:RF#.:RE8D8L16AGB>DED<BAL8EGAB<B:>ER16<B:>ER16<B:>D<B:>ER4.<B:>ER16<B:>ER16<B:>D<B4:>E4
#NewTrack
#trackName Track 8
#instrumentName Microsoft GS Wavetable Synth
#NewTrack
#trackName Orchestral Harp
#instrumentName Microsoft GS Wavetable Synth
L1RRRRRRRRRRRR.R4L8A:>DC:FGAL16DCDCG8A8DCDCG8A8DCDCE64F.&F64L32E.:RF.:RE.:RL8DCGAL16DCDCG8A8DCDCG8A8>CRFREFEDL8C<AGAL16DCDCG8A8DCDCG8A8DCDCE64F.&F64L32E.:RF.:RE.:RD8C8L16GFA>CDC<AGL8DFGA<A:>DR16<A:>DR16<A:>C<A:>DL1RRRRRRRRRRRRRRRRRRRRRRRRRRRRRRRRR4.G8A8L16DCDCG8A8DCDCG8A8DCDCE64F.&F64L32E.:RF.:RE.:RL8DCGAL16DCDCG8A8DCDCG8A8>CRFREFEDL8C<AGAL16DCDCG8A8DCDCG8A8DCDCE64F.&F64L32E.:RF.:RE.:RD8C8L16GFA>CDC<AGL8DFGA<A:>DR16<A:>DR16<A:>C<A:>DL1RRRRRRRRRRRRRRRRRRRRRRRRRRRRRRRRRRRRRRRRRRRRRRRRRRRRRRRRRRRRRRRRRRRRRRRRRRRRRRRRRRRRL8R<B:>ED:GABL16EDEDA8B8EDEDA8B8EDEDF#64G.&G64L32F#.:RG.:RF#.:RL8EDABL16EDEDA8B8EDEDA8B8>DRGRF#GF#EL8D<BABL16EDEDA8B8EDEDA8B8EDEDF#64G.&G64L32F#.:RG.:RF#.:RE8D8L16AGB>DED<BAL8EGAB<B:>ER16<B:>ER16<B:>D<B:>ER4.<B:>ER16<B:>ER16<B:>D<B4:>E4
#NewTrack
#trackName Track 10
#instrumentName Microsoft GS Wavetable Synth
#NewTrack
#trackName Distortion Guitar
#instrumentName Microsoft GS Wavetable Synth
L1RRRRRL8RD:<A#:>FRD:<A#:>FRC:<G:>ERC:<G:>ER<A:>D:<FRA:>D:<FRA:>D:<FRA:>D:<FR>D:<A#:>FRD:<A#:>FRC:<G:>ERC:<G:>ER<A:>D:<FRA:>D:<FRA:>D:<FRA:>D:<FR>D:<A#:>FRD:<A#:>FRC:<G:>ERC:<G:>ER<A:>D:<FRA:>D:<FRA:>D:<FRA:>D:<FR>D:<A#:>FRD:<A#:>FRC:<G:>ERC:<G:>E<A:>D:<FR16A:>D:<FR16A:>F:<FA:>D:<FRL4A:>D:<FL8R>D:<A#:>FRD:<A#:>FRC:<G:>ERC:<G:>ER<A:>D:<FRA:>D:<FRA:>D:<FRA:>D:<FR>D:<A#:>FRD:<A#:>FRC:<G:>ERC:<G:>ER<A:>D:<FRA:>D:<FRA:>D:<FRA:>D:<FR>D:<A#:>FRD:<A#:>FRC:<G:>ERC:<G:>ER<A:>D:<FRA:>D:<FRA:>D:<FRA:>D:<FR>D:<A#:>FRD:<A#:>FRC:<G:>ERC:<G:>E<A:>D:<FR16A:>D:<FR16A:>F:<FA:>D:<FRL4A:>D:<FL1RRRRRRRRRRRRRRRRL2A:>D:<FA#:F:>DC:<G:>EC:<A:>F<A:>D:<FA#:F:>DC:<G:>EC:<A:>F<A:>D:<FA#:F:>DC:<G:>EC:<A:>F<A#:F:>DC:<A:>EL4<A#:F:>DC:<G:>EL2<A:>D:<FA:>D:<FA#:F:>DC:<G:>EC:<A:>F<A:>D:<FA#:F:>DC:<G:>EC:<A:>F<A:>D:<FA#:F:>DC:<G:>EC:<A:>F<A#:F:>DC:<A:>EL4<A#:F:>DC:<G:>EL2<A:>D:<FL8R>D:<A#:>FRD:<A#:>FRC:<G:>ERC:<G:>ER<A:>D:<FRA:>D:<FRA:>D:<FRA:>D:<FR>D:<A#:>FRD:<A#:>FRC:<G:>ERC:<G:>ER<A:>D:<FRA:>D:<FRA:>D:<FRA:>D:<FR>D:<A#:>FRD:<A#:>FRC:<G:>ERC:<G:>ER<A:>D:<FRA:>D:<FRA:>D:<FRA:>D:<FR>D:<A#:>FRD:<A#:>FRC:<G:>ERC:<G:>E<A:>D:<FR16A:>D:<FR16A:>F:<FA:>D:<FRL4A:>D:<FL1RRRRRRRRRRRRRRRRL2A:>D:<FA#:F:>DC:<G:>EC:<A:>F<A:>D:<FA#:F:>DC:<G:>EC:<A:>F<A:>D:<FA#:F:>DC:<G:>EC:<A:>F<A#:F:>DC:<A:>EL4<A#:F:>DC:<G:>EL2<A:>D:<FA:>D:<FA#:F:>DC:<G:>EC:<A:>F<A:>D:<FA#:F:>DC:<G:>EC:<A:>F<A:>D:<FA#:F:>DC:<G:>EC:<A:>F<A#:F:>DC:<A:>EL4<A#:F:>DC:<G:>EL2<A:>D:<FL1RRRRL8RA:>D:<FRA:>D:<FRA:>D:<FRA:>D:<FRA#:G:>D#R<A#:G:>D#R<A#:G:>D#R<A#:G:>D#R<A#:F:>DR<A#:F:>DR<A#:F:>DR<A#:F:>DRC:<G:>ERC:<G:>ERC#:<G#:>EC#:<G#:>EC#:<G#:>ER<A:>D:<FRA:>D:<FRA:>D:<FRA:>D:<FRA#:G:>D#R<A#:G:>D#R<A#:G:>D#R<A#:G:>D#R<A#:F:>DR<A#:F:>DR<A#:F:>DR<A#:F:>DRC:<G:>ERC:<G:>EC#:<G#:>EC#:<G#:>EC#:<G#:>EC#:<G#:>ERD:<A#:>FRD:<A#:>FRC:<G:>ERC:<G:>ER<A:>D:<FRA:>D:<FRA:>D:<FRA:>D:<FR>D:<A#:>FRD:<A#:>FRC:<G:>ERC:<G:>ER<A:>D:<FRA:>D:<FRA:>D:<FRA:>D:<FR>D:<A#:>FRD:<A#:>FRC:<G:>ERC:<G:>ER<A:>D:<FRA:>D:<FRA:>D:<FRA:>D:<FR>D:<A#:>FRD:<A#:>FRC:<G:>ERC:<G:>E<A:>D:<FR16A:>D:<FR16A:>F:<FA:>D:<FRL4A:>D:<FL1RRRRRRRRRRRRRRRL4A#:F:>DC:<G:>EL2<A:>D:<FB:G:>EC:<G:>ED:<A:>F#D:<B:>G<B:G:>EC:<G:>ED:<A:>F#D:<B:>G<B:G:>EC:<G:>ED:<A:>F#D:<B:>GC:<G:>ED:<B:>F#L4C:<G:>ED:<A:>F#L2<B:G:>EL8RE:C:GRE:C:GRD:<A:>F#RD:<A:>F#R<B:G:>ER<B:G:>ER<B:G:>ER<B:G:>ERE:C:GRE:C:GRD:<A:>F#RD:<A:>F#R<B:G:>ER<B:G:>ER<B:G:>ER<B:G:>ERE:C:GRE:C:GRD:<A:>F#RD:<A:>F#R<B:G:>ER<B:G:>ER<B:G:>ER<B:G:>ERE:C:GRE:C:GRD:<A:>F#RD:<A:>F#<B:G:>ER16<B:G:>ER16<B:G:>G<B:G:>ERL4<B:G:>EL8RE:C:GRE:C:GRD:<A:>F#RD:<A:>F#R<B:G:>ER<B:G:>ER<B:G:>ER<B:G:>ERE:C:GRE:C:GRD:<A:>F#RD:<A:>F#R<B:G:>ER<B:G:>ER<B:G:>ER<B:G:>ERE:C:GRE:C:GRD:<A:>F#RD:<A:>F#R<B:G:>ER<B:G:>ER<B:G:>ER<B:G:>ERE:C:GRE:C:GRD:<A:>F#RD:<A:>F#<B:G:>ER16<B:G:>ER16<B:G:>G<B:G:>ERL4<B:G:>EL8<B:G:>ER16<B:G:>ER16<B:G:>DL4<B:G:>E
#NewTrack
#trackName Tango Accordion
#instrumentName Microsoft GS Wavetable Synth
L1RRRRRL2D:F:<A#>C:E:<GL1>D:F:<AL2>D:F:<A#>C:E:<GL1>D:F:<AL2>D:F:<A#>C:E:<GL1>D:F:<AL2>D:F:<A#>C:E:<GL1>D:F:<AL2>D:F:<A#>C:E:<GL1>D:F:<AL2>D:F:<A#>C:E:<GL1>D:F:<AL2>D:F:<A#>C:E:<GL1>D:F:<AL2>D:F:<A#>C:E:<G>D&D8:F&F8:<A&A8L1RRRRRRRRRRRRRRRRRRRRRRRRRRRRRRRRR4.L2>D:F:<A#>C:E:<GL1>D:F:<AL2>D:F:<A#>C:E:<GL1>D:F:<AL2>D:F:<A#>C:E:<GL1>D:F:<AL2>D:F:<A#>C:E:<G>D&D8:F&F8:<A&A8L1RRRRRRRRRRRRRRRRRRRRRRRRRRRRRRRRRRRRRRRRRRRRRRRRRRRRRRRRRRRRRRRRRRRRRRRRRRRRR4.L2>E:G:CD:F#:<AL1>E:G:<BL2>E:G:CD:F#:<AL1>E:G:<BL2>E:G:CD:F#:<AL1>E:G:<BL2>E:G:CD:F#:<AL1>E:G:<BL2>E:G:CD:F#:<AL1>E:G:<BL2>E:G:CD:F#:<AL1>E:G:<BL2>E:G:CD:F#:<AL1>E:G:<BL2>E:G:CD:F#:<A>E&E8:G&G8:<B&B8R4.>E&E8:G&G8:<B&B8
#NewTrack
#trackName Clarinet
#instrumentName Microsoft GS Wavetable Synth
L1RRRRRRRRRRRRRRRRRRRRRL8DRD.C16DFFGD4D.C16DC<A>CDRD.C16DFGAA4GA16G16FRDRD.D16D.C16CDFGD.D16DCDC<AA>D.D16DCCDFGA4GA16G16L4FDFEDL8CRCD16C16<AGA4R4A>CDRL4GEFE8C8D2FEDCL8CD16C16<AGARA>CDDRDL4FGE2RL8DFG.G.AA4RA>CD<GFARDFG.G.AA4RAA#AGFFRDFG.G.AA4.A>CD<GFARDFL4A#AGFL8GAECDRDFG.G.AA4RA>CD<GFARDFG.G.AA4RAA#AGFFRDFG.G.AA4.A>CD<GFARDFL4A#AGFL8GFA>CD2L1RRRRRRRRL8<D.D16D.C16DFFGDL16RDL8D.C16DC<A>CDRD.C16DFGAA4GA16G16FRDRD.D16D.C16CDFGD.D16DCDCC<A>D.D16DCCDFGA4GA16G16L4FDFEDL8CRCD16C16<AGA4R4A>CDDL4GEFE8C8D2FEDL8CCCD16C16<AGARA>CDDRDL4FGE2RL8DFG.G.AA4RA>CD<GFARDFG.G.AA4RAA#AGFFRDFG.G.AA4.A>CD<GFARDFL4A#AGFL8GAECDRDFG.G.AA4RA>CD<GFARDFG.G.AA4RAA#AGFFRDFG.G.AA4.A>CD<GFARDFL4A#AGFL8GFA>CD2L1RRRRRRRRRRRRRRRRRRRRL4<FEDL8CRCD16C16<AGA4R4A>CDRL4GEFE8C8D2FEDCL8CD16C16<AGARA>CDDRDL4FGE2RL8DFG.G.AA4RA>CD<GFARDFG.G.AA4RAA#AGFFRDFG.G.AA4.A>CD<GFARDFL4A#AGFL8GAGAAREGA.A.BB4RB>DE<AGBREGA.A.BB4RB>C<BAGGREGA.A.BB4.B>DE<AGBREGL4>C<BAGL8AGB>DE2
#NewTrack
#trackName Recorder
#instrumentName Microsoft GS Wavetable Synth
L1RRRRRRRRRRRRRRRRRRRRRRRRRRRRRL4A#AGL8FRFF16G16FDF4R4L2CDFL4GAA#AGL8FRFF16G16FDF4DEFFRFA4A#4A2L1RRRRRRRRRRRRRRRRRRRRRRRRRRRRRRRR.L4A#AGL8FRFF16G16FDF4R4L2CDFL4GAA#AGL8FRFF16G16FDF4DEFFRFA4A#4A2L1RRRRRRRRRRRRRRRRRRRRRRRRRRRRRRRRRRRR.L4A#AGL8FRFF16G16FDF4R4L2CDFL4GAA#AGL8FRFF16G16FDF4DEFFRFA4A#4A2
#NewTrack
#trackName Oboe
#instrumentName Microsoft GS Wavetable Synth
L1RRRRRG8A8L16DCDCG8A8DCDCG8A8DCDCE64F.&F64L32E.:RF.:RE.:RL8DCGAL16DCDCG8A8DCDCG8A8>CRFREFEDL8C<AGAL16DCDCG8A8DCDCG8A8DCDCE64F.&F64L32E.:RF.:RE.:RL8DCDL16CDF8DFA8GA>CF<A>CF8L32E.:RF.:RE.:RL8DCDR<A:>DC:FGAL16DCDCG8A8DCDCG8A8DCDCE64F.&F64L32E.:RF.:RE.:RL8DCGAL16DCDCG8A8DCDCG8A8>CRFREFEDL8C<AGAL16DCDCG8A8DCDCG8A8DCDCE64F.&F64L32E.:RF.:RE.:RD8C8L16GFA>CDC<AGL8<A:>DC:FD:GE:A<A:>DR16<A:>DR16<A:>C<A:>DL1RRRRRRRRRRRRRRRRRRRRRRRRRRRRRRRRR4.G8A8L16DCDCG8A8DCDCG8A8DCDCE64F.&F64L32E.:RF.:RE.:RL8DCGAL16DCDCG8A8DCDCG8A8>CRFREFEDL8C<AGAL16DCDCG8A8DCDCG8A8DCDCE64F.&F64L32E.:RF.:RE.:RD8C8L16GFA>CDC<AGL8<A:>DC:FD:GE:A<A:>DR16<A:>DR16<A:>C<A:>DL1RRRRRRRRRRRRRRRRRRRRRRRRRRRRRRRRRRRRRRRRRRRRRRRRRRRRRRRRRRRRRRRRRRRRRRRRRRRRR4.<A8B8L16EDEDA8B8EDEDA8B8EDEDF#64G.&G64L32F#.:RG.:RF#.:RL8EDABL16EDEDA8B8EDEDA8B8>DRGRF#GF#EL8D<BABL16EDEDA8B8EDEDA8B8EDEDF#64G.&G64L32F#.:RG.:RF#.:RL8EDEL16DEG8EGB8AB>DG<B>DG8L32F#.:RG.:RF#.:RL8EDER<B:>ED:GABL16EDEDA8B8EDEDA8B8EDEDF#64G.&G64L32F#.:RG.:RF#.:RL8EDABL16EDEDA8B8EDEDA8B8>DRGRF#GF#EL8D<BABL16EDEDA8B8EDEDA8B8EDEDF#64G.&G64L32F#.:RG.:RF#.:RE8D8L16AGB>DED<BAL8<B:>ED:GE:AF#:B<B:>ER16<B:>ER16<B:>D<B:>ER4.<B:>ER16<B:>ER16<B:>D<B4:>E4
#NewTrack
#trackName Overdriven Guitar
#instrumentName Microsoft GS Wavetable Synth
L1RRRRRRRRRRRRRRRRRRRRRRRRRRRRRRRRRRRRRRRRRRRRRRRRRRRRRRRRRRRRRRRRRRRRRRRRRRRRRRRRRRRRRRRRRRRRRRRRRRRRRRRR.R4L16A>C#DEAGAFAGAFGFGECD<AGAGAFGFGED4.R8<DEFEFDA8GAGE>FEDFGL8A.>C<AL16GAGAGL8A.<DCGFAG>DCGF>DC<A>CDEFL16D<A#FA#>DFGEC8<G>CEGA8.G8.AGA4.
#NewTrack
#trackName Orchestral Harp
#instrumentName Microsoft GS Wavetable Synth
L1RRRRRRRRRRRRRRRRRRRRRRRRRRRRRRRRRRRRRRRRRRRRRRRRRRRRRRRRRRRRRRRRRRRRRRRRRRRRRRRRRRRRRRRRRRRRRRRRRRRRRRRR.R4L16A>C#DEAGAFAGAFGFGECD<AGAGAFGFGED4.R2.R8FEDFGL8A.>C<AL16GAGAGL8A.R2.DCGF>DC<A>CDEFL16D<A#FA#>DFGEC8<G>CEGA8.G8.AGA4.
#NewTrack
#trackName Track 18
#instrumentName Microsoft GS Wavetable Synth
L1RRRRRRRRRRRRRRRRRRRRRRRRRRRRRRRRRRRRRRRRRRRRRRRRRRRRRRRRRRRRRRRRRRRRRRRRRRRRRRRRRRRRRRRRRRRRRRRRRRRRRRRRRRRL16<DEFEFDA8GAGER1R4L8DCGFAG