#Title 妄想税

#trackName Guitar1
T130L8D#:<A#:>F#RD#:<A#:>F#RC#:<A#:>FC#:<A#:>FRC#:<A#:>FRD#:<B:>F#RD#:<B:>F#C#:<A#:>FR4.D#:<A#:>F#RD#:<A#:>F#RC#:<A#:>FC#:<A#:>FRC#:<A#:>FRD#:<B:>F#RD#:<B:>F#C#:<A#:>FR4.D#:<A#:>F#RD#:<A#:>F#RC#:<A#:>FC#:<A#:>FRC#:<A#:>FRD#:<B:>F#RD#:<B:>F#C#:<A#:>FR4.D#:<A#:>F#RD#:<A#:>F#RC#:<A#:>FC#:<A#:>FRC#:<A#:>FRD#:<B:>F#RD#:<B:>F#C#:<A#:>FR4.D#:<A#:>F#RD#:<A#:>F#RC#:<A#:>FC#:<A#:>FRC#:<A#:>FRD#:<B:>F#RD#:<B:>F#C#:<A#:>FR4.D#:<A#:>F#RD#:<A#:>F#RC#:<A#:>FC#:<A#:>FRC#:<A#:>FRD#:<B:>F#RD#:<B:>F#C#:<A#:>FR4.D#:<A#:>F#RD#:<A#:>F#RC#:<A#:>FC#:<A#:>FRC#:<A#:>FRD#:<B:>F#RD#:<B:>F#C#:<A#:>FR4.D#:<A#:>F#RD#:<A#:>F#RC#:<A#:>FC#:<A#:>FRC#:<A#:>FRD#:<B:>F#RD#:<B:>F#C#:<A#:>FR4.D#:<A#:>F#RD#:<A#:>F#RC#:<A#:>FC#:<A#:>FRC#:<A#:>FRD#:<B:>F#RD#:<B:>F#C#:<A#:>FR4.D#:<A#:>F#RD#:<A#:>F#RC#:<A#:>FC#:<A#:>FRC#:<A#:>FRD#:<B:>F#RD#:<B:>F#C#:<A#:>FR4.<D#:A#RD:ARC#:G#RC:GR1.L4R.E:<A:>AL2D#:<G#:>G#F:<A#:>A#F#:<B:>B>F#:D#:<B:F#:<B:>>BL1F:D:<A#:F:<A#:>>A#L8<F:<A#:>A#R16F:<A#:>A#R16F:<A#:>A#R2L4B.:E.:>E.L8<G:C:>CR2L4<D.:<G.:>G.L8A:D:>DR2L4<B.:E.:>E.L8<G:C:>CR2L4<D.:<G.:>G.L8A:D:>DR2L4<B.:E.:>E.L8<G:C:>CR2L4<D.:<G.:>G.L8A:D:>DR2L4<B.:E.:>E.L8<G:C:>CR2L4<D.:<G.:>G.T134L8A:D:>DL1RRRR.L8D#:<A#:>F#RD#:<A#:>F#RC#:<A#:>FC#:<A#:>FRC#:<A#:>FRD#:<B:>F#RD#:<B:>F#C#:<A#:>FR4.D#:<A#:>F#RD#:<A#:>F#RC#:<A#:>FC#:<A#:>FRC#:<A#:>FRD#:<B:>F#RD#:<B:>F#C#:<A#:>FL1RRRRRRRRR4.L8D#:<A#:>F#RD#:<A#:>F#RC#:<A#:>FC#:<A#:>FRC#:<A#:>FRD#:<B:>F#RD#:<B:>F#C#:<A#:>FR4.D#:<A#:>F#RD#:<A#:>F#RC#:<A#:>FC#:<A#:>FRC#:<A#:>FRD#:<B:>F#RD#:<B:>F#C#:<A#:>FR4.D#:<A#:>F#RD#:<A#:>F#RC#:<A#:>FC#:<A#:>FRC#:<A#:>FRD#:<B:>F#RD#:<B:>F#C#:<A#:>FR4.D#:<A#:>F#RD#:<A#:>F#RC#:<A#:>FC#:<A#:>FRC#:<A#:>FRD#:<B:>F#RD#:<B:>F#C#:<A#:>FR1R1.<D#:<G#:>G#RD#:<G#:>G#RF:<A#:>A#RF:<A#:>A#RF#:<B:>BRF#:<B:>BR>F#:D#:<B:F#:<B:>>BRF#:D#:<B:F#:<B:>>BRF:D:<A#:F:<A#:>>A#RF:D:<A#:F:<A#:>>A#RF:D:<A#:F:<A#:>>A#RF:D:<A#:F:<A#:>>A#<F:<A#:>A#R16F:<A#:>A#R16F:<A#:>A#R2L4B.:E.:>E.L8<G:C:>CR2L4<D.:<G.:>G.L8A:D:>DR2L4<B.:E.:>E.L8<G:C:>CR2L4<D.:<G.:>G.L8A:D:>DR2L4<B.:E.:>E.L8<G:C:>CR2L4<D.:<G.:>G.L8A:D:>DR2L4<B.:E.:>E.L8<G:C:>CR2L4<D.:<G.:>G.L8A:D:>DL1RRRR.L2<B:G:D:<B:>>GRC:<G:E:C:>GRD:<A:D:>GR<B:G:E:>GR<B:G:D:<B:>>GRC:<G:E:C:>GRD:<A:D:>GR<B:G:E:>GR<B:G:D:<B:>>GRC:<G:E:C:>GRD:<A:D:>GR<B:G:E:>GR<B:G:D:<B:>>GRC:<G:E:C:>GRD:<A:D:>GL1RRRRRRR.L8RC:<F:>FR<G#:C#:>C#R<G#:C#:>C#R<G#:C#:>C#R<D#:<G#:>G#RA#:D#:>D#R<A#:D#:>D#R<A#:D#:>D#RC:<F:>FR<G#:C#:>C#R<G#:C#:>C#R<G#:C#:>C#R<D#:<G#:>G#RA#:D#:>D#R<A#:D#:>D#R<A#:D#:>D#RC:<F:>FR<G#:C#:>C#R<G#:C#:>C#R<G#:C#:>C#R<D#:<G#:>G#RA#:D#:>D#R<A#:D#:>D#R<A#:D#:>D#RC:<F:>FR<G#:C#:>C#R<G#:C#:>C#R<G#:C#:>C#R2<A#.:D#.:>D#.<A#.:D#.:>D#.<A#:D#:>D#RL4C:<F:>FL8<G#:C#:>C#R2L4<D#.:<G#.:>G#.L8A#:D#:>D#R2L4C.:<F.:>F.L8<G#:C#:>C#R2L4<D#.:<G#.:>G#.L8A#:D#:>D#R2L4C.:<F.:>F.L8<G#:C#:>C#R2L4<D#.:<G#.:>G#.L8A#:D#:>D#R2L4C.:<F.:>F.L8<G#:C#:>C#R2L4<D#.:<G#.:>G#.L8A#:D#:>D#
#NewTrack
#trackName GUMI
L8D#F#FD#C#.D#16RD#RF#FD#C#16.C#32D#R4D#F#FD#C#.D#16RF#RF#G#F#G#A#16A#16R4D#F#FD#C#.D#16RD#RF#FD#C#16.C#32D#R4D#F#FD#C#.D#16RF#RF#G#F#G#.A#16R4D#4L1RRR.R4L8D#F#FD#C#.D#16RD#RF#FD#C#16.C#32D#R4D#F#FD#C#.D#16RF#RF#G#F#G#A#16A#16R4D#F#FD#C#.D#16RD#RF#FD#C#16.C#32D#R4D#F#FD#C#.D#16RF#RF#G#F#G#A#16A#16R1R4<G#.A#.BL4>C#<BL8A#.>C#.D#4RD#FF#G#16F#16RC#F#G#16F#16RC#F#F#16F#16RF#BA#F#G#G#A#R2.A#R16A#R16A#RGGAB.B.BRAGGG.D.ARGGAB.B.BRAGGG.G16>D<ARGGAB.B.BRAGGG.D.ARGGAB.B.BRAGGG.G16>D<ARBAGL16ERBRARGRG8.G8GGGERBRARGRG8.G8GGGERBRARGRL8F#.GR16F#ER2RBL1RRRRL8RD#F#FD#C#.D#16RD#RF#FD#C#16.C#32D#R4D#F#FD#C#.D#16RF#RF#G#F#G#A#16A#16R4D#F#FD#C#.D#16RD#RF#FD#C#16.C#32D#R4D#F#FD#C#.D#16RF#RF#G#F#G#.A#16R4D#F#FD#C#.D#16RD#RF#FD#C#16.C#32D#R4D#F#FD#C#.D#16RF#RF#G#F#G#A#16A#16R4D#F#FD#C#.D#16RD#RF#FD#C#16.C#32D#R4D#F#FD#C#.D#16RF#RF#G#F#G#A#16A#16R4<G#.A#.BL4>C#<BL8A#.>C#.D#4RD#FF#G#16F#16RC#F#G#16F#16RC#F#F#16F#16RF#BA#F#G#G#A#R2.A#R16A#R16A#RGGAB.B.BRAGGG.D.ARGGAB.B.BRAGGG.G16>D<ARGGAB.B.BRAGGG.D.ARGGAB.B.BRAGGG.G16>D<ARBAGL16ERBRARGRG8.G8GGGERBRARGRG8.G8GGGERBRARGRL8F#.GR16F#ER2.RL4F#F#GDF#F#E8D8DF#F#GDGAB8G8GF#F#GDF#F#L8EDD4RDGRDGRDG4AGR2L4F#F#GDF#F#E8D8DF#F#GDGAB8G8GF#F#GDF#F#L8EDD4RDGRDGRDGR2.R<A.B.>CL4DCL8<B.>D.E4REF#GA16G16RDGA16G16RDGG16G16RG>C<BGAABR1R4.G#G#A#>C.C.C4<A#G#G#G#.D#.A#4G#G#A#>C.C16D#C4<A#G#G#G#.G#16>D#<A#4G#G#A#>C.C.C4<A#G#G#G#.D#.A#4G#G#A#>C.C16D#C4<A#G#G#G#.G#16>D#<A#4G#G#A#>C.C.C4<A#G#G#G#.D#.A#4G#G#A#>C.C16D#C4<A#G#G#G#.G#16>D#<A#4G#G#A#>C.C.C4<A#G#G#G#.D#.A#4G#G#A#>C.C16D#C4<A#G#G#G#.G#16>D#<A#4RG#RL16FR>CR<A#RG#RG#8.G#8G#G#G#FR>CR<A#RG#RG#8.G#8G#G#G#FR>CR<A#RG#RL8G.G#R16GF
#NewTrack
#trackName Bass
L1RRRRRRRR<<D#8R8L16<A#>C#D#L8R.<A#>A#<BRL16>F#G#F#8D#R<A#R>A#R<A#R>C#RD#8R8<A#>C#D#L8R.<A#>A#<BRL16>F#G#F#8D#R2RD#8R8<A#>C#D#L8R.<A#>A#<BRL16>F#G#F#8D#R<A#R>A#R<A#R>C#RD#8R8<A#>C#D#L8R.<A#>A#<BRL16>F#G#F#8D#R<A#R>A#R<A#R>C#RD#8R8<A#>C#D#L8R.<A#>A#<BRL16>F#G#F#8D#R<A#R>A#R<A#R>C#RD#8R8<A#>C#D#L8R.<A#>A#<BRL16>F#G#F#8D#R<A#R>A#R<A#R>C#R1RL8<G#.A#.B>C#4<B4A#.>C#.D#L2R<G#A#BBA#1L8A#R16A#R16A#R2>EL16B>E<EGL8>C<C>C<C>C<G>D<D16A16>D<DAL16>DG8<AE8B>E<EGL8>C<C>C<C>C<G>D<D16A16>D<DAL16BAGF#E8B>E<EGL8>C<C>C<C>C<G>D<D16A16>D<DAL16>DG8<AE8B>E<EGL8>C<C>C<C>C<G>DL16<DA>D8R4<AR8.<AR>AR<BR>BRC8.>CR8ED<DR>DR<D#R>D#R<E8.>ER8F#G<C8L4R.D8R.E16R.R16L8<BR4.>D#RL16<A#>C#D#L8R.<A#>A#<BRL16>F#G#F#8D#R<A#R>A#R<A#R>C#RD#8R8<A#>C#D#L8R.<A#>A#<BRL16>F#G#F#8D#R<A#R>A#R<A#R>C#RD#8R8<A#>C#D#L8R.<A#>A#<BRL16>F#G#F#8D#R<A#R>A#R<A#R>C#RD#8R8<A#>C#D#L8R.<A#>A#<BRL16>F#G#F#8D#R<A#R>A#R<A#R>C#RD#8R8<A#>C#D#L8R.<A#>A#<BRL16>F#G#F#8D#R<A#R>A#R<A#R>C#RD#8R8<A#>C#D#L8R.<A#>A#<BRL16>F#G#F#8D#R<A#R>A#R<A#R>C#RD#8R8<A#>C#D#L8R.<A#>A#<BRL16>F#G#F#8D#R<A#R>A#R<A#R>C#RD#8R8<A#>C#D#L8R.<A#>A#<BRL16>F#G#F#8D#R<A#R>A#R<A#R>C#RD#8R8<A#>C#D#L8R.<A#>A#<BRL16>F#G#F#8D#R<A#R>A#R<A#R>C#RD#8R8<A#>C#D#L8R.<A#>A#<BRL16>F#G#F#8D#R<A#R>A#R<A#R>C#RL8<G#.A#.B>C#4<B4A#.>C#.D#L2R<G#A#BBA#1L8A#R16A#R16A#R2>EL16B>E<EGL8>C<C>C<C>C<G>D<D16A16>D<DAL16>DG8<AE8B>E<EGL8>C<C>C<C>C<G>D<D16A16>D<DAL16BAGF#E8B>E<EGL8>C<C>C<C>C<G>D<D16A16>D<DAL16>DG8<AE8B>E<EGL8>C<C>C<C>C<G>DL16<DA>D8R4<AR8.<AR>AR<BR>BRC8.>CR8ED<DR>DR<D#R>D#R<E8.>ER8F#G<C8L4R.D8R.E16R.R16<B8L1RRRRRRRRR8.R64B16.:R16R64L32B.:RB.:RL1B>CDE2.&E16&E64<B16.:R16R64L32B.:RB.:RL1B>CDL4ED#DC#L8R.<B.>CD4C4<B.>D.ERE>E<EL2<AB>C>C4L8RD16C16<B.<B.>BR2<BR16BR16BL1RRRR.>F8L16>CF<FG#L8>C#<C#>C#<C#>C#<G#>D#<D#16A#16>D#<D#A#L16>D#G#8<A#F8>CF<FG#L8>C#<C#>C#<C#>C#<G#R4.D#2RL16F>F<FG#L8>C#<C#>C#<C#>C#<G#>D#<D#16A#16>D#<D#A#L16>D#G#8<A#F8>CF<FG#L8>C#<C#>C#<C#>C#<G#>D#L16<D#A#>D#8R4C<A#G#GF8>CF<FG#L8>C#<C#>C#<C#>C#<G#>D#<D#16A#16>D#<D#A#L16>D#G#8<A#F8>CF<FG#L8>C#<C#>C#<C#>C#<G#>D#L16<D#A#>D#8R4<A#R8.<A#R>A#RCR>CR<C#8.>C#R8FD#<D#R>D#R<ER>ER<F8.>FR8GG#<C#8R4.D#8R4.F
#NewTrack
#trackName é³è½¨ 5
L1RRRRRRRR>D#8L16F#RFRD#RL8C#.D#16RD#RL16F#RFRD#RC#8D#RC#8D#RD#8F#RFRD#RL8C#.D#16RD#RL16F#RFRD#RC#8D#RC#8D#L1RRRR4.L16RD#RC#8D#RC#8D#L1RRRRRRRRRRRRRRRRRRRRRRRL16RD#8F#RFRD#RL8C#.D#16RD#RL16F#RFRD#RC#8D#RC#8D#RD#8F#RFRD#RL8C#.D#16RD#RL16F#RFRD#RC#8D#RC#8D#L1RRRRL16RD#8F#RFRD#RC#8.D#R1R4D#8F#RFRD#RC#8.D#R1R4D#8F#RFRD#RC#8.D#R1R4D#8F#RFRD#RC#8.D#
#NewTrack
#trackName é³è½¨ 6
L1RRRRRRRRRR8L16A#R8.G#RF#RFRF#RFRD#8L1RRRRR.R4C#8L16D#RF#RFRC#RL8D#.L16C#R8C#8D#RF#FRD#C#RL8D#.L16C#R8C#8D#RF#FRD#C#RL8D#.F16RC#L4R.G#:>C#L16<A#:>DRL8<A#:>D#R<D#RFRF#RG#R1.R4>D#>D#<D#<G#G#>G#G#<A#A#>A#A#<BB>BBC#C#>C#C#<<A#A#>A#A#<A#A#>A#A#<F#R16G#R16A#L1RRRRRRRRRRRRR.R8L16A#R8.G#RF#RFRF#RFRD#8L1RRRRRRRRRRRRRRRRRRR.L8>D#>D#<D#D#D#G#G#<A#A#>A#A#<BB>BBC#C#>C#C#<<A#A#>A#A#<A#A#>A#A#<F#R16G#R16A#L1RRRRRRRRRRRR.L4GDAGD2R2GDAGD2R2GDAGD2R2GDAGD2L8RDGDL4>G<DAGDDAGGDAGDDAGGDAGDDAGGDAGR1R1.L8R>E>E<E<AA>AA<BB>BBCC>CC<DD>DD<<BB>BB<BB>BBL1RRRRRL2FD#FD#FD#F8R4.D#FD#FD#FD#FD#FD#FD#FD#R1L8<A#R>CRC#R4.D#RERFR4.C#
#NewTrack
#trackName é³è½¨ 7
L1RRRRRRRRRRRRL8D#F#FD#C#.D#16RD#RF#FD#C#16.C#32D#R4D#F#FD#C#.D#16RF#RF#G#F#G#A#16A#16R4D#F#FD#C#.D#16RD#RF#FD#C#16.C#32D#R4D#F#FD#C#.D#16RF#RF#G#F#G#A#16A#16R1R4D#.F.F#L4G#F#L8F.G#.A#4RD#FL1RRR.L8REEF#G.G.G4F#EED.<A.>D4EEF#G.G.G4F#EED.G.F#4EEF#G.G.G4F#EED.<A.>D4E4EE.F#.G4F#EED.G.F#4R4.L16ERBRARGRG8.G8GGGERBRARGRG8.G8GGGERBRARGRL8F#.GR16F#ER2RF#L1RRRRRRRRRRRRL8RD#F#FD#C#.D#16RD#RF#FD#C#16.C#32D#R4D#F#FD#C#.D#16RF#RF#G#F#G#A#16A#16R4D#F#FD#C#.D#16RD#RF#FD#C#16.C#32D#R4D#F#FD#C#.D#16RF#RF#G#F#G#A#16A#16R4D#.F.F#L4G#F#L8F.G#.A#4RD#FL1RRR.L8REEF#G.G.G4F#EED.<A.>D4EEF#G.G.G4F#EED.G.F#4EEF#G.G.G4F#EED.<A.>D4E4EE.F#.G4F#EED.G.F#4R4.L16ERBRARGRG8.G8GGGERBRARGRG8.G8GGGERBRARGRL8F#.GR16F#EL1RRRRRRRRRRRRRRRR.R4.L8E.F#.GL4AGL8F#.A.B4REF#L1RRRRRRRRRRR.L8RFFGG#.G#.G#4GFFD#.<A#.>D#4FFGG#.G#.G#4GFFD#.G#.G4FFGG#.G#.G#4GFFD#.<A#.>D#4FFGG#.G#.G#4GFFD#.G#.R2RL16FR>CR<A#RG#RG#8.G#8G#G#G#FR>CR<A#RG#RG#8.G#8G#G#G#FR>CR<A#RG#RL8G.G#R16GF
#NewTrack
#trackName Drumkit
L16O1B:>F#F#F#F#<B:>F#F#F#F#<B:>F#F#F#F#<B:>F#F#F#F#<B:>F#F#F#F#<B:>F#F#F#F#<B:>F#F#F#F#<B:>F#F#F#F#<B:>F#F#F#F#<B:>F#F#F#F#<B:>F#F#F#F#<B:>F#F#F#F#<B:>F#F#F#F#<B:>F#F#F#F#<B:>F#F#F#F#<B:>F#F#F#F#<B:>F#F#F#F#<B:>F#F#F#F#<B:>F#F#F#F#<B:>F#F#F#F#<B:>F#F#F#F#<B:>F#F#F#F#<B:>F#F#F#F#<B:>F#F#F#F#<B:>F#F#F#F#<B:>F#F#F#F#<B:>F#F#F#F#<B:>F#F#F#F#<B:>F#F#F#F#<B:>F#F#F#F#L64>C#C#C#C#C#C#C#C#C#C#C#C#C#C#C#C#<F:<B:>>C#L8R.R32.<<B:>F#F#D:F#F#<B:>F#F#D:F#F#<B:>F#F#D:F#F#<B:>F#F#D:F#F#<B:>F#F#D:F#F#<B:>F#F#D:F#F#<BL16>AAD8GGF2L8<B:>>C#<F#D:F#F#<B:>F#F#D:F#F#<B:>F#F#D:F#F#<B:>F#F#D:F#F#<B:>F#F#D:F#F#<B:>F#F#D:F#F#<B:>F#F#D:F#F#<B:>F#F#D:F#F#<B:>>C#<F#D:F#F#<B:>F#F#D:F#F#<B:>F#F#D:F#F#<B:>F#F#D:F#F#<B:>F#F#D:F#F#<B:>F#F#D:F#F#<B:>F#F#D:F#F#<B:>F#F#D:F#F#<BRB:>DR<B>D16D16<B>D<B.B.B16B16>D.<B.BB.B.B16B16>D.<B.BL16B:>F#F#F#F#D:F#F#F#F#<B:>F#F#F#F#D:F#F#F#F#<B:>F#F#F#F#D:F#F#F#F#<B:>F#F#F#F#D:F#F#F#F#<B:>F#F#F#F#D:F#F#F#F#<B:>F#F#F#F#L8D:F#D16D16<B.:>D.<B.:>D.<B:>DL64>C#C#C#C#C#C#C#C#C#C#C#C#C#C#C#C#C#C#C#C#C#C#C#C#C#C#C#C#C#C#C#C#L16<<B:>F#<B:>F#D:F#<B:>F#<B:>F#<B:>F#D:F#<B:>F#<B:>F#<B:>F#D:F#<B:>F#<B:>F#<B:>F#D:F#<B:>F#<B:>F#<B:>F#D:F#<B:>F#<B:>F#<B:>F#D:F#<B:>F#<B:>F#<B:>F#D:F#<B:>F#<B:>F#<B:>F#D:F#<B:>F#<B:>F#<B:>F#D:F#<B:>F#<B:>F#<B:>F#D:F#<B:>F#<B:>F#<B:>F#D:F#<B:>F#<B:>F#<B:>F#D:F#<B:>F#<B:>F#<B:>F#D:F#<B:>F#<B:>F#<B:>F#D:F#<B:>F#<B:>F#<B:>F#D:F#<B:>F#<B:>D<B:>D<B:>D<B:>D<B:>>C#<<B:>F#D:F#<B:>F#<B:>F#<B:>F#D:F#<B:>F#<B:>F#<B:>F#D:F#<B:>F#<B:>F#<B:>F#D:F#<B:>F#<B:>F#<B:>F#D:F#<B:>F#<B:>F#<B:>F#D:F#<B:>F#<B:>F#<B:>F#D:F#<B:>F#<B:>F#<B:>F#D:F#<B:>F#<B:>F#<B:>F#D:F#<B:>F#<B:>F#<B:>F#D:F#<B:>F#<B:>F#<B:>F#D:F#<B:>F#<B:>F#<B:>F#D:F#<B:>F#<B:>F#<B:>F#D:F#<B:>F#<B:>F#<B:>F#D:F#<B:>F#<B8:>F#8DDD:<B:>A#F#8.<B:>F#F#F#F#D:<B:>F#F#F#F#<B:>F#F#F#F#D:<B:>F#F#F#F#<B:>F#F#F#F#D:<B:>F#F#F#F#<B:>F#F#F#F#D:<B:>F#F#F#F#<B:>F#F#F#F#D:<B:>F#F#F#F#<B:>F#F#F#F#D:<B:>F#F#F#F#D1:<B1L8B:>>C#<F#DF#<B>F#DF#<B>F#DF#<B>F#DF#<B>F#DF#<B>F#DF#<BL16>AAD8GGF2L4<BBBBBBBBBBBBBBBBBBBBBBBBBBBBBBBL8BB16B16B:>>C#<F#D:F#F#<B:>F#F#D:F#F#<B:>F#F#D:F#F#<B:>F#F#D:F#F#<B:>F#F#D:F#F#<B:>F#F#D:F#F#<B:>F#F#D:F#F#<B:>F#F#D:F#F#<B:>>C#<F#D:F#F#<B:>F#F#D:F#F#<B:>F#F#D:F#F#<B:>F#F#D:F#F#<B:>F#F#D:F#F#<B:>F#F#D:F#F#<B:>F#F#D:F#F#<BB:>D<B>D16D16<B.:>>C#.<<B.B16B16>D.<B.BB.B.B16B16>D.<B.BL16B:>F#F#F#F#D:F#F#F#F#<B:>F#F#F#F#D:F#F#F#F#<B:>F#F#F#F#D:F#F#F#F#<B:>F#F#F#F#D:F#F#F#F#<B:>F#F#F#F#D:F#F#F#F#<B:>F#F#F#F#L8D:F#D16D16<B.:>D.<B.:>D.<B:>DL64>C#C#C#C#C#C#C#C#C#C#C#C#C#C#C#C#C#C#C#C#C#C#C#C#C#C#C#C#C#C#C#C#L16<<B:>F#<B:>F#D:F#<B:>F#<B:>F#<B:>F#D:F#<B:>F#<B:>F#<B:>F#D:F#<B:>F#<B:>F#<B:>F#D:F#<B:>F#<B:>F#<B:>F#D:F#<B:>F#<B:>F#<B:>F#D:F#<B:>F#<B:>F#<B:>F#D:F#<B:>F#<B:>F#<B:>F#D:F#<B:>F#<B:>F#<B:>F#D:F#<B:>F#<B:>F#<B:>F#D:F#<B:>F#<B:>F#<B:>F#D:F#<B:>F#<B:>F#<B:>F#D:F#<B:>F#<B:>F#<B:>F#D:F#<B:>F#<B:>F#<B:>F#D:F#<B:>F#<B:>F#<B:>F#D:F#<B:>F#<B:>D<B:>D<B:>D<B:>D<B:>>C#<<B:>F#D:F#<B:>F#<B:>F#<B:>F#D:F#<B:>F#<B:>F#<B:>F#D:F#<B:>F#<B:>F#<B:>F#D:F#<B:>F#<B:>F#<B:>F#D:F#<B:>F#<B:>F#<B:>F#D:F#<B:>F#<B:>F#<B:>F#D:F#<B:>F#<B:>F#<B:>F#D:F#<B:>F#<B:>F#<B:>F#D:F#<B:>F#<B:>F#<B:>F#D:F#<B:>F#<B:>F#<B:>F#D:F#<B:>F#<B:>F#<B:>F#D:F#<B:>F#<B:>F#<B:>F#D:F#<B:>F#<B:>F#<B:>F#D:F#<B:>F#<B8:>F#8DDD:<B:>A#F#8.<B:>F#F#F#F#D:<B:>F#F#F#F#<B:>F#F#F#F#D:<B:>F#F#F#F#<B:>F#F#F#F#D:<B:>F#F#F#F#<B:>F#F#F#F#D:<B:>F#F#F#F#<B:>F#F#F#F#D:<B:>F#F#F#F#<B:>F#F#F#F#D:<B:>F#F#F#F#D1:<B1>D.:<B.:>>C#.R<D.:RR64D.:RR64D.:RR64D.:RR64D.RD.:RR64D.:RR64D.:RR64D.:RR64D.RD.:RR64D.:RR64D.:RR64D.:RR64D.:RR64D.:RR64D.:RR64D.:RR64D.:RR64D.:RR64D.RD.:RR64D.:RR64D.:RR64D.:RR64D.RD.:RR64D.:RR64D.:RR64D.:RR64D.RD.:RR64D.:RR64D.:RR64D.:RR64D.:RR64D.:RR64D.:RR64D.:RR64D.:RR64D.:RR64D.RD.:RR64D.:RR64D.:RR64D.:RR64D.RD.:RR64D.:RR64D.:RR64D.:RR64D.RD.:RR64D.:RR64D.:RR64D.:RR64D.:RR64D.:RR64D.:RR64D.:RR64D.:RR64D.:RR64D.RD.:RR64D.:RR64D.:RR64D.:RR64D.:RR64D.:RR64D.:RR64D.:RR64D.:RR64D.:RR64D.RD.:RR64D.:RR64D.:RR64D.:RR64D.:RR64D.:RR64D.:RR64D.:RR64D.:RR64L32F.:RF.:RL16D.:<B.:>>C#.R<D.:RR64A#.:D.:<B.:RR64>D.:RR64D.:RR64<B.:>D.RD.:RR64A#.:D.:<B.:RR64>D.:RR64D.:RR64<B.:>D.RD.:RR64A#.:D.:<B.:RR64>D.:RR64D.:RR64D.:<B.:RR64>D.:RR64D.:RR64A#.:D.:<B.:RR64>D.:RR64D.:RR64<B.:>D.RD.:RR64A#.:D.:<B.:RR64>D.:RR64D.:RR64<B.:>D.RD.:RR64A#.:D.:<B.:RR64>D.:RR64D.:RR64<B.:>D.RD.:RR64A#.:D.:<B.:RR64>D.:RR64D.:RR64D.:<B.:RR64>D.:RR64D.:RR64A#.:D.:<B.:RR64>D.:RR64L32F.:RF.:RL16D.:<B.:>>C#.R<D.:RR64A#.:D.:<B.:RR64>D.:RR64D.:RR64<B.:>D.RD.:RR64A#.:D.:<B.:RR64>D.:RR64D.:RR64<B.:>D.RD.:RR64A#.:D.:<B.:RR64>D.:RR64D.:RR64D.:<B.:RR64>D.:RR64D.:RR64A#.:D.:<B.:RR64>D.:RR64D.:RR64<B.:>D.RD.:RR64A#.:D.:<B.:RR64>D.:RR64D.:RR64<B.:>D.RD.:RR64A#.:D.:<B.:RR64>D.:RL64RD16.:R16R>C#C#C#C#C#C#C#C#C#C#C#C#C#C#C#C#C#C#C#C#C#C#C#C#C#C#C#C#C#C#C#C#C#C#C#C#C#C#C#C#C#C#C#C#C#C#C#C#C#C#C#C#C#C#C#C#<D:>C#C#C#C#<D:>C#C#C#C#L8R.<<B.:>>C#.<<B16B16>D.<B.BB.B.B16B16>D.<B.BL16B:>F#F#F#F#D:F#F#F#F#<B:>F#F#F#F#D:F#F#F#F#<B:>F#F#F#F#D:F#F#F#F#<B:>F#F#F#F#D:F#F#F#F#<B:>F#F#F#F#D:F#F#F#F#<B:>F#F#F#F#L8D:F#D16D16<B.:>D.<B.:>D.<B:>DR2L16<B:>F#F#F#F#<B:>F#F#F#F#<B:>F#F#F#F#<B:>F#F#F#F#<B:>F#F#F#F#<B:>F#F#F#F#<B:>F#F#F#F#<B:>F#F#F#F#<B:>F#F#F#F#<B:>F#F#F#F#<B:>F#F#F#F#<B:>F#F#F#F#<B:>F#F#F#F#<B:>F#F#F#F#<B:>F#F#F#F#<B:>F#F#F#F#<B:>F#F#F#F#D:<B:>F#F#F#F#<B:>F#F#F#F#D:<B:>F#F#F#F#<B:>F#F#F#F#D:<B:>F#F#F#F#<B:>F#F#F#F#D:<B:>F#F#F#F#<B:>F#F#F#F#D:<B:>F#F#F#F#<B:>F#F#F#F#D:<B:>F#F#F#F#FR4.RL64D:>C#C#C#C#<<B:>>C#C#C#C#<<B:>>C#C#C#C#<D:>C#C#C#C#<<B:>>C#C#C#C#<<B:>>C#C#C#C#<D:>C#C#C#C#<D:>C#C#C#C#C#8R8L16C#:<D:<B:>>A<<B:>F#D:F#<B:>F#<B:>F#<B:>F#D:F#<B:>F#<B:>F#<B:>F#D:F#<B:>F#<B:>F#<B:>F#D:F#<B:>F#<B:>F#<B:>F#D:F#<B:>F#<B:>F#<B:>F#D:F#<B:>F#<B:>F#<B:>F#D:F#<B:>F#<B:>F#<B:>F#D:F#<B:>F#<B:>F#<B:>F#D:F#<B:>F#<B:>F#<B:>F#D:F#<B:>F#<B:>F#<B:>F#D:F#<B:>F#<B:>F#<B:>F#D:F#<B:>F#<B:>F#<B:>F#D:F#<B:>F#<B:>F#<B:>F#D:F#<B:>F#<B:>D<B:>D<B:>D<B:>D<B:>>C#<<B:>F#D:F#<B:>F#<B:>F#<B:>F#D:F#<B:>F#<B:>F#<B:>F#D:F#<B:>F#<B:>F#<B:>F#D:F#<B:>F#<B:>F#<B:>F#D:F#<B:>F#<B:>F#<B:>F#D:F#<B:>F#<B:>F#<B:>F#D:F#<B:>F#<B:>F#<B:>F#D:F#<B:>F#<B:>F#<B:>F#D:F#<B:>F#<B:>F#<B:>F#D:F#<B:>F#<B:>F#<B:>F#D:F#<B:>F#<B:>F#<B:>F#D:F#<B:>F#<B:>F#<B:>F#D:F#<B:>F#<B:>F#<B:>F#D:F#<B:>F#<B8:>F#8DDD:<B:>A#F#8.<B:>F#F#F#F#D:<B:>F#F#F#F#<B:>F#F#F#F#D:<B:>F#F#F#F#<B:>F#F#F#F#D:<B:>F#F#F#F#<B:>F#F#F#F#D:<B:>F#F#F#F#<B:>F#F#F#F#D:<B:>F#F#F#F#<B:>F#F#F#F#D:<B:>F#F#F#F#D1:<B1