#Title 江南-多轨
L1<<G&G&G32:RR64F&F&F.&F4.&F16.&F64:>G#&G#&G#.&G#4.&G#16.&G#64:F&F&F&F:>F&F&F&F:R<<A#&A#:L4O5F.D#.<A#>C1:R2.L16<D#CGF1&F:R<<G2.:R4L32>C#C#C#C#C#C#C#C#C#C#C#C#C#C#C#C#C#C#C#C#C#C#C#C#<<F2:L1>F:>G#:>C:O1B32:>F#16:>C#32:O6F16:<<F8C8:L32>>C#.:F16:RC#C#L16O2F#:O6C#32:F:<<F8>>C#:F:<<G8<<D32:<E32:>F#:O6F:<<G#8>D#8:O1B32:O6C#:F:O2F#F#F#:O6F:<C8<G#8:O1B32:>F#:O6C#:F:O2C8C#2:L1>C#:F:>C#:O1B32:L16>F#:O6F:<<F8>A#:>F:O3G#8<F#:O5A#:>F:<<C#8>A#:>F:<<D#8F4:<<D32:<E32:O5A#:>F:O2F#8O5A#:>F:O2F#RO5C4:>F:O2A#RO6F:O2F8D#2:L1>A#:G:<D#:<B32:L16>F#:O6D#:<<D#8>>D#:L8O3A#<F#16:O6D#16:<<D#F:O1B32:L16O6D#:<<A#A#G4:<<D32:<E32:O6D#:O2F#R>>A#:>>D#:O2F#R>>G#4:>>D#:O2F#R<B32:O6D#:O2F#R<F2:L1>F:>>C:<G#:<<B32:L16>F#:O6F:<<F8>A#:>F:<<C8<<F#:O5A#:>F:<<F8>A#:>F:<<G8<<D32:<E32:>F#:O5A#:>F:L8<<G#>C:D#:O1B32:>F#16:O6F16:O3G#>A#:>C#:O2A#16:O6F16:O3G>G#:>C:O1B32:O5A#16:>F16:O3FF2:L1G#:<F:>>C:O1B32:>F#16:O6F16:<<F8C8:L32>>C#.:F16:RC#C#L16O2F#:O6C#32:F:<<F8>>C#:F:<<G8<<F2:D32:<E32:>F#:O6F:<<G#8>D#8:O1B32:O6C#:F:O2F#F#F#:O6F:<C8O1B32:>F#:O6C#:F:<<G#8<<C#2:L1>C#:F:>C#:O1B32:L16>F#:O6F:<F4.:<F8>A#:>F:O3G#8<F#:O5A#:>F:<<C#8D#8:>A#:>F:L32<G.:RF.:RD#.:R<F4:<<D:<E:L16O5A#:>F:<F8:O2F#8O5A#:>F:<G2.:O2F#RO5C4:>F:O2A#RO6F:O2F8D#2:L1>D#:A#:<D#:>G:<<B32:L16>F#:O6D#:<<D#8>>D#:L8O3A#L16<F#:O6D#:<<D#8F8:A#:>>D#:L32<D#.:RF.:L64R<A#16:RL32>D#.:R64<E64<<D:<E:>F#16:O6D#16:<C1.:<G8G#4:O1B:L16O4A#:>>D#:O2F#RO6D#:O2F#RL32>>G.:<<F#16:O6D#16:O1BO4F.:RD#.:R64E64L1<<F:>>D#4:<<F:>F:G#:>C:O1B32:L16O6F:O2F#RO6F:<A#RO2F#:O5A#:>F:O3F8G8:O6F:<A#L32R<E64<G#8:<D:<E:L16>F#:O5A#:>F:O3F8A#8:<<B32:>F#:O6F:L8O3G>C:<<A#16:O6F16:O3G#G#:>C:>>F16:<A#16R32<E64<<F1:<B32:>F#16R16>C2.&C:L32O6C#.:RC#C#:R64<<E64F8:<F8:O6C#:O2F#16R>>E64G8:<G8:O6C#16R<<E64G#8:<G#4:<C#:F#16R>>E64>D#8:>C#16R<<E64>C8:<C4:<<F#16R>>E64G#4:O1B:L16O6C#RO2C#1:<B32:>F#R32>>E64F2&F8:<<G#2.&G#8:L8RF#16:>C#D#F4:<C#32:L16F#RF#R>>C4:<<A#8R.>>E64<<D#1:<B32:>F#:>>GR32E64<<A#2.&A#8:>>GR32E64G8:<D#8:<F#R32>>E64G#8:<F8:R.>E64G4:<G4:<C#32:F#RO5A#R32<E64D#8:<G#4:<<B32:>F#R32>>E64F2&F8:<<F#RF1:<B32:>F#R>C2.&C8:L8R<F#16:>FGG#:<C#32:F#16:>FA#:<<B32:L16>F#:O5A#:L8<<G>C:<<A#16:>G#>C:O1B32:>>G#<F1:<B32:>F#16R32>>E64F16:<C2.&C:L32O6C#.:RC#C#:R64<<E64F8:<F8:O6C#:O2F#16R>>E64G8:<G8:O6C#16R<<E64G#8:<G#4:<C#:F#16R>>E64>D#8:>C#16R<<E64>C8:<C4:<<F#16R>>E64G#4:O1B:L16O6C#RO2C#1:<B32:>F#R32>>E64F2&F8:<<G#2.&G#8:L8RF#16:>C#D#F4:<C#32:L16F#RF#R>>C4:<<A#8R.>>E64<<D#1:<B32:>F#:>>GR32E64<<A#2.&A#8:>>GR32E64G8:<D#8:<F#R32>>E64L8G#:<F:R16.>E64A#:<G4:<C#32:F#16R32>>E64G#:>A#16R32<E64G:<G#4:<<B32:>F#16R32>>E64D#4:L16<<F#RF1:<B32:>F#R32>>E64F2&F8:<C2.&C8:L8R<F#16:>FG<C#32:F#16:>G#>D#:O1B32:L16>F#:O5A#:L8<CC#:<<A#16:>A#G#:<<B32:O4C<<F1:<B32:>F#16R16>C2.&C:L32O6C#.:RC#C#:R64<<E64F8:<F8:O6C#:O2F#16R>>E64G8:<G8:O6C#16R<<E64G#8:<G#4:<C#:F#16R>>E64>D#8:>C#16R<<E64>C8:<C4:<<F#16R>>E64G#4:O1B:L16O6C#RO2C#1:<B32:>F#R32>>E64F2&F8:<<G#2.&G#8:L8RF#16:>C#D#F4:<C#32:L16F#RF#R>>C4:<<A#8R.>>E64<<D#1:<B32:>F#:>>GR32E64<<A#2.&A#8:>>GR32E64G8:<D#8:<F#R32>>E64L8G#:<F:R16.>E64G.:<G4:<C#32:F#O5A#16<F16:R32E64D#4:<G#4:<<B32:>F#F#16R32>>E64<<F1:<B32:>F#16:>>FG#:<C2.&C:R32>E64R32.E64F2:<<F#16:>FGG#:<C#32:F#16:>FA#:<<B32:L16>F#:O5A#:L8<<G>C:<<A#16:>G#>C:O1B32:>>G#<F1:<B32:>F#16R16>C2.&C:L32O6C#.:RC#C#:R64<<E64F8:<F8:O6C#:O2F#16R>>E64G8:<G8:O6C#16R<<E64G#8:<G#4:<C#:F#16R>>E64>D#8:>C#16R<<E64>C8:<C4:<<F#16R>>E64G#4:O1B:L16O6C#RO2C#1:<B32:>F#R32>>E64F2&F8:<<G#2.&G#8:L8RF#16:>C#D#F4:<C#32:L16F#RF#R>>C4:<<A#8R.>>E64<<D#1:<B32:>F#:>>GR32E64<<A#2.&A#8:>>GR32E64G8:<D#8:<F#R32>>E64L8G#:<F:R16.>E64A#:<G4:<C#32:F#16R32>>E64G#:>A#16R32<E64G:<G#4:<<B32:>F#16R32>>E64D#4:L16<<F#RF1:<B32:>F#R32>>E64F2&F8:<C2.&C8:L8R<F#16:>FG<C#32:L16F#:>G#8<<B32:>F#:O5A#:<C8<G#8:<A#:L32R>C#C#C#G8:C#:<<B>>C#C#C#<C#2:L1C#:C#:>C#:G#:F:>C:O1B32:L16>>C#:<F#RG#2.&G#8:L32O6C#.:RC#C#:R64<<E64<C#8:L16F:G#:<F#:O6C#32:<C:<G#:>CR32<E64<D#8:O6C#:<C:<G#:>CR32<E64<F4:<C#32:F#:O5C:<G#:>CR32<E64<F:G#:O6C#:<C:<G#:>CR32<E64C4:<<F#:O5C:<G#:>CR32<E64L8<<C#:<B32:O6C#16:<C:<G#:>CO2D#2:L1D#:>>C8:<<D#:>D#:A#:G:>D#:O1B32:>F#16R32>>E64<<A#8:L16>>G:A#:>CR32<E64<D#8:D#:G:<F#:>>A#:G:>CR32<E64<G4:>A#:G:>CR32<E64<<A#2:C#32:F#:>>A#:G:>CR32<E64<D#4.:D#:G:<F#:>>G:A#:>CR32<E64L8<<D#:>>C4:<<A#16:>>G:A#:>C16R32<E64<<C#:O5C16R32<E64>C32.:O2C2:L1C:>>C8:<C:>E:<G:A#:<F#16:L32<BO5C#.:RC.:RO2G4.:>>A#16>C4:R<E64L16<E:G:<F#:L8>CE:R16.>E64>C#.:<<A#2:<C#32:L16F#RG4.:>E:G:>>A#:R32<E64>C8.:R<C4:O1B32:>F#R32>>E64G#8:R.E64A#4:<<F2:L1F:>F:<F:>>C:F:<G#:<<B32:>F#16:L8>FC:L16R.>E64<G8:G#:F:<F#:>>G#R32E64G#4&G#:<C8G#2:<C#32:F#RF4:>C4.:G#:<<B32:>F#:O5A#:<<FR32>E64C4:<<A#:>>G#R32E64G#8:<<C8:<B32RO4E64>D#4:O1A#2:L1>A#:A#:>G#:>C#:F:O1B32:>F#16:>G#8C#8:L32O6C#.:RC#C#:R64<<E64<F4:L16G#:F:<F#:O6C#32:<<G#R32E64G#4:<G#2&G#8:O6C#RO3C#2:<C#32:F#R>F4.:F:O6C#:O3G#R32>E64G#8:O1A#8:O4D#4:<<F#R32>>E64F8:<<C8:<B32:O6C#R32<<E64>D#4:O2C#2:C#4:L1>C#:G#:>F:C#:O1B32:>F#16:L8>G#<G#:L16R.>>E64<F8:F:G#:<F#:>>G#R32E64G#4:<G#2&G#8:R8C#2:<C#32:F#R>F4.:F:<F#:>G#R32>E64D#4:<<A#:O5F8O2D#:O5D#O2F:R32>>E64>D#1.&D#8:O2D#2.&D#8:L1D#.:>A#.:D#.&D#64:G#.&G#64:>C#.&C#64:D#.&D#64:O1B32:>F#16:L4D#>G#:D#:L16F:G#:<F#8R.>>E64<<C#32:F#:D#8>D#4.:F:G#:>>A#:<<A#8G#4:<<B32:>F#RF#:A#>C<D#1:L8>>D#:<A#:<<B32:>F#16:>FD#<A#2.:L16>D#:G:<F#:L8>C<A#2&A#:>D#2&D#:<<B32R16.L2>>G:A#:<D#64:>A#32:G:<<B32:L16>>G:<F#R>G:<D32:<E32:>F#:O5A#:<<D#L32R>E64G#8:O1B:>>C#:L64RL32C#:L64RL32C#:L64RL32C#:L64RC#32:RC#32:>EA#8:L32<C#:L64RL32C#:R64C#:R64<<B:>>C#:L64RC#32:RC#32:>E>C8:L2O1G#.:O4C8:<G#4:>C:<G#:L1G#:<G#:>>C:>G#:L32O1B:>>C#:>G#16:>C16R<E64>C#8:O2G#8:O6C#.:<C16:<G#16:R>>C#C#:R64<<E64>C8:<<D#8:L16G#:<F#:O6C#32:<<G#:>C:<<D#R32>E64>C#8:O2G#2&G#8:O5C:<G#:>>C#R32<<E64>D#8:<<D#8:<D32:<E32:O5C:<G#:<<F#R32>>E64>C#8:L4<<G#:>C:<G#:>C:L16<G#:<<B32:>F#:O6C#:<<G#:>C:<<D#<F#:R32>>E64>C8:O2C8:O5C:<G#:<<F#R32>>E64G#4:<G#8:>C8:O1B32:>F#:O6C#:<<G#:>C:O2F8D#2.&D#:D#1:>A#4:G8:A#2:G2:L1<D#:>A#:G:>D#:>G:O1B32:O4A#2.:G2.:<<F#16R32>>E64A#4.:L16>A#:O2A#8>D#:G:<F#:O5A#:<<G8>>A#:<<A#8<A#2:L32D:<E:O5A#16:O2F#16R>>E64>C#8:<G8:<A#4:G4:L16G:<F#:O5A#:<<D#R32>E64>C8:<G#8:<<A#R32>>E64L8A#:<<D#:>>G:R16.E64G#:<<F2.&F:L2F.:>G#8:>F8:<G#:F:L1<F:>>F:<G#:>>F:O1B32:L16O4F:G#:<<F#R32>>E64G8:<C8:>G#:FR32E64G#8:<G#8:G#:<F#:>>F:G#:<FR32>E64A#8:C8:O1B32:O4F:G#:A#A#:R32E64>C8:<<C8:<D32:<E32:O4F:G#:<<F#R32>>E64L8A#:<G#:F.:G#.:L16G#:<F#:>>A#:F:G#:<FR32>E64G#8:C8:F:G#:<<F#R32>>E64A#4:<G#8:<<B32:>F#:>>F:G#:O1A#8>C2.:>A#4:G8:L1<C:>G2:>C2:D#:<C:G:>>C:O1B32:O4G2.:D#2.:<<F#16R32>>E64G4.:L16>A#:O2G8>D#:G:<F#:O5A#:<<G8>>A#:<<A#8<G2:D32:<E32:O5A#:O2F#R>>C8:<G4:A#4:G:<<B32:>F#:>D#R32>E64G#8:<C4:>G#4:<<A#R32>>E64D#8:D#8:O1B32:O5A#R32<E64F4:L2<<C#&C#8:C#.:>>F8:<G#:>C#:L1<C#:>F:<G#:<<B32:>>A16:>F4:<G#8<G#8:L32O6C#.:RC#C#:R64<<E64<G#8:L16F:C#:<F#:O6C#32:<C#:FR32<E64L4>F.:<C#:>C#.:L16>C#RO2D32:<E32:>F#RF8:G#8:>>C#4:<G#4:F:<<B32:>F#:O6C#:O3C#<F#D#8:>>F8:<<F#R32>>E64<<C#8:>G#8:<<B32:>F#:O6C#:<<D#:G#R32E64G#4:L2<<C.:C1:>>D#8:C:<G#:L1C:>D#:<G#:<<B32:>F#16:>>D#4:<G#8<G#8:O5A#16R32<E64<G#8:L16D#:G#:<F#:O5A#:C:D#R32<E64>D#4.:A#:C4.:<C8<<D32:<E32:O5A#:O2F#RG#4.:>>C8.:<G#8.:G#:<F#:O5A#:<<D#RD#4:<A#R32>>E64L8G#:<<C:>>C:R16.E64>C#:O1A#2.:>>F:>C#:<<A#:>F2:G#2:L1<A#:>>C#:<G#:<<B32:>F#16R32>>E64L8>C:<<F:R16.>E64>C#:<<G#:L16G#:<F#:>FR32>E64>C8:O2A#8:>>A#A#:R32E64>D#8:<<F8:L32<D:<E:>F#16R>>E64>C#8:L4<C#:<F:G#:L16G#:<<B32:>F#:>>A#:<FR32>E64>C8:O2A#8:F#R32>>E64G#4:<G#8:<<B32:>F#:D#FL4D#.:>G#:F8:<D#.:L2>D#:A#:G#:<<B32:>F#16R32>>E64A#4.&A#16:>A#16:L8O2A#>G#:F:L16F:G#:<F#:O5A#:L8<<FG#:<<B32:O5A#16:<<G#D#:L2G:<D#:>D#:A#:A#:G:>D#:<<D32:<E32:>F#16:O5A#16:<<G8D#8:<A#4.:L16>G:<<B32:>F#:>D#R32>E64G#8:<<A#8:>D#4:<A#R32>>E64L8A#:<<D#:>A#:<<B32:O5A#16R32<E64>C:L2O1G#.:O4C8:<G#4:>C:<G#:L1<G#:>>C:<G#:>>G#:O1B32:>>C#32:L16>>C:<G#:<<F#R32>>E64>C#8:O2G#8:L32O6C#.:<C16:<G#16:R>>C#C#:R64<<E64>C8:<<D#8:L16G#:<F#:O6C#32:<<G#:>C:<<D#R32>E64>C#8:O2G#2&G#8:O5C:<G#:>>C#R32<<E64>D#8:<<D#8:<D32:<E32:O5C:<G#:<<F#R32>>E64>C#8:L4<<G#:>C:<G#:>C:L16<G#:<<B32:>F#:O6C#:<<G#:>C:<<D#<F#:R32>>E64>C8:O2C8:O5C:<G#:<<F#R32>>E64G#4:<G#8:>C8:O1B32:>F#:O6C#:<<G#:>C:O2F8D#2.&D#:D#1:>A#4:G8:A#2:G2:L1>D#:<A#:D#:>>G:O1B32:O4A#2.:G2.:<<F#16R32>>E64A#4.:L16>A#:O2A#8>D#:G:<F#:O5A#:<<G8>>A#:<<A#8<A#2:D32:<E32:>F#:O5A#:R64<<G4&G.:R.>E64>C#8:<G8:<A#4:G4:G:<F#:O5A#:<<D#R32>E64>C8:<G#8:<<A#R32>>E64L8A#:<<D#:>>G:R16.E64G#:<<F2.&F:L2F.:>G#8:>F8:<G#:F:L1<F:>>C:<G#:>>F:O1B32:L16O4F:G#:<<F#R32>>E64G8:<C8:>G#:FR32E64G#8:<G#8:G#:<F#:>>F:G#:<FR32>E64A#8:C8:O1B32:O4F:G#:A#A#:R32E64>C8:<<C8:<D32:<E32:O4F:G#:<<F#R32>>E64L8A#:<G#:F.:G#.:L16G#:<F#:>>A#:F:G#:<FR32>E64G#8:C8:F:G#:<<F#R32>>E64A#4:<G#8:<<B32:>F#:>>F:G#:O1A#8>C2.:>A#4:G8:L1<C:>G2:>C2:<C:>D#:<G:>>C:O1B32:O4G2.:D#2.:<<F#16R32>>E64G4.:L16>A#:O2G8>D#:G:<F#:O5A#:<<G8>>A#:<<A#8<G2:L32D:<E:O5A#16:O2F#16R>>E64C8:<G4:A#4:L16D#:G:<<B32:>F#:>>G&G64R64E64G8:<C4:>G#4:<<A#R32>>E64D#8:D#8:O1B32:O5A#R32<E64F4:L2<<C#&C#8:C#.:>>F8:<G#:>C#:L1<C#:>F:<G#:<<B32:>>A16:G#8<G#8:L32O6C#.:RC#C#:R64<<E64<G#8:L16F:C#:<F#:O6C#32:<FR32<E64>F4.:<C#4:>>C#RO2D32:<E32:>F#RF8:G#8:>>C#4:<G#4:F:<<B32:>F#:O6C#:O3C#<F#D#8:>>F8:<<F#R32>>E64<<C#8:>G#8:<<B32:>F#:O6C#:<<G#R32E64G#4:L2<<C.:C1:>>D#8:C:<G#:L1>D#:<C:G#:<<B32:>F#16:>G#8<G#8:O5A#16R32<E64<G#8:L16D#:G#:<F#:O5A#:D#R32<E64>D#4:A#:<C8<<D32:<E32:>F#:O5A#:R64<C4&C.&C64:R.E64<<G#4.:>>C8.:<G#8.:D#:G#:<F#:O5A#:F8<<D#4:<A#R32>>E64L8G#:<<C:>>C:R16.E64>C#:O1A#2.:>>F:>C#:<<A#:>F2:G#2:L1<A#:>>F:C#:<G#:<<B32:>F#16R32>>E64L8>C:<<F:R16.>E64>C#:<<G#:L16G#:<F#:>FR32>E64>C8:O2A#8:>>A#A#:R32E64>D#8:<<F8:L32<D:<E:>F#16R>>E64>C#8:<C#4:<F8.:G#4:L16G#:<<B32:>F#:>>A#:<FR32>E64>C8:O2A#8:F#R32>>E64G#4:<G#8:<<B32:>F#:D#FD#2:>G#4:F8:<D#4.:L2>D#:A#:G#:>D#:O1B32:>F#16R32>>E64A#4&A#16:C#:<G#:>>A#16:L8O2A#>F:G#:<F#16:O5A#16:<<FG#:<<B32:O5A#16R32<E64>C#.:L2<<G:G:<D#:>D#:A#:G:<D32:<E32:>F#16:O5A#16:<<D#8L4<A#.:>G.:A#.:D#8:G8:<F#16:<B32O4E64>C8.:R16<<D#:<A#16R32>>E64<A#8:<<B32:O5A#16:<A#16R32E64A#.:<G#1:<G#2:>G#:>C8:<D#8:L2>C:<G#:D#:G#:<<B32:>>C#16:<G#&G#32.:>G#&G#32.:>C&C32:R8.R32.<D#8:<F#16R32>>E64G#1&G#8:L16<<F#RD32:<E32:>A#:>D#8L4F:<G#:>G#:>C#:C#.:<G#.:F.:G#.:<G#&G#16.:>>F.&F64:R64C#.:R8.R32.O1B32R16.L1>G#:>D#:G#:<G#:>>C:C:<G#:D#:G#:>C:D#:<<G#:<B32R4.O4E64R16<<A#&A#&A#&A#&A#&A#&A#&A#&A#.:R4R16>>E64R8R32<<G#&G#&G#&G#.&G#4.&G#16:G#.&G#4.&G#16&G#64:O5C16.&C64:<F&F&F4.:C.&C8&C64:<F&F.&F4.&F64:A#&A#.&A#4.&A#16.:R16>A#8:R64<F.&F4.:R32.>G#8:R64<G#8.:R32.>F16&F64:<A#2.&A#8&A#64:L64R>ED#8.&D#32:RL32D#.:RF8.:RA#4&A#16.:R16.R64<G#8&G#.:R16.R64>D#8&D#:E64R16.F4.&F16:R8R.<G#8.&G#:R16L64R>EL16R.D#8&D#64<<A#:>A#.&A#64:R32.G#2&G#8:R32.>E64RR64C8&C32:<C8&C32:R32.>A#4.:RR64<A#8&A#32.:<A#4&A#:R8L64RO5F8.&F32.:R<E:<G#8.&G#32:R8R<G#16&G#:R16>F8.&F32.:>A#2&A#8:RL8<<F&F32.G#.:R64>G#.&G#32:R.L64RF16&F:R<F4.&F16&F:R8R32O5D#8.&D#:R<<F2&F32.:R8C8.:L16R>A#4&A#.&A#64:RR64O7D#32.C32.:O4F1&F1&F&F64:L32RD#4.&D#.:>>A#.:L64R<<A#1&A#1&A#:R>>G#32.F32.:RO2G#1.&G#4&G#:RL32O6D#.C.:R<A#:R64G#.:<<F1.&F8&F:>A#8.&A#64:R64>F.:R64D#.:R<<G#8&G#.:>>C<A#:>A#:G#.:R64F16:R64<<A#4.&A#:R64>>D#16:RC.:R64<A#.:L64RG#16:D#8.&D#:RL32F.:R>>F:<<D#:R64>>D#:L64RC32:<<F8:R>A#L32G#.:RF:R64D#.:R64<A#1&A#4&A#16:R64>C<A#:R64G#.:R<G#4:>F.:RD#.C16:R64<A#8.&A#.:RA#.G#16:R>D#4&D#16&D#64:R8L64R<<A#16&A#:R>G#4&G#16.:L16A#R>C.&C64:R64<A#2&A#32:C&C64RC8.&C64:>C8&C32.:R32D#4.&D#64:R8R32<F.:<G#.&G#64R8G#2&G#8.:>D#2&D#64:R32L1<G#&G#.&G#8.&G#32.:>>A#&A#.&A#8.&A#32.:R64>D#&D#.&D#8.&D#32:R32.O2G#&G#.&G#8&G#32:R8.L32R>F2.:R8RF:R64G#8&G#>F8&F:<CR16.O7D#.:O4A#8:RO7C<A#:L64RG#32:R<<F16.&F:RL32>>FD#.:RC<A#:<<A#8.&A#:R64>>G#F:L64RD#32:R<<F8&F:RL32>>C:L64RL32G#:R64F:R64D#C:<D#1.&D#64:L64RA#32:RG#32:RF16:RL32O7C:O4D#.:R64>>A#:R64O3A#1&A#4.:O6G#:L64RL32F:L64RL32D#:L64RC32:R<A#32:<E:R>G#32:RF32:R<<F1&F8.&F32:L32>>D#:L64RL32C:L64RL32<A#:L64RL32G#.:R64C:R64F.:RD#.:R64C.:R<A#G#:>>A#:L64RL32G#:R64F:R64D#C:R64<A#:R64G#.:RF:L64RL32D#.:E64R64C.:R<A#.:RG#.F16:R.D#16:R.>D#8:<C16&C64:<A#16:R.A#.G#.:R64>>F8:L16<<F#:R32F&F64:R>>E64:<<D#:R64>>G#8:L32<C#C#C#C#>A#8:<C#C#>A#16:<C#C#>>C8:<A#16:<C#C#C#C#>>D#8:<A#16:<C#C#C#C#:R64>E64<<C#2:O5F2.&F8.:L1O2C#:C#:>C#:G#:F:>C:O1B32:L16>>C#:<F#RG#2.&G#8:L32O6C#.:RC#C#:R64<<E64<C#8:L16F:G#:<F#:O6C#32:<C:<G#:>CR32<E64<D#8:O6C#:<C:<G#:>CR32<E64<F4:<C#32:F#:O5C:<G#:>CR32<E64<F:G#:O6C#:<C:<G#:>CR32<E64C4:<<F#:O5C:<G#:>CR32<E64L8<<C#:<B32:O6C#16:<C:<G#:>CO2D#2:L1D#:>>C8:<<D#:>D#:A#:G:>D#:O1B32:>F#16R32>>E64<<A#8:L16>>G:A#:>CR32<E64<D#8:D#:G:<F#:>>A#:G:>CR32<E64<G4:>A#:G:>CR32<E64<<A#2:C#32:F#:>>A#:G:>CR32<E64<D#4.:D#:G:<F#:>>G:A#:>CR32<E64L8<<D#:>>C4:<<A#16:>>G:A#:>C16R32<E64<<C#:O5C16R32<E64>C32.:O2C2:L1C:>>C8:<C:>E:<G:A#:<F#16:L32<BO5C#.:RC.:RO2G4.:>>A#16>C4:R<E64L16<E:G:<F#:L8>CE:R16.>E64>C#.:<<A#2:<C#32:L16F#RG4.:>E:G:>>A#:R32<E64>C8.:R<C4:O1B32:>F#R32>>E64G#8:R.E64A#4:<<F2:L1F:>F:<F:>>C:F:<G#:<<B32:>F#16:L8>FC:L16R.>E64<G8:G#:F:<F#:>>G#R32E64G#4&G#:<C8G#2:<C#32:F#RF4:>C4.:G#:<<B32:>F#:O5A#:<<FR32>E64C4:<<A#:>>G#R32E64G#8:<<C8:<B32RO4E64>D#4:O1A#2:L1>A#:A#:>G#:>C#:F:O1B32:>F#16:>G#8C#8:L32O6C#.:RC#C#:R64<<E64<F4:L16G#:F:<F#:O6C#32:<<G#R32E64G#4:<G#2&G#8:O6C#RO3C#2:<C#32:F#R>F4.:F:O6C#:O3G#R32>E64G#8:O1A#8:O4D#4:<<F#R32>>E64F8:<<C8:<B32:O6C#R32<<E64>D#4:O2C#2:C#4:L1>C#:G#:>F:C#:O1B32:>F#16:L8>G#<G#:L16R.>>E64<F8:F:G#:<F#:>>G#R32E64G#4:<G#2&G#8:R8C#2:<C#32:F#R>F4.:F:<F#:>G#R32>E64D#4:<<A#:O5F8O2D#:O5D#O2F:R32>>E64L1>D#.&D#8:O2D#2:D#.:>A#.:D#.&D#64:G#.&G#64:>C#.&C#64:D#.&D#64:O1B32:>F#16:L4D#>G#:D#:L16G#:<F#:>FR8R32>E64L8<<D#:C#32:F#16:>D#A#:D#4.:L16F:G#:>>A#:<C8<G#4:<<B32:>F#:L8>A#<F#16:>G#<D#1:>>D#:<A#:<<B32:>F#16:>A#G#<A#2.:L16>D#:G:<F#:L8>FD#2&D#:D#2&D#:<<B32R16.L2>>G:A#:<D#64:>A#32:G:<<B32:L16>>G:<F#R>G:<D32:<E32:>F#:O5A#:<<D#L32R>E64G#8:O1B:>>C#:L64RL32C#:L64RL32C#:L64RL32C#:L64RC#32:RC#32:>EA#8:L32<C#:L64RL32C#:R64C#:R64<<B:>>C#:L64RC#32:RC#32:>E>C8:L2O1G#.:O4C8:<G#4:>C:<G#:L1G#:<G#:>>C:>G#:O1B32:>>C#32:L16>>C:<G#:<<F#R32>>E64>C#8:O2G#8:L32O6C#.:<C16:<G#16:R>>C#C#:R64<<E64>C8:<<D#8:L16G#:<F#:O6C#32:<<G#:>C:<<D#R32>E64>C#8:O2G#2&G#8:O5C:<G#:>>C#R32<<E64>D#8:<<D#8:<D32:<E32:O5C:<G#:<<F#R32>>E64>C#8:L4<<G#:>C:<G#:>C:L16<G#:<<B32:>F#:O6C#:<<G#:>C:<<D#<F#:R32>>E64>C8:O2C8:O5C:<G#:<<F#R32>>E64G#4:<G#8:>C8:O1B32:>F#:O6C#:<<G#:>C:O2F8D#2.&D#:D#1:>A#4:G8:A#2:G2:L1<D#:>A#:G:>D#:>G:O1B32:O4A#2.:G2.:<<F#16R32>>E64A#4.:L16>A#:O2A#8>D#:G:<F#:O5A#:<<G8>>A#:<<A#8<A#2:<E32:O5A#:O2E2&E32:F#R32>>E64>C#8:<G8:<A#4:G4:G:<F#:O5A#:<<D#R32>E64>C8:<G#8:<<A#R32>>E64L8A#:<<D#:>>G:R16.E64G#:<<F2.&F:L2F.:>G#8:>F8:<G#:F:L1<F:>>F:<G#:>>F:O1B32:L16O4F:G#:<<F#R32>>E64G8:<C8:>G#:FR32E64G#8:<G#8:G#:<F#:>>F:G#:<FR32>E64A#8:C8:O1B32:O4F:G#:A#A#:R32E64>C8:<<C8:<D32:<E32:O4F:G#:<<F#R32>>E64L8A#:<G#:F.:G#.:L16G#:<F#:>>A#:F:G#:<FR32>E64G#8:C8:F:G#:<<F#R32>>E64A#4:<G#8:<<B32:>F#:>>F:G#:O1A#8>C2.:>A#4:G8:L1<C:>G2:>C2:D#:<C:G:>>C:O1B32:O4G2.:D#2.:<<F#16R32>>E64G4.:L16>A#:O2G8>D#:G:<F#:O5A#:<<G8>>A#:<<A#8<G2:<E32:O5A#:O2E2&E64:F#R>>C8:<G4:A#4:G:<<B32:>F#:>D#R32>E64G#8:<C4:>G#4:<<A#R32>>E64D#8:D#8:O1B32:O5A#R32<E64F4:L2<<C#&C#8:C#.:>>F8:<G#:>C#:L1<C#:>F:<G#:<<B32:>>A16:>F4:<G#8<G#8:L32O6C#.:RC#C#:R64<<E64<G#8:L16F:C#:<F#:O6C#32:<C#:FR32<E64L4>F.:<C#:>C#.:L16>C#RO2D32:<E32:>F#RF8:G#8:>>C#4:<G#4:F:<<B32:>F#:O6C#:O3C#<F#D#8:>>F8:<<F#R32>>E64<<C#8:>G#8:<<B32:>F#:O6C#:<<D#:G#R32E64G#4:L2<<C.:C1:>>D#8:C:<G#:L1C:>D#:<G#:<<B32:>F#16:>>D#4:<G#8<G#8:O5A#16R32<E64<G#8:L16D#:G#:<F#:O5A#:C:D#R32<E64>D#4.:A#:C4.:<C8O1E32:O5A#:O2E2:F#RG#4.:>>C8.:<G#8.:G#:<F#:O5A#:<<D#RD#4:<A#R32>>E64L8G#:<<C:>>C:R16.E64>C#:O1A#2.:>>F:>C#:<<A#:>F2:G#2:L1<A#:>>C#:<G#:<<B32:>F#16R32>>E64L8>C:<<F:R16.>E64>C#:<<G#:L16G#:<F#:>FR32>E64>C8:O2A#8:>>A#A#:R32E64>D#8:<<F8:L32<D:<E:>F#16R>>E64>C#8:L4<C#:<F:G#:L16G#:<<B32:>F#:>>A#:<FR32>E64>C8:O2A#8:F#R32>>E64G#4:<G#8:<<B32:>F#:D#FL4D#&D#16:>G#:F8:<D#.:L2>D#:A#:G#:<<B32:>F#16R32>>E64A#4.&A#16:>A#16:L8O2A#>G#:F:L16F:G#:<F#:O5A#:L8<<FG#:<<B32:O5A#16:O2D#>D#:L2G:<D#:>D#:A#:A#:G:>D#:O1E32:>F#16:O5A#16:O2E:A#8A#4.:L16>D#:G:<<B32:>F#:>D#R32>E64G#8:<D#4:D#4:<A#R32>>E64A#8:<A#8:<<B32:O5A#R32<E64>C8:L2O1G#.:O4C8:<G#4:>C:<G#:L1<G#:>>C:<G#:>>G#:O1B32:>>C#32:L16>>C:<G#:<<F#R32>>E64>C#8:O2G#8:L32O6C#.:<C16:<G#16:R>>C#C#:R64<<E64>C8:<<D#8:L16G#:<F#:O6C#32:<<G#:>C:<<D#R32>E64>C#8:O2G#2&G#8:O5C:<G#:>>C#R32<<E64>D#8:<<D#8:<D32:<E32:O5C:<G#:<<F#R32>>E64>C#8:L4<<G#:>C:<G#:>C:L16<G#:<<B32:>F#:O6C#:<<G#:>C:<<D#<F#:R32>>E64>C8:O2C8:O5C:<G#:<<F#R32>>E64G#4:<G#8:>C8:O1B32:>F#:O6C#:<<G#:>C:O2F8D#2.&D#:D#1:>A#4:G8:A#2:G2:L1>D#:<A#:D#:>>G:O1B32:O4A#2.:G2.:<<F#16R32>>E64A#4.:L16>A#:O2A#8>D#:G:<F#:O5A#:<<G8>>A#:<<A#8<A#2:<E32:>F#:O5A#:O2E2&E64:R64>G4&G.:R.>E64>C#8:<G8:<A#4:G4:G:<F#:O5A#:<<D#R32>E64>C8:<G#8:<<A#R32>>E64L8A#:<<D#:>>G:R16.E64G#:<<F2.&F:L2F.:>G#8:>F8:<G#:F:L1<F:>>C:<G#:>>F:O1B32:L16O4F:G#:<<F#R32>>E64G8:<C8:>G#:FR32E64G#8:<G#8:G#:<F#:>>F:G#:<FR32>E64A#8:C8:O1B32:O4F:G#:A#A#:R32E64>C8:<<C8:<D32:<E32:O4F:G#:<<F#R32>>E64L8A#:<G#:F.:G#.:L16G#:<F#:>>A#:F:G#:<FR32>E64G#8:C8:F:G#:<<F#R32>>E64A#4:<G#8:<<B32:>F#:>>F:G#:L8<CG#.:A#4:G:L1<C:>G2:>C2:<C:>D#:<G:>>C:O1B32:O4G2.:D#2.:<<F#16R32>>E64G4.:<<G8:L16O5A#<<G8.:RD#:G:<F#:O5A#:L8<<GA#:>>A#16:<<D#C4.:<G2:<E32:O5A#16:O2E2&E64:F#16R32>>E64C:<G4:A#4:L16D#:G:<<B32:>F#:>>G.E64G8:G#4:<<A#R32>>E64L8D#:<<D#:>>D#:O1B32:O5A#16R32<E64F4:L2<<C#&C#8:C#.:>>F8:<G#:>C#:L1<C#:>F:<G#:<<B32:>>A16:G#8<G#8:L32O6C#.:RC#C#:R64<<E64<G#8:L16F:C#:<F#:O6C#32:<FR32<E64>F4.:<C#4:>>C#RO2D32:<E32:>F#RF8:G#8:>>C#4:<G#4:F:<<B32:>F#:O6C#:O3C#<F#D#8:>>F8:<<F#R32>>E64<<C#8:>G#8:<<B32:>F#:O6C#:<<G#R32E64G#4:L2<<C.:C1:>>D#8:C:<G#:L1>D#:<C:G#:<<B32:>F#16:>G#8<G#8:O5A#16R32<E64<G#8:L16D#:G#:<F#:O5A#:D#R32<E64>D#4:A#:<C8O1E32:>F#:O5A#:O2E4.&E.&E64:R64>>C4&C.&C64:R.E64<<G#4.:>>C8.:<G#8.:D#:G#:<F#:O5A#:F8<<D#4:<A#R32>>E64L8G#:<<C:>>C:R16.E64>C#:O1A#2.:>>F:>C#:<<A#:>F2:G#2:L1<A#:>>F:C#:<G#:<<B32:>F#16R32>>E64L8>C:<<F:R16.>E64>C#:<<G#:L16G#:<F#:>FR32>E64>C8:O2A#8:>>A#A#:R32E64>D#8:<<F8:L32<D:<E:>F#16R>>E64>C#8:<C#4:<F8.:G#4:L16G#:<<B32:>F#:>>A#:<FR32>E64>C8:O2A#8:F#R32>>E64G#4:<G#8:<<B32:>F#:D#FD#2:>G#4:F8:<D#4.:L2>D#:A#:G#:>D#:O1B32:>F#16R32>>E64A#4&A#16:C#:<G#:>>A#16:L8O2A#>F:G#:<F#16:O5A#16:<<FG#:<<B32:O5A#16R32<E64>C#.:L2<<G:G:<D#:>D#:A#:G:<<E32:L16>F#:O5A#:O2E4.&E.&E64:>D#8L4<A#.:>G.:A#.:D#8:G8:<F#16:<B32O4E64>C8.:R16<<D#:<A#16R32>>E64<A#8:<<B32:O5A#16:<A#16R32E64A#.:<G#1:<G#2:>G#:>C8:<D#8:L2>C:<G#:D#:G#:<<B32:>>C#16:<G#&G#32.:>G#&G#32.:>C&C32:R8.R32.<D#8:<F#16R32>>E64G#1&G#4:R16<<F#16>D#8:<D32:<E32:>F#16L64R>>ERL4<F:<G#:>G#:>C#:C#.:<G#.:F.:G#.:<F#16:G#&G#16.:>>F.&F64:L64RC#4.:L16RE64R64<<F#R<B32R32.O4E64R64L1<<G#:>D#:G#:<G#:>>C:C:<G#:D#:G#:>C:D#:<<G#:<B32:>F#16R16F#32L64R>>E:RL32<<F#RF#.:RF#.:RF#.:RF#.:R>>E64O1BR>>C#:<<B>>C#C#C#C#:L64R>E:RL32<C#:L64RL32>D#.:L64RL32<C#:R64>F.:R64<C#>D#.:<C#C#:L64RL32>F.:L64RL32<C#:R64>D#.:E64:<C#>F.:<C#C#:L64RL32>G#.:L64RL32<C#:R64>A#.:R64<C#L1D#&D#:G#:<<G#:O5C:<G#:>C:<<C#32R2R8.>E64R8.R32.E64<<D#:>G:>G:A#:R8.R32L64ER16.REL8D#:R16.E64>D#.:RR32<E64>C#.C16<A#16:R32E64L1<C&C:<F:>F:>F:G#:G#<<C:>D#:>G:D#:R2R8.R32E64G#8:R16.E64D#8:R16.E64F4:<C#:<C#:>F:>G#&G#:F:R8.R32E64>F16R32<E64>F4.R16.<E64G#16R32E64G#4:<D#:<C:>G#&G#:>D#:R8.R32E64>D#16R32<E64>D#4F8R16.<E64G#8:R16.E64>C#8:<<F:<<A#:O4F:G#:R16.E64>C8:R16.<E64>C#8:R16.<E64L8>C:R16.<E64>D#.:RR32<E64>C#.:RR32<E64>C:R16.<E64G#:L1<G:A#:<D#:>>G:A#:R16.E64A#2:L8<D#:<D#:>G:A#:D#:G:<F#16:D#4D#2&D#:>D#:G:A#:D#:G:<F#16:D#A#:D32:<E32:>A#16:<A#>D#:>A#4.:G:A#:G:D#:<A16R32>>E64G#:<D#:>D#4:R16.E64A#:<<D#:>D#:A#:G:G:D#:<<B32:>F#16R32>>E64>C:L2O1G#.:O4C8:<G#4:>C:<G#:L1G#:>C:<<G#:O5G#:O1B32:>>C#32:L16>>C:<G#:<<F#R32>>E64>C#8:O2G#8:L32O6C#.:<C16:<G#16:R>>C#C#:R64<<E64>C8:<<D#8:L16G#:<F#:O6C#32:<<G#:>C:<<D#R32>E64>C#8:O2G#2&G#8:O5C:<G#:>>C#R32<<E64>D#8:<<D#8:<D32:<E32:O5C:<G#:<<F#R32>>E64>C#8:L4<<G#:>C:<G#:>C:L16<G#:<<B32:>F#:O6C#:<<G#:>C:<<D#<F#:R32>>E64>C8:O2C8:O5C:<G#:<<F#R32>>E64G#4:<G#8:>C8:O1B32:>F#:O6C#:<<G#:>C:O2F8D#2.&D#:D#1:>A#4:G8:L2A#:G:D#1:>D#:<G:>>G1:O1B32:O4A#.:G.:<<F#16R32>>E64A#4.:L16>A#:O2A#8>D#:G:<F#:O5A#:<<G8>>A#:<<A#8L2<A#:>>G:<A#:<<E32:O5A#16:O2E:F#16R32>>E64>C#8:<G8:<A#4:G4:L16G:<F#:O5A#:<<D#R32>E64>C8:<G#8:<<A#R32>>E64L8A#:<<D#:>>G:R16.E64G#:L2<<F:F.:>G#8:>F8:<G#:F:L1F:>F:<G#:>>F:O1B32:O5C8:O2F#16R32>>E64G8:<C8:>A#16R32E64G#8:<G#8:L16G#:<F#:O5C:<<FR32>E64L8A#:C:O1B32:O5C#:<A#16A#16:R32E64>C:<<C:<D32:<E32:O5D#:O2F#16O5C#.:R32<E64A#:<<F32:>G#:F.:G#.:L16G#:<F#:>>A#:<FR32>E64L8G#:C:>C:O2F#16R32>>E64A#4:<G#:<<B32:>F#16:O5C#.:O1A#>C2:>A#4:G:L1<C:>G2:>C2:<G:C:>D#:>C:O1B32:>F#16R32>>E64G4.:L16>A#:<A#4.:<<G8>D#:G:<F#:O5A#:<<G8>>A#:<<A#8C2:<G2:<E32:O5A#:O2E4&E32.:F#R32>>E64C8:<G4:A#4:D#:G:<<B32:>F#:>>GR32E64G8:G#4:<<A#R32>>E64D#8:D#8:O1B32:O5A#R32<E64F4:L2<<C#&C#8:C#.:>>F8:<G#:>C#:L1<C#:>F:<G#:<<B32:>>A16:>F4:<G#8<G#8:L32O6C#.:RC#C#:R64<<E64<G#8:L16F:C#:<F#:O6C#32:<C#:FR32<E64L4>F.:<C#:>C#.:L16>C#RO2D32:<E32:>F#RF8:G#8:>>C#4:<G#4:F:<<B32:>F#:O6C#:O3C#<F#D#8:>>F8:<<F#R32>>E64<<C#8:>G#8:<<B32:>F#:O6C#:<<D#:G#R32E64G#4:L2<<C.:C1:>>D#8:C:<G#:C1:>C.&C16.&C64:D#.&D#16&D#64:O1B32:>F#16:>>D#4:<G#8<G#8:O5A#16R32<E64<G#8:L16D#:G#:<F#:O5A#:C:D#R32<E64>D#4:A#:C4:<C8G#2:O1E32:O5A#:O2E4&E:F#R32>>E64<<G#4.:>>C8.:<G#8.:D#:G#:<F#:O5A#:C#8:F8<<D#4:<A#R32>>E64L8G#:<<C:>>C:R16.E64>C#:O1A#2.:>>F:>C#:<<A#:>F2:G#2:L1G#:<A#:>>F:C#:O1B32:>F#16R32>>E64L8>C:<<F:R16.>E64>C#:<<G#:L16G#:<F#:>FR32>E64>C8:O2A#8:>>A#A#:R32E64>D#8:<<F8:L32<D:<E:>F#16R>>E64>C#8:L4<C#:<F:G#:L16G#:<<B32:>F#:>>A#:<FR32>E64>C8:O2A#8:F#R32>>E64G#4:<G#8:<<B32:>F#:D#FD#2.&D#8:D#2.:L8>G#:>F:C#:G#1:C#1:O1B32:>F#16:R64>D#1.&D#4.&D#16.&D#64:R16R64>E64>C4:O2F#16:O5A#16:O2A#>F4:G#4:L16F:G#:<F#:O5A#:<<G#8>C#8:O1B32:>F#:O5C#C:R32<E64A#2.&A#8:O1E32:>F#:O5A#:O2E4.&E.:>>F8<<A#8:>F4:G#4:G#:<F#:>F<<B32R32>F#:L8>>F<<A#:>>G#:O1B32:O5A#16:O2F#16R32>>E64L1<D#:<D#:>>G#:F:>D#:<D#:<A#:G:A#:>G:D#:<A#:<<B32:>A#16R4.R32>>E64L8>C#.:RR32<E64>C.:RR32<E64A#16R32E64L4A#.:O1G#&G#16:>G#:>G#:>C#:<F:G#:>C#:O1B32:R64O4C#.&C#64:F.:<<G#&G#32R32.>>E64L1G#&G#4.:O1G#.:>G#.&G#8:>G#.&G#8:D#.&D#8:>C.&C8:<G#.&G#8:>C.&C8:O1B32:R64O4C.&C8&C32:D#.&D#8&D#32:<<G#.&G#8&G#32:RR4R16.O5G:R4O1F2:>F:>G#:>C:O1B32:>>C#32:<F#16:>>F8C8:L32>>C#.:RC#C#O2F#16:O6C#:<<F8>>C#16:<<G8<<D:<E:>F#16:>>G#8>D#8:O1B:L16O6C#:O2F#F#O5C8:G#:O2F#O5GO2C8:>>G#8:O1B32:O6C#:<F:O2F#O5D#O2C#2:L1>C#:>C#:<F:<<B32:>F#16:O5C2.:<F8L16>A#:<<G#8<F#:O5A#:<C#8>A#:<D#8F4:O1E32:O5A#:O2E4.&E.:F#8O5A#:O2F#RO5C4:C4:O2A#RD#FD#2:L1>G:<D#:>A#:<<B32:>F#16:>>A#:L8D#<A#<F#16:>>D#F:O1B32:O4A#16A#16G4:<<D32:<E32:L16>F#R>>A#:<<F#R>>G#4:<<F#R<B32:>F#RL1>G#:<F:>>C:O1B32:>F#16:L8>>FC:L16>A#:L8<<G#>F:L16<<F#:O5A#:<<G8F4.:>>A#:<G8O1E32:>F#:O5A#:O2E4.&E&E64:L8>>G#>D:O1B32:>F#16:>>A#<D#4:>>D#:O2A#16:O5CC:O1B32:O5A#16:<G#<<F2:L1F:>G#:>C:O1B32:>F#16:>>F8C8:L32>>C#.:RC#C#O2F#16:O6C#:<F2:<F8>>C#16:<<G8<<D:<E:>F#16:>>G#8>D#8:O1B:L16O6C#:O2F#F#O5C8:G:O2F#O5F<G#8:O1B32:>F#:O6C#:<D#8:O2C8C#2:L1>C#:>C#:F:O1B32:>F#16:O5C:<F8L16>A#:<<G#8<F#:O5A#:<C#8>A#:<D#8F4:O1E32:O5A#:O2E4.&E64:F#RO5A#:O2F#RO5C4:O2A#RD#FD#2:L1>>D#:<G:D#:<<B32:>F#16:>>A#:L8D#<A#L16<F#:>>D#8F8:A#A#<<D32:<E32:>F#:>>G8G#4:O1B32:O4A#:<<F#RF#RL32>>G.:<<F#16:<BO4F.:RD#.:R<<F2.:>>D#2&D#8:L1<<F:>G#:>C:O1B32:L16>F#RO5A#RA#:O2F#RO5A#RO1E32:O5A#:O2E2:F#RL8O5D:O1B32:>F#16:>>A#>D#:<<G16:>>CC:<G#L1<<F:>G#:<F:O5C.&C4:L8<FC<C2.:>FGG#4>C4L1O2C#:C#:>F:L8>C#<G#C#2.:>C#D#L4FG:>CO2D#1.:>>D#8:F:R64<G1&G8&G32:R64<A#1&A#16.&A#64:D#1&D#16&D#64:R16.R64>A#8.:R16.>G1:R16L8D#.&D#64:RR32F:R16.<A#2.&A#.&A#32.:R16.>G4&G16.&G64:L64RER16.RER8R32.G#4.&G#16:R16RER16.RG#4.:R8.RE:R<F8&F32:L1<F&F&F&F.&F16:R16R64>>C&C&C&C&C4.&C16:R64<G#&G#&G#&G#&G#4.&G#32.:R64C&C&C&C&C4.&C16:R64<F&F&F&F&F4.&F32.:R64>C8:R64>G16G#16:R32<F8:R64>G16:R32.E64:F&F&F&F8.:R32.L16<G&G64RG#RL64R>EC32.R16.RF32.R16RERG32.R16.RG#32.R16.RE>C32.R8RF32.R16R<ER32.>G32.R8.G#16R8.R>C16R8.R32.<G#1.&G#4.&G#16:R>C1.&C4.&C32:R32F1.&F4&F16.&F