#Title 甩葱歌

#trackName Ë¦¡¤´Ð¡¤¸è
#NewTrack
#trackName Piano
#instrumentName Super Quartet 1
T138
R8L32F.:C.R8.R64F.:C.R8.R64F.:C.R8.R64F.:C.R8.R64F.:C.R8.R64F.:C.R8.R64F.:C.R8.R64F.:C.R8.R64F.:C.R8.R64F.:C.R8.R64F.:C.R8.R64F.:C.R8.R64F.:C.R8.R64F.:C.R16R64F.:>F.R4.R.F:R64C.R16R64F.R16R64F.R16R64FRGRG#RG#RFRFRF.R16R64FRG#RG.R16R64D#.R16R64D#.R16R64D#.R16R64G.R16R64F.R16R64F.R16R64FRFRC.R16R64F.R16R64F.R16R64FRGRG#.R16R64F.R16R64F.R16R64FRG#R>CRCR<A#RG#RA#.R16R64G.R16R64G#.R16R64F.R16R64F.R16R64FRFR>C.R16R64C.R16R64<A#.R16R64G#.R16R64A#.R16R64FRFRF.R16R64GRG#RA#RA#RA#RA#RG#.R16R64G.R16R64G#.R16R64F.R16R64F.R16R64FRFR>C.R16R64C.R16R64<A#.R16R64G#.R16R64A#.R16R64F.R16R64F.R16R64GRG#RA#RA#RA#RA#RG#RG#RGRGRG#.R16R64F.R16R64F.R16R64FRFRL8<G#:>CC:FC:FL16D#:FGF:G#F:G#C:FC:F<G#8:>F8D#:FG#L8<A#:>GC:D#<A#:>D#L16C#:D#C#:D#L8<A#:>GC#:FC:FL16C:FC:FL8<F:>C<G#:>FC#:FL16D#:FD#:GL8C#:G#<G#:>FC#:FL16FG#F:>C<F:>C<A#G#L8G:A#E:G<G#:>G#<A#:>E<G#:F:>FF:>F<C:>C<F:>F<F:>FL16<F:>F<G:>GL8<G#:>G#<F:>F<F:>FL16<F:>F<G#:>G#L8<G:>G<D#:>D#<D#:>D#<D#:>D#<G:>G<F:>F<F:>FL16<F:>F<F:>FL8<C:>C<F:>F<F:>FL16<F:>F<G:>GL8<G#:>G#<F:>F<F:>FL16<F:>F<G#:>G#C:>C<C:>C<<A#:>A#<G#:>G#L8<A#:>A#<G:>G<G#:>G#<F:>FC:<G#:F:>FL16<G#A#C<CF>F>F<F<FGG#>G#<FF>F<F>FG#G<GD#>D#>D#<D#<D#>D#G<G>F<F<F>F>F<F>C<CF>F>F<F<FGG#>G#<FF>F<F>FG#>C<C<C>CA#<A#>G<GG#>G#F<F>F<FFGG#:FF:G#F:CC:FC:<G#G#:>CF:CC:FC:<G#G#:>C<G#:FF:G#F:CC:FG#:FF:G#>C:<FG#:>CF:<G#>C:FF:CC:FF:C#D#:GG#:CD#:G#F:C<G#:>FF:CC:FF:C#F:G#G:FF:GD#:<A#A#:>D#D#:<G#A#:>D#D#:CC#:D#G:D#C#:GF:CC:FF:<G#G#:>F<F:CC:F>C:<FG#:>CF:<G#>C:FF:CC:FF:C#D#:GG#:CD#:G#F:C<G#:>FF:CC:FF:C#F:G#>C:<FG#:>C<A#:D#F:G#A#:C#D#:A#G:CC#:GG#:FF:G#F:CC:FF:<G#>F:C<C:F>F:C>C:<FG:>CC:<G#A#:>C<A#:GG:A#G#:FF:G#A#:D#G:A#F:<A#>C:FF:C#D#:FG:C#C:G#A#:GG:A#A#:D#D#:A#G#:FC:G#G:D#C#:GG#:FC:G#F:C#D#:FF:C#C:F<F:CC:F>>C:<FG:>CC:<G#A#:>C<A#:GG:A#G#:FF:G#A#:D#G:A#F:<A#>C:FF:C#D#:FG:C#C:G#A#:GG:A#A#:D#D#:A#G#:FC:G#G:D#C#:GG#:FC:G#F:C#D#:FF:C#C:F<F:CC:FR2L32>FG#>CD#FG#>CD#<FG#>CD#FG#>CD#<<F>CF>D#F2.&F16
#NewTrack
#trackName Sound 2
#instrumentName Super Quartet 1
T138
<F16&F64R8R32.C16&C64R8R32.F16&F64R8L32R.C.R16R64D#.R16R64F16&F64R8R.C16&C64R8R.F16&F64R8R.C.R16R64D#.R16R64F16&F64R8R.C16&C64R8R.F16&F64R8R.C.R16R64D#.R16R64F16&F64R8R.C.R16R64F.L16RL64RL16C&C64:F&F64:<F&F64R4.R32.L8F>CFR<CG#>CR<F>D#A#:>C#R<<CG>C:D#R<F>CFR<CG#>CR>C:<G#G:E<G>C#FC<F>E:<EF:>FG#:>C<F:>FR<D#:<D#>G#:C#<A#:>A#R<G:>G>C#C:D#R<F:<F>G#C:>CR<<F:>FG#:>C<F:>FR<D#:<D#>G#:C#<A#:>A#R<GL16>C#:GC#:GL8>CR<<FR>FD#:<D#F:>F>C:G#<<C:>CA#:>G<<F:>F>C:G#<<C:>C<D#:>D#<F:>F>C:G#<<C:>CA#:>G<<F:>F>C:G#<<C:>C<D#:>D#<F:>F>C<<C:>CA#:>G<<F:>F>C<<C:>C<D#:>D#<F:>FC:G#<A#:>GC:EC:<C>F:<F>C:F:<FRF:>F>C:G#<<C:>CA#:>G<<F:>F>C:G#<<C:>C<D#:>D#<F:>F>C:G#<<C:>CA#:>G<<F:>F>C:G#<<C:>C<D#:>D#<F:>F>C:G#<<C:>CA#:>G<<F:>F>C:G#<<C:>C<D#:>D#F:<F>G#:CG:<A#>E:CC:<C>F:<F>C:F:<FRF:>FF:G#<C>G#<F>G#<CD#:>D#<F:>FD#:G<C>G<F>C:G#CD#<F:>FF:G#<C>G#FG#<CD#:>D#<F:>FD#:G<C>G<F>F:G#C:>C<D#L1RRRRRRRRRL16C:<F>C:<FF:CF:CL32FG#>CD#FG#>CD#