#Title 红色高跟鞋-14轨

#NewTrack
#NewTrack
#trackName Percussion
L1RRR.L8<<A#:DA#:L16DARGFR>A1:L8<C:G#G#E:G#G#G#:CG#:CG#:EG#G#:CG#G#:EG#C:G#G#:EG#:EE:G#G#:CG#G#:EG#G#:CG#:CG#:EG#C:G#G#E:G#G#C:G#E:G#E:G#E:G#>A1:<CRERCCERCRERCEEECRERCCERCRERCEEECRERCCERCRERCEEE:G#G#:CG#G#:ERG#:CG#:CG#:EG#C:G#G#E:G#G#C:A#C:A#A16G16F>A1:<G#:CG#G#:EG#G#:CG#:CG#:EG#C:G#G#E:G#G#C:G#E:G#E:G#E:G#C:G#G#E:G#G#C:G#C:G#E:G#G#C:G#G#E:G#G#C:G#E:G#E:G#E:G#C:G#G#E:G#G#C:G#C:G#E:G#G#C:G#G#G#:EG#C:G#E:G#E:G#E:G#>A1:<C:G#G#E:G#G#C:G#C:G#E:G#G#G#:CC:>C<C:L16GGL8C:L16>C<GL8DG#E16E16A>C#1:<G#:CG#G#:EG#G#:CG#:CG#:EG#C:G#G#E:G#G#C:G#E:G#E:G#E:G#C:G#G#E:G#G#C:G#C:G#E:G#G#C:G#G#E:G#G#C:G#E:G#E:G#E:G#>A1:<CRERCCERCRERCEEECRERCCERCRERCEEE:G#C:G#G#E:G#G#C:G#C:G#E:G#G#C:G#G#E:G#G#C:G#E:G#E:G#E:G#G#:CG#E:G#G#G#:CG#:CG#:EG#C:G#G#E:G#G#A#4:CC>C:<A16G16F:>CA1:<G#:CG#G#:EG#G#:CG#:CG#:EG#C:G#G#E:G#G#C:G#E:G#E:G#E:G#>A1:<G#:CG#G#:EG#G#:CG#:CG#:EG#C:G#G#E:G#G#C:G#E:G#E:G#E:G#>A1:<G#:CG#G#:EG#G#:CG#:CG#:EG#C:G#G#E:G#G#C:G#E:G#E:G#E:G#>A1:<G#:CG#G#:EG#G#:CG#:CG#:EG#C:G#G#:CE:G#G#A#4:RE:CC:G#:GG#:G>A1:<C:G#C:G#E:G#G#:L16DDL8G#:C:R16D16G#:CG#:ED16:G#C:G#G#:<B16B16>C:E:G#<B:L16>G#G#EEEER4>C#1:L8<C:F#A#E:F#C:L16F#F#:DC8:F#F#:DL8C:F#F#:EF#C:F#A#:CE:F#L16F#F#:DC8:F#F#:DC#:L8C:F#F#:EF#:D16C16C:F#A#:CE:F#L16F#F#:DC8:F#F#:DL8C:F#F#:EF#C:F#C:F#F#:EF#L16F#:C8:EF#L8F#:L16EEL8C:F#:R16E16F#:G>A1:<C:F#A#E:F#F#C:F#C:F#E:F#F#C:F#C:A#E:F#F#C:F#C:F#E:F#F#C:F#C:A#E:F#F#C:F#C:F#E:F#F#C:F#C:A#E:F#F#C:F#:R16D16C:F#E:F#E:F#>A1:<C:F#A#E:F#F#:L16RDL8F#:C:R16D16C:F#E:F#F#C:F#C:A#E:F#F#F#:CC:F#E:F#F#C:F#C:A#E:F#F#:L16RDL8C:F#:R16D16C:F#E:F#F#C:F#C:A#E:F#F#F#:C:EF#:C:BF#:C:L16EEF#8:EE>A1:L8<G#:CG#G#:EG#:L16RDL8C:G#:R16D16G#:CG#:EG#C:G#G#E:G#G#C:G#E:G#E:G#E:G#G#:CG#G#:EG#:L16RDL8C:G#:R16D16G#:CG#:EG#C:G#G#E:G#G#G#:C:R16D16E:G#E:G#E:G#>A1:<G#:CG#G#:EG#:L16RDL8C:G#:R16D16G#:CG#:EG#C:G#G#E:G#G#G#:C:R16D16E:G#E:G#E:G#>A1:<G#:CG#G#:EG#:L16RDL8C:G#:R16D16G#:CG#:EG#G#:>A2:<CG#:L16CCB:E:L8G#B16:E16:G#C:A#F16:E16:F#R4>C#1:<C:G#A#E:G#G#G#:CG#:CG#:EG#G#:CG#G#:EG#C:G#G#:EG#:EE:G#G#:CA#G#:EG#G#:CG#:CG#:EG#C:G#G#E:G#G#C:G#E:G#E:G#E:G#>A1:<C:G#A#E:G#G#G#:CG#:CG#:EG#G#:CG#G#:EG#C:G#G#:EG#:EE:G#F#:CA#F#:EL16A#D:F#>A2:L8<C:G#:EA16:G#:CG#:L16RG:AL8E:G#:F>C#1:<C
#NewTrack
#trackName Acoustic Bass
L1RRRRL2O1GABL8B>C#D<F#L2GABB8>C#8D4<GAB1GAB1GA>D<BG1A1GABB8>C#8D4<GAB1GABL8B>C#D<AG1A2&A.A4R16L2GABL8B>C#D<BL2GABB8>C#8D4<GAB1GAB1GA>D<BG1A1GABL8B>C#D<AL2GABB8>C#8D4<GAB>D4C#8<B8L1GAEG2.R4>D2.&D8L8<AG1>D2.&D<F#G1L2GABL8B>C#D<AL2GABB8>C#8D4<GAB>D4C#8<B8G1A1GABL8B>C#D<AL2GABB8>C#8D4<GAB>D4C#8<B8G1A1GABL8B>C#D<F#L2GABB8>C#8D4<GABL8B>C#D<F#G2A2B1
#NewTrack
#trackName Jazz Guitar
L8<<GG>G:<GGAA>A:<AA16R16BBB:>A<BBBB:>A<B16G16GGG:>G<GAAA:>A<A16R16BBB:>AL16<BB<B>F#ABAF#L8DGG>G:<GG16G16AAA:>A<A16A16BBB:>A<B16B16B>C#D<F#GG>G:<GG16G16AAA:>A<A16A16BBB:>AL16<BBL8BB16>C#16DD<GG>G:<GG16G16AA>A:<AA16A16BB>A:<BB16B16BBB:>A<B16B16GG>G:<GG16G16AAA:>A<A16A16BB>A:<BB16B16BBB:>A<B16B16GG>G:<GG16G16AA>A:<AA16A16>DDD:>D<D16D16<BBB:>B<B16B16GG>G:<GG16G16GG>G:<GG16G16AAA:>A>E4.:L16<<AEAEAE>B4:L8A:<AA16A16GG>G:<GG16E16AAA:>A<A16F#16BB>A:<BB16B16B>C#DD<GG>G:<GG16E16AAA:>A<A16A16BB>A:<BL16BBF#B>C#<F#BF#L8DGG>G:<GG16E16AAA:>A<A16A16BB>A:<BB16B16B>C#D<A16A16GG>G:<GG16D16GG>G:<GG16G16AAAA16E16AR4.GG>G:<GG16E16AAA:>A<A16A16BB>A:<BL16BF#L8O5C#:<<C#16<F#16B:O5DO2F#:O5C#D.&D32:O2BGG:>>D<G:<GG16E16AAA:>A<A16A16BB>A:<BL16BF#L8O5C#:O2B16>C#16D:>>D<<C#:>>C#O2B:O5DO2GGG:>G<G16G16AAA:>A<A16A16BB>A:<BL16BBBBBF#L8BAGG>G:<GG16E16AAA:>A<A16A16BB>A:<BB16B16B>C#:<B>D:<BF#GG>G:<GG16G16AA>A:<AA16E16>DDDD16D16<BBB:>B<B16A16GGG:>G<G16G16GGG:>D<G16G16AABL16AAAB>C#DC#<AL8F#GG>G:<GG16E16AAA:>A<A16A16BBB:>AL16<BF#>C#<F#L8B:EF#B:EGG>G:<GG16G16AAA:>A<A16A16BB>A:<BB16B16F#B:EF#B:EGG>G:<GG16E16AAA:>A<A16A16BBB:>AL16<F#BF#B>C#DL8C#<BGG>G:<GG16G16GG>G:<GG16G16AAAA16E16AAAA16A16BBBL16BBBG#L8BBB16B16>DDDL16DDD8DDR4L8<A:O5F#O2A:>>A<<A:O5EF#4:L16O2AAAAL8A:>>A<<A:O5ED:O2A16G16G:O5GO2G:>>A<<G:O5EF#4:L16O2GGGGL8G:>>A<<G:O5ED:O2G16G16A:O5F#O2A:>>A<<A:O5EF#4:L16O2AAAAL8A:>>A<<A:O5ED:O2F#16F#16G:O5GO2G:>>A<<G:O5EF#4:L16O2GDADL8G:>>A<<G:O5ED:O2G16E16GG>G:<GG16G16AAA:>A<A16A16BB>A:<BB16B16BB:>C#A:<B:>D<B16A16GG>G:<GG16G16AAA:>A<A16A16BB>A:<BL16BBF#B>C#<BL8>C#:<BB:R16A16GG>G:<GG16E16AAA:>A<A16A16BB>A:<BL16BBB8F#F#L8BA16A16GGGL16DDDDL8DGG16G16AAAL16AAAAL8AAA16A16GG>G:<GG16G16AAA:>A<A16A16BB>A:<BL16BF#B>C#L8DC#<B16A16GG>G:<GG16G16AAA:>A<A16A16BB>A:<BL16BF#B8>C#C#L8<BB16G16GG>G:<GG16G16AAA:>A<A16A16BB>A:<BL16BF#BF#B8BBAF#L8GG>G:<GG16G16GG:D>G:<GG16G16AAAA:EAA4.GG>G:<GG16G16AAA:>A<A16F#16BBB:>A<B16F#16B>C#D<A16F#16GG>G:<GG16G16AAA:>A<A16>C#16<BB>A:L16<BF#>C#<F#L8B>C#D<AGG>G:<GD16G16AAA:>A<F#16F#16BB>A:L16<BF#>DC#L8E:<BB>E:<BBGG>G:<GL16A:DGL8AA>A:L16<AAF#F#B1
#NewTrack
#trackName String Ensemble
L16D.:E.:G.R8R32L4G&G16.:E&E16.:DC#16.R8R32C#:E&E16.:GD16.:A16.R8R32A2.:E2.&E16.:DL8C#DC#D.&D32:RG16.RR32L4G&G16.:E&E16.:DC#16.R8R32E&E16.:C#:GD16.:A16.R8R32E2.&E16.:A2.:DL8C#DC#D.&D32:RG16.RR32L4G&G16.:E&E16.:DC#16.R8R32C#:E&E16.:GD16.:A16.R8R32E2.&E16.:A2.:DL8C#DC#D.&D32:RG16.RR32L4G&G16.:E&E16.:DC#16.R8R32C#:E&E16.:GD16.:A16.R8R32A2.:E2.:DL8C#DC#D<A16.RR32A4&A16.RR32A4&A16.RR32A2.&A16.RR32A4&A16.RR32A4&A16.RR32A2.&A16.RR32A4&A16.:>E4&E16.RR32<A4&A16.:>E4&E16.RR32<A2.&A16.:>E2.&E16.RR32<A4&A16.:>E4&E16.RR32<A4&A16.:>E4&E16.RR32<A2.:>E2.L16D.:E.:G.R8R32L4G&G16.:E&E16.:DC#16.R8R32C#:E&E16.:GD16.:A16.R8R32A2.:E2.&E16.:DL8C#DC#D.&D32:RG16.RR32L4G&G16.:E&E16.:DC#16.R8R32C#:E&E16.:GD16.:A16.R8R32A2.:E2.&E16.:DL8C#DC#D.&D32:RG16.RR32L4G&G16.:E&E16.:DC#16.R8R32C#:E&E16.:GD16.:A16.R8R32E2.:A2.:DL8C#DC#D16.R32G16.:C#RL4G&G16.:C#D.&D16.:RGE2&E16.:A2&A16.R.R32L16D.:E.:G.R8R32L4G&G16.:E&E16.:DC#16.R8R32C#:E&E16.:GD16.:A16.R8R32A2.:E2.&E16.:DL8C#DC#D.&D32:RG16.RR32L4G&G16.:E&E16.:DC#16.R8R32E&E16.:C#:GD16.:A16.R8R32E2.:A2.:DL8C#DC#D<A16.RR32A4&A16.RR32A4&A16.RR32A2.&A16.RR32A4&A16.RR32A4&A16.RR32A2.&A16.RR32A4&A16.:>E4&E16.RR32<A4&A16.:>E4&E16.RR32<A2.&A16.:>E2.&E16.RR32<A4&A16.:>E4&E16.RR32<A4&A16.:>E4&E16.RR32<A2.:>E2.L16D.:E.:G.R8R32L4G&G16.:E&E16.:DC#16.R8R32C#:E&E16.:GD16.:A16.R8R32A2.:E2.&E16.:DL8C#DC#D.&D32:RG16.RR32L4G&G16.:E&E16.:DC#16.R8R32E&E16.:C#:GD16.:A16.R8R32E2.&E16.:A2.:DL8C#DC#D.&D32:RG16.RR32L4G&G16.:E&E16.:DC#16.R8R32C#:E&E16.:GD16.:A16.R8R32E2.&E16.:A2.:DL8C#DC#D.&D32:RG16.RR32L4G&G16.:E&E16.:DC#16.R8R32C#:E&E16.:GD16.:A16.R8R32A2.:E2.:DL8C#DC#DL2<B:>FC:GD&D8:A&A8R4.L1F#:DG:<G>D:F#L2G:<GA:>AR4<A4&A16.R8R32A4&A16.R8R32A.&A16.R8R32A4&A16.R8R32A4&A16.R8R32A&A8.&A32L4RR32>E&E16.:<A&A16.R8R32A&A16.:>E&E16.R8R32<A2.&A16.:>E2.&E16.R8R32<A&A16.:>E&E16.R8R32<A&A16.:>E&E16.R8R32E2.:<A2.L16>D.:E.:G.R8R32L4G&G16.:E&E16.:DC#16.R8R32C#:E&E16.:GD16.:A16.R8R32A2.:E2.&E16.:DL8C#DC#D.&D32:RG16.RR32L4G&G16.:E&E16.:DC#16.R8R32C#:E&E16.:GD16.:A16.R8R32E2.&E16.:A2.:DL8C#DC#D.&D32:RG16.RR32L4G&G16.:E&E16.:DC#16.R8R32C#:E&E16.:GD16.:A16.R8R32E2.&E16.:A2.:DL8C#DC#D16.R32G16.:C#RL4G&G16.:C#D.&D16.:RGE2&E16.:A2&A16.R.R32L16D.:E.:G.R8R32L4G&G16.:E&E16.:DC#16.R8R32C#:E&E16.:GD16.:A16.R8R32A2.:E2.&E16.:DL8C#DC#D.&D32:RG16.RR32L4G&G16.:E&E16.:DC#16.R8R32E&E16.:C#:GD16.:A16.R8R32E2.&E16.:A2.:DL8C#DC#D.&D32:RG16.RR32L4G&G16.:E&E16.:DC#16.R8R32C#:E&E16.:GD16.:A16.R8R32E2.&E16.:A2.:DL8C#DC#D.&D32:RG16.RR32L4G&G16.:E&E16.:DC#16.R8R32C#:L1E&E4:G4D:A
#NewTrack
#trackName Synth String 1
RA:B:F#RB:E:>C#R<A:F#:>DR<F#:A:>C#R<A:B:F#RB:E:>C#RD:<A:F#RF#:A:>C#R<A:B:F#RB:E:>C#R<A:F#:>DR<F#:A:>C#R<A:B:F#RB:E:>C#R<A:F#:>DR<F#:A:>C#L1RRRRL2D:<B>E:C#F#:DE:C#L1<B:>D:L2R<<B>>E1:C#1:<C#C#:EL4RA:B:F#RB:>C#:<ERA:F#:>DR<F#:A:>C#R<A:B:F#RB:E:>C#RD:<A:F#RF#:A:>C#R<A:B:F#RB:E:>C#R<A:>D:<F#R>C#:<F#:ARF#1&F#.:A1&A.:L2>C#E4F#&F#8RR8L4<A:B:F#RB:E:>C#R<A:F#:>DR<F#:A:>C#R<A:B:F#RB:E:>C#R<A:>D:<F#RF#:>C#:<AR1R1L2G:D:<B>A:E:C#<B:>F#:DL4A:C#:ED:F#:A<B:L2>D:F#A:E:C#L4F#:A:DG:E:C#D:F#:<B>E:C#:AL1G:<B:>D:R2A.:R2E:C#:R2L4>E.:R<<ER>A:B:F#RB:>C#:<ERA:F#:>DR<F#:A:>C#R<A:B:F#RB:E:>C#RD:<A:F#RF#:A:>C#R<F#:A:BRB:E:>C#R<F#:A:>DRC#:<F#:ARF#:A:BRB:E:>C#R<A:>D:<F#R>E:<B:F#L2A:B:>EC:<G:>FD&D8:<A&A8:>G&G8R4.L1<<B:<B>A:<A>B:<B>C#:>C#2D2RRRRRRR<A:R2>A2:L4R>AR<A:B:F#RB:>C#:<ERA:F#:>DR<F#:A:>C#R<A:B:F#RB:E:>C#RD:<A:F#RF#:A:>C#R<A:B:F#RB:E:>C#R<A:>D:<F#R>C#:<F#:ARF#1&F#.:A1&A.:L2>C#E4F#&F#8RR8L4<A:B:F#RB:E:>C#R<A:F#:>DR<F#:A:>C#R<A:B:F#RB:E:>C#R<A:F#:>DR<A:>C#:<F#RA:B:F#RB:E:>C#R<A:F#:>DR<F#:A:>C#R<A:B:F#RL8B.:E.:>C#.R16L1<A:F#:>D
#NewTrack
#trackName Steel Guitar
L32O1GL16R.L32GL16R.L32GL16R.L32GL16R.L32AL16R.L32AL16R.L32AL16R.L32AL16R.L32BL16R.L32BL16R.L32BL16R.L32BL16R.L32BL16R.L32BL16R.L32BL16R.L32BL16R.L32GL16R.L32GL16R.L32GL16R.L32GL16R.L32AL16R.L32AL16R.L32AL16R.L32AL16R.L32BL16R.L32BL16R.L32BL16R.L32BL16R.L32BL16R.L32BL16R.L32BL16R.L32BL16R.L32GL16R.L32GL16R.L32GL16R.L32GL16R.L32AL16R.L32AL16R.L32AL16R.L32AL16R.L32BL16R.L32BL16R.L32BL16R.L32BL16R.L32BL16R.L32BL16R.L32BL16R.L32BL16R.L32GL16R.L32GL16R.L32GL16R.L32GL16R.L32AL16R.L32AL16R.L32AL16R.L32AL16R.L32BL16R.L32BL16R.L32BL16R.L32BL16R.L32BL16R.L32BL16R.L32BL16R.L32BL16R.L32GL16R.L32GL16R.L32GL16R.L32GL16R.L32AL16R.L32AL16R.L32AL16R.L32AL16R.L32BL16R.L32BL16R.L32BL16R.L32BL16R.L32BL16R.L32BL16R.L32BL16R.L32BL16R.L32GL16R.L32GL16R.L32GL16R.L32GL16R.L32AL16R.L32AL16R.L32AL16R.L32AL16R.L32BL16R.L32BL16R.L32BL16R.L32BL16R.L32BL16R.L32BL16R.L32BL16R.L32BL16R.L32GL16R.L32GL16R.L32GL16R.L32GL16R.L32AL16R.L32AL16R.L32AL16R.L32AL16R.L32>DL16R.L32DL16R.L32DL16R.L32DL16R.L32<BL16R.L32BL16R.L32BL16R.L32BL16R.L32GL16R.L32GL16R.L32GL16R.L32GL16R.L32GL16R.L32GL16R.L32GL16R.L32GL16R.L32AL16R.L32AL16R.L32AL16R.L32AL16R.L32AL16R.L32AL16R.L32AL16R.L32AL16R.L32GL16R.L32GL16R.L32GL16R.L32GL16R.L32AL16R.L32AL16R.L32AL16R.L32AL16R.L32BL16R.L32BL16R.L32BL16R.L32BL16R.L32BL16R.L32BL16R.L32BL16R.L32BL16R.L32GL16R.L32GL16R.L32GL16R.L32GL16R.L32AL16R.L32AL16R.L32AL16R.L32AL16R.L32BL16R.L32BL16R.L32BL16R.L32BL16R.L32BL16R.L32BL16R.L32BL16R.L32BL16R.L32GL16R.L32GL16R.L32GL16R.L32GL16R.L32AL16R.L32AL16R.L32AL16R.L32AL16R.L32BL16R.L32BL16R.L32BL16R.L32BL16R.L32BL16R.L32BL16R.L32BL16R.L32BL16R.L32GL16R.L32GL16R.L32GL16R.L32GL16R.L32GL16R.L32GL16R.L32GL16R.L32GL16R.L32AL16R.L32AL16R.L32AR16.AR16.AR4.L16R.L32GR16.GR16.G:O4B8O1G:O4D8B4.:O1AL16R.A32R.A32R.O4A4:O1A32R.B32R.O4F#4.:L32O1BL16R.L32BR16.BR16.B:L8O4C#L32O1B:L8O4DO1B32:O4C#O1B32:O4D<B4:L32<<GR16.GR16.G:O4B8O1G:O4D8B4.:O1AL16R.A32R.A32R.O4A4:O1A32R.B32R.O4F#4.:L32O1BL16R.L32BR16.BR16.B:L8O4C#L32O1B:O4D8O1B:O4C#8O1B:O4D16.RO1GL16R.L32GL16R.L32GL16R.L32GL16R.L32AL16R.L32AL16R.L32AL16R.L32AL16R.L32BR16.BR16.B:O5D8<F#4.:O1BL16R.L32BL16R.L32BL16R.L32BL16R.L32BL16R.L32GL16R.L32GL16R.L32GL16R.L32GL16R.L32AL16R.L32AL16R.L32AL16R.L32AL16R.L32BL16R.L32BL16R.L32BR16.BR16.B:O4A8F#4.:O1BL16R.L32BL16R.L32BL16R.L32GL16R.L32GL16R.L32GL16R.L32GL16R.L32AL16R.L32AL16R.L32AL16R.L32AL16R.L32>DL16R.L32DL16R.D32R.D32R.>>F#4.:L32O1BL16R.L32BL16R.L32BL16R.L32BL16R.L32GL16R.L32GL16R.L32GL16R.L32GL16R.L32GL16R.L32GL16R.L32GR16.GR16.A:O4F#8E4.:O1AL16R.L32AL16R.L32AL16R.L32AL16R.L32AL16R.L32AR16.AR16.G:>>G8>D4.:O1GL16R.L32GR16.GR16.A:>>A8>D4:O1AR16.AR16.A:O4C#8O1B:>>B8>D4:O1BR16.BR16.O4C#4:O1BR16.BR16.O4D4.:O1BL16R.L32BR16.BR16.G:>>G8>D4.:O1GL16R.L32GR16.GR16.A:>>A8>D4:O1AR16.AR16.A:O4C#8O1B:>>B8>D4:O1BR16.BR16.O4C#4:O1BR16.BR16.O4D4.:O1BL16R.L32BR16.BR16.G:>>G8>D4.:O1GL16R.L32GR16.GR16.A:>>A8>D4:O1AR16.AR16.A:O4C#8O1B:>>B8>D4:O1BR16.BR16.O4C#4:O1BR16.BR16.O4D4.:O1BL16R.L32BR16.BR16.G:>>G8>D4.:O1GL16R.L32GR16.GR16.G:>>A8>D4:O1GR16.GR16.G:O4C#8O1A:>>B8>D4:O1AR16.AR16.O4C#4:O1AR16.AR16.O4D4.:O1AL16R.A32R.A32R.O4E4.:L32O1EL16R.L32ER16.ER16.E:O4E8F2:O1EL16R.L32EL16R.E32R.E32R.O4G4:L32O1GR16.GR16.G:O4G8G4.:O1GR16.GR16.GR4L16R.L32DL16R.L32DL16R.L32DL16R.L32DL16R.L32DL16R.L32DL16R.L32DL16R.L32AL16R.L32GL16R.L32GL16R.L32GL16R.L32GL16R.L32GL16R.L32GL16R.L32GL16R.L32GL16R.L32DL16R.L32DL16R.L32DL16R.L32DL16R.L32DL16R.L32DL16R.L32DL16R.L32F#L16R.L32GL16R.L32GL16R.L32GL16R.L32GL16R.L32AL16R.L32AL16R.L32GL16R.L32GL16R.L32GL16R.L32GL16R.L32GL16R.L32GL16R.L32AL16R.L32AL16R.L32AL16R.L32AL16R.L32BL16R.L32BL16R.L32BL16R.L32BL16R.L32BL16R.L32BL16R.L32BL16R.L32BL16R.L32GL16R.L32GL16R.L32GL16R.L32GL16R.L32AL16R.L32AL16R.L32AL16R.L32AL16R.L32BL16R.L32BL16R.L32BL16R.L32BL16R.L32BL16R.L32BL16R.L32BL16R.L32BL16R.L32GL16R.L32GL16R.L32GL16R.L32GL16R.L32AL16R.L32AL16R.L32AL16R.L32AL16R.L32BL16R.L32BL16R.L32BL16R.L32BL16R.L32BL16R.L32BL16R.L32BL16R.L32BL16R.L32GL16R.L32GL16R.L32GL16R.L32GL16R.L32GL16R.L32GL16R.L32GL16R.L32GL16R.L32AL16R.L32AL16R.L32AL16R.L32AL16R.L32AL16R.L32AL16R.L32AR16.AR16.G:>>G8>D4.:O1GL16R.L32GR16.GR16.A:>>A8>D4:O1AR16.AR16.A:O4C#8O1B:>>B8>D4:O1BR16.BR16.O4C#4:O1BR16.BR16.O4D4.:O1BL16R.L32BR16.BR16.G:>>G8>D4.:O1GL16R.L32GR16.GR16.A:>>A8>D4:O1AR16.AR16.A:O4C#8O1B:>>B8>D4:O1BR16.BR16.O4C#4:O1BR16.BR16.O4D4.:O1BL16R.L32BR16.BR16.G:>>G8>D4.:O1GL16R.L32GR16.GR16.A:>>A8>D4:O1AR16.AR16.A:O4C#8O1B:>>B8>D4:O1BR16.BR16.O4C#4:O1BR16.BR16.O4D4.:O1BL16R.L32BR16.BR16.G:>>G8>D4.:O1GL16R.L32GR16.GR16.G:>>A8>D4:O1GR16.GR16.G:L8O4C#O1A32:>>B>D2.&D:L32O1AL16R.L32AL16R.L32AR16.AR16.AR4L16R.L32GL16R.L32GL16R.L32GL16R.L32GL16R.L32AL16R.L32AL16R.L32AL16R.L32AL16R.L32BL16R.L32BL16R.L32BL16R.L32BL16R.L32BL16R.L32BL16R.L32BL16R.L32BL16R.L32GL16R.L32GL16R.L32GL16R.L32GL16R.L32AL16R.L32AL16R.L32AL16R.L32AL16R.L32BL16R.L32BL16R.L32BL16R.L32BL16R.L32BL16R.L32BL16R.L32BL16R.L32BL16R.L32GR16.GR16.G:O4B8O1G:O4D8B4.:O1AL16R.A32R.A32R.O4A4:O1A32R.B32R.O4F#4.:L32O1BL16R.L32BR16.BR16.B:L8O4C#L32O1B:L8O4DO1B32:O4C#O1B32:O4D<B4:L32<<GR16.GR16.G:O4B8O1G:O4D8B4.:O1AL16R.L32AR16.AR16.A:O4A8O1B1:O4F#1
#NewTrack
#trackName Synth String 2
L8<G:BRG4:B4A:>C#R<A4:>C#4<B:>DR<B4:>D4C#:<A>D:<B>C#:<AB4:>D<GRG4:B4>C#:<ARA4:>C#4D:<BRB4:>D4C#:<A>D:<BA:>C#D:<B>B:<GR>B4:<G4>>C#:<<AR>>C#4:<<A4>>D:<<BR>>D4:<<B4A:>>C#D:<<BA:>>C#<<B:>>D<<G:>BRB4:<G4>>C#:<<AR>>C#4:<<A4>>D:<<BR>>D4:<<B4A:>>C#<<B:>>D<<A:>>C#D:<<BG.&G64:B.&B64R32.G4:B4A.&A64:>C#.&C#64R32.<A4:>C#4<B.&B64:>D.&D64R32.<B4:>D4C#:<A>D:<B>C#:<AB4&B16&B64:>D<G.&G64R32.G4:B4>C#.&C#64:<A.&A64R32.A4:>C#4D.&D64:<B.&B64R32.B4:>D4C#:<A>D:<BA:>C#<B:>D<G.&G64:B.&B64R32.G4:B4A.&A64:>C#.&C#64R32.<A4:>C#4<B.&B64:>D.&D64R32.<B4:>D4C#:<A>D:<B>C#:<AB4&B16&B64:>D<G.&G64R32.G4:B4>C#.&C#64:<A.&A64R32.A4:>C#4D.&D64:<B.&B64R32.B4:>D4C#:<A>D:<BA:>C#<B:>DB:<GR>B4:<G4>>C#:<<AR>>C#4:<<A4>>D:<<BR>>D4:<<B4A:>>C#D:<<BA:>>C#<<B:>>D<<G:>BRB4:<G4>>C#:<<AR>>C#4:<<A4>>D:<<BR>>D4:<<B4A:>>C#<<B:>>D<<A:>>C#D:<<B>B:<GR>B4:<G4>>C#:<<AR>>C#4:<<A4>>D:<<BR>>D4:<<B4A:>>C#D:<<BA:>>C#<<B:>>DL2<B.:<G.>>D4:<<B4>C#&C#8:>E&E8R4.L8<B:<GR>B4:<G4>>C#:<<AR>>C#4:<<A4>>D:<<BR>>D4:<<B4A:>>C#D:<<BA:>>C#<<B:>>D<<G:>BRB4:<G4>>C#:<<AR>>C#4:<<A4>>D:<<BR>>D4:<<B4A:>>C#<<B:>>D<<A:>>C#D:<<BG.&G64:B.&B64R32.G4:B4A.&A64:>C#.&C#64R32.<A4:>C#4<B.&B64:>D.&D64R32.<B4:>D4C#:<A>D:<B>C#:<AB4&B16&B64:>D<G.&G64R32.G4:B4>C#.&C#64:<A.&A64R32.A4:>C#4D.&D64:<B.&B64R32.B4:>D4C#:<A>D:<BA:>C#<B:>D<G.&G64:B.&B64R32.G4:B4A.&A64:>C#.&C#64R32.<A4:>C#4<B.&B64:>D.&D64R32.<B4:>D4C#:<A>D:<B>C#:<AB4&B16&B64:>D<G.&G64R32.G4:B4>C#.&C#64:<A.&A64R32.A4:>C#4D.&D64:<B.&B64R32.B4:>D4C#:<A>D:<BA:>C#<B:>DB:<GR>B4:<G4>>C#:<<AR>>C#4:<<A4>>D:<<BR>>D4:<<B4A:>>C#D:<<BA:>>C#<<B:>>D<<G:>BRB4:<G4>>C#:<<AR>>C#4:<<A4>>D:<<BR>>D4:<<B4A:>>C#<<B:>>D<<A:>>C#D:<<BG:>BRB4:<G4A:>>C#RC#4:<<A4>>D:<<BR>>D4:<<B4A:>>C#D:<<B>>C#:<<A>>D:<<B>B:<GR>B4:<G4A:>>C#R<<A4:>>C#4D:<<BRB4:>>D4E:<C#RL4C#.&C#16.:>E<EE:C#D:FD:F>G8:<E:GE:>G:<GL8F#:>A:<AR4.L1BAB>C#2D2<<G8.&G64R32.G4A8.&A64R32.A4B8.&B64R32.B4L8ABAB4&B16&B64:RG.&G64R32.G4A.&A64R32.A4B.&B64R32.B4ABAB4&B16&B64:RG.&G64R32.G4:B4A.&A64:>C#.&C#64R32.<A4:>C#4<B.&B64:>D.&D64R32.<B4:>D4<A:>C#<B:>D<A:>C#<B4&B16&B64:>D<G.&G64R32.G4:B4A.&A64:>C#.&C#64R32.<A4:>C#4<B.&B64:>D.&D64R32.<B4:>D4C#:<A>D:<BA:>C#<B:>DB:<GR>B4:<G4>>C#:<<AR>>C#4:<<A4>>D:<<BR>>D4:<<B4A:>>C#D:<<BA:>>C#<<B:>>D<<G:>BRB4:<G4>>C#:<<AR>>C#4:<<A4>>D:<<BR>>D4:<<B4A:>>C#<<B:>>D<<A:>>C#D:<<B>B:<GR>B4:<G4>>C#:<<AR>>C#4:<<A4>>D:<<BR>>D4:<<B4A:>>C#D:<<BA:>>C#<<B:>>DL2<B.:<G.>>D4:<<B4>C#&C#8:>E&E8R4.L16<B.:<G.:B.R32G:>GRG8:<G4:>B4<A.:>>C#.:<C#.R32<A:>AR>C#4:<A8:<A4B.:>>D.:<D.R32<A:>ARA8:<B4:>>D4<C#.:L8<A:>>C#<D16.:>D:<<B>C#16.:<A:>>C#<D16.:<B.&B32:>>DL16<<G.:>B.R32<G:>GRG8:B4:<G4A.:>>C#.:<C#.R32<A:>ARA8:>C#4:<<A4B.:>>D.:<D.R32<A:>ARA8:>D4:<<B4>C#.:L8<A:>>C#<D16.:<B:>>D<C#16.:<A:>>C#<D16.:<B.&B32:>>DL16<B.:<G.R32G:>GRG8:B4:<G4A.:>>C#.:<C#.R32<A:>ARA8:>C#4:<<A4B.:>>D.:<D.R32<A:>ARA8:>D4:<<B4>C#.:L8<A:>>C#<D16.:>D:<<B>C#16.:<A:>>C#<D16.:<B.&B32:>>DL16<B.:<G.R32G:>GRG8:B4:<G4A.:>>C#.:<C#.R32<A:>ARA8:>C#4:<<A4L1>D:>D:F#:<A:<A:B
#NewTrack
#trackName Flute (Voice)
L1RRRRRRRRR4L16F#F#F#F#L8EL4C#D<B8B8>D&D16R2L16RF#F#F#F#L8EL4AC#L8D<A>C#4D4<B.R.L16>F#EDEL8E.<A.A.&A32RR32>F#16E16DE.C#.<B2L4RA8>F#8EA&A16R16L8AF#D<B4R>AE4C#<A16R16>C#4D4RAF#DB4.AB4.AF#16E16D4RDAF#DD4.AE4&E16R16C#C#4DR.D16AF#16F#ED2.&D16F#E4&E16R.<A>C#D<A>C#<B4.L1RRR.R4.L16>F#F#F#F#L8EL4C#D<B8B8>D&D16R2L16RF#F#F#F#L8EL4AC#L8D<AL4>C#D8<BRL16>F#EDEL8E.<A.A.&A32RR32>F#16E16DE.C#.D2L4R<A8>F#8EA&A16R16L8AF#D<B4R>AE4C#<A16R16>C#4D4RAF#DB4.AB4.AF#16E16D4RDAF#DD4.AE4RC#C#4DR.D16AF#16F#ED2.&D16F#E4&E16R.<A>C#D<A>C#4.DD4EEF.E16F4.R4FER2.ED4R2RGL4F#A&A16RR16L8GF#.R4R16DAGAF#16E16D4AE4C#<A16R16>C#4D.R.AF#DB4.AB4.AF#16E16D4RDAF#DD4.AE4&E16R16C#C#4DR.D16AF#16F#E&E32D2.&D32DE4ADAF#ED<B4&B16R16>AE4C#<A16R16>C#4D4RAF#DL4B.A8B>DL8<AF#16E16DRDAF#DD4.AE4C#C#C#4D.R4.L16<B>DEL8F#F#E<BL4>D.L8EE4R4<A>C#D<A>C#<B4.
#NewTrack
#trackName Nylon Guitar
L1RRRRR4L8BDB2&B:R4.A2&A:R4F#2.&F#<B2:R4>BDB2&B:R4.A2&A:R4F#2.&F#L1RRRRRRRRL8<<GB4.A>C#4.<B>D2C#L4DL8<GB4.A>C#4.<B>D2C#L4DL8<GB4.A>C#4.<B>D2C#L4DD.D<G.L2>ER.L8>BDB2&B:R4.A2&A:R4F#2.&F#<B2:R4>BDB2&B:R4.A2&A:L4RF#2.&F#8G:<BL8>D:AR4.A:DR4.D:AR4.D:AR4.D:AR4.D:AR4.D:AR4.D:AR4.D:AR4.D:AR4.D:AR4.D:AR4.D:AR4.D:AR4.D:AR4.D:AR<<GB4.A>C#4.<B>D2C#L4DL8<GB4.A>C#4.<B>D2C#L4D<G8B.A8>C#.>D2&D16.:<<B8L2O5D&D16:<<D:R8>F#&F#16.:L4R.<C#8DD.D<G.>E2E2>E.L8EL4F.F8GL8GG4R4.F#<A>EF#4<A>EDG<A>EF#4<A>EDF#<A>EF#4<A>EDG<A>ED:>D:<F#4E:>E:<<A>ED<<GB4.A>C#4.<B>D2C#L4DL8<GB4.A>C#4.<B>D2C#L4DL8<GB4.A>C#4.<B>D2C#L4DD.D<G.>E2E2L8<G:>GL4>D.:<<B.L8A:>AC#4.:>D4C#<<B:>BD2:L4>DC#D.:L8<C#L4DL8<G:>GL4<B.:>>D.L8<<A:>AC#4.:>D4C#<<B:>BD2:L4>DC#D.:L8<C#L4DL8<G:>GL4<B.:>>D.L8<<A:>AC#4.:>D4C#<<B:>BD2:L4>DC#D.:<C#8DD.:G8>D.:R<D:L8RA<G4.:>>D4C#L2<E:B8>D4.D:<EL1RRRRR4L8>BDB2&B:R4.A2&A:R4F#2.&F#<B2:R4>BDB2&B:R4A2&A:R4F#1
#NewTrack
#trackName Overdirven Guitar
L1RRRRL4RB8D.:R8B.AD2:F#2&F#8R<B>B8D.:R8B.AD:F#2&F#8L1RRRRRRRRRRRRRRRR.B8L4D.:R8B.AD.:F#.L8RDRD<B4:RD&D32:R>BL4D.:R8B.AD.:F#.L8RDRL16D.R32<B:GB:GB:GG:BG:BB:GB:GG:BG:BG:BB:GB:GR2>>D8<F#.:RR64F#.:RR64F#.:RR64F#.:RR64F#.:RR64F#.:RR64F#.R32<B:GB:GB:GG:BG:BB:GB:GG:BG:BG:BB:GB:GR2.>A8F#.:RR64F#.:RR64F#.:RR64F#.:RR64F#.:R32<G:B:R32>F#.:R64<B:GB:>F#.:<GG:BG:BB:GB:GG:BG:BG:BB:GB:GR2.>F#.:RR64F#.:RR64F#.:RR64F#.:RR64F#.:RR64F#.:RR64<B:GB:GB:GG:BG:BB:GB:GG:BG:BG:BB:GB:GR4>F#8E.:RR64E.:RR64E.:RR64E.:RR64E.:RR64E.:RR64E.R4R32<B:GB:GB:GG:BG:BB:GB:GG:BG:BG:BB:GB:GR1R4B:GB:GB:GG:BG:BB:GB:GG:BG:BG:BB:GB:GR2.>A8F#.:RR64F#.:RR64F#.:RR64F#.:RR64F#.:R32<G:B:R32>F#.:R64<B:GB:>F#.:<GG:BG:BB:GB:GG:BG:BG:BB:GB:GR1R4B:GB:GB:GG:BG:BB:GB:GG:BG:BG:BB:GB:GL1RRRR4L8>F#<A>EF#4<A>EDG<A>EF#4<A>EDF#<A>EF#4<A>EDG<A>EF#4<A>EDDL16DDDDDDC#C#D.R32C#C#DDD8DDDDDDC#C#DDDDDDD8DDDDDDC#C#D.R32C#C#DDD8DDDDDDC#C#DDDDDDD8DDDDDDC#C#D.R32C#C#DDD8DDDDDDC#C#DDDDDDD8DDDDDDC#C#D.R32C#C#DDD8DDDDDDC#C#DDDDDD<B:>D8:<GB:GB:>D:<GG:>D:<BG:>D:<BB:>D:<GB:>D:<GG:>D:<BG:>C#:<BG:>C#:<BB:>D.:<GB:G>C#C#DDD8DDDDDDC#C#DDDDDD<B:>D8:<GB:GB:>D:<GG:>D:<BG:>D:<BB:>D:<GB:>D:<GG:>D:<BG:>C#:<BG:>C#:<BB:>D.:<GB:G>C#C#DDD8DDDDDDC#C#DDDDDD<B:>D8:<GB:GB:>D:<GG:>D:<BG:>D:<BB:>D:<GB:>D:<GG:>D:<BG:>C#:<BG:>C#:<BB:>D.:<GB:G>C#C#DDD8DDDDDDC#C#DDDDDD<B:>D8:<GB:GB:>D:<GG:>D:<BG:>D:<BB:>D:<GB:>D:<GG:>D:<BG:>C#:<BG:>C#:<BB:>D.:<GB:G>C#C#DDD8DDDDDDL1RRRR.L4RB8D.:R8B.AD.:F#.L8RDRD<B4:RD&D32:R>BL4D.:R8B.:RAF#.:D.
#NewTrack
#trackName Harmonica
L1RRRRRRRRRRRRRRRRRRRRRRRRRRRRRRRRRRRRRRRRRRR.L4R.<A.B.>C#DD.L1RRRRR.L8ABABBA.R16F#4.EF#4.EC#<A4R1R1.R4>F#F#16F#BL2B&B16AF#
#NewTrack
#trackName Vibraphone
L1RRRRRRRRRRRRRRRRRRRRRRRRRRRRRRRRRRRRRRRRRRRRRRRRRRRRRRL8R>>G2&G<<AL4>C#D8F#.DC#>G2&G8<<A8>C#D8F#.DC#>G2&G8<<A8>C#D8F#.DC#>G2&G8<<A8>C#D8F#.DC#>G2&G8<<A8>C#D8F#.DC#>G2&G8<<A8>C#D8F#.