#Title 逍遥叹
#trackName åÐßb@
#NewTrack
#trackName Piano
#instrumentName Microsoft GS Wavetable SW Synth
T73 R L16<B >C# E G# F# E <B >C# E G# F# E F# E <B >C# <B >C# E G# F# E <B >C# <B4 B >C# E G# F# E F# E <B >C# E G# F# E F# E <B >C# E B F# E G# F# <B2 >G# F# G# F# G# >C# <G# F# G# F# G# F# G# >D# <G# F# G# F# G# B G# F# G# E F# E C# <B B4 B >C# E G# F# E <B >C# E B F# E G# F# C# <B >E8 <B >E2&E L8<B >F#16 G#16 F# E E E4. <B >F#16 G#16 F# E E E4. <B >F#16 G#16 F# E E E F# F# F# E F# G# G# G#4. E >C# C# C# C# C# C#4 C# <G# B B B >C#16 <B16 B4 <B >G# A4 A G# A G# F# E E F# F# F#4. <B >G# F# E E E4. <B >F#16 G#16 F#:C# E E E4. <B >G# F#:C# E:<B >E:<B >E:<B >F#:<A >F#:<A >F# E F#:C# G# G#:E E16.&E64:G#4. E >C# L32<E.:L8>C# L32<E.:L8>C# <E32.:>C# <E32.:>C# C#4 C# <G# B:G# B:G# B:F# >C#16 <B16 B4 <B >G# A4 A:F# G#:E A:E G#:D F#:D E4:C#4 B. L16C#.&C#64:G# E.&E64:>C# C#8:<F#8 B4.&B:F#4.&F#R.R64 L8E E F# G#4 G# B >C#. D#16 C# <B G#4.&G#16RR32. E E F# G#4 F# E G#:E B:G# B:G# >C#:<A F#2.&F#&F#64:R2R G# G# A# >C4 C <G# A:>D# <A:>C# <B:>D# <A:>E <G#:>D# <F#16.&F#64:>C#4&C#16&C#64RR32 C# C# <B B. G#16 F# E F# G# F# E F# G#:E F# E16.&E64R E:C# E:C# F#:C# E16.&E64:G#4 G#:E B:G# A16.&A64:>C#. <A16.&A64:>D#16 C# <F#:B E16.&E64:G#4.&G#16RR32. E:C# E:C# F#:C# E16.&E64:G#. F#16 F#:C# E:C# G#:E B:G# B:G# >C#:<A F#4.&F#16RR32. G#:E G#:E A#:F# F#16.&F#64:>C4 <G#:>C <E:G# A:>D# <G#:>C# <G#:>D# <A:>E <G#:>D# <F#16.&F#64:>C#4&C#16&C#64RR32 C# C# <B B. G#16 F# E F# G# F# E4 C#32.:F# E32.:G# L16F#:C# E32.:<B.&B64R8. O6C# E F#4 C#8 <B2 >C# E A#4 L8C# E F# C# <B16 >C#16 <G# F# >D# C# <F# G# B1 L16<G# F# G# F# G# >C# <G# F# G# F# G# F# G# >D# <G# F# G# F# G# B G# F# G# E F# E C# <B B4 B >C# E G# F# E <B >C# E B F# E G# F# C# <B >E8 <B >E2&E L8<B >F#16 G#16 F# E E E4. <B >F#16 G#16 F#:C# E E E4. <B >G# F#:C# E:<B >E:<B >E:<B >F#:<A >F#:<A >F# E F#:C# G# G#:E E16.&E64:G#4. E >C# L32<E.:L8>C# L32<E.:L8>C# <E32.:>C# <E32.:>C# C#4 C# <G# B:G# B:G# B:F# >C#16 <B16 B4 <B >G# A4 A:F# G#:E A:E G#:D F#:D E4:C#4 B. L16C#.&C#64:G# E.&E64:>C# C#8:<F#8 B4.&B:F#4.&F#R.R64 L8E E F# G#4 G# B >C#. D#16 C# <B G#4.&G#16RR32. E E F# G#4 F# E G#:E B:G# B:G# >C#:<A F#2.&F#&F#64:R2R G# G# A# >C4 C <G# A:>D# <A:>C# <B:>D# <A:>E <G#:>D# <F#16.&F#64:>C#4&C#16&C#64RR32 C# C# <B B. G#16 F# E F# G# F# E F# G#:E F# E16.&E64R E:C# E:C# F#:C# E16.&E64:G#4 G#:E B:G# A16.&A64:>C#. <A16.&A64:>D#16 C# <F#:B E16.&E64:G#4.&G#16RR32. E:C# E:C# F#:C# E16.&E64:G#. F#16 F#:C# E:C# G#:E B:G# B:G# >C#:<A F#4.&F#16RR32. G#:E G#:E A#:F# F#16.&F#64:>C4 <G#:>C <E:G# A:>D# <G#:>C# <G#:>D# <A:>E <G#:>D# <F#16.&F#64:>C#4&C#16&C#64RR32 C# C# <B B. G#16 F# E F# G# F# E4 F#:<B >G#:E E16.&E64:<A16.&A64R >F# F# G# A#4 A# >C# <B16.&B64:>D#. <A#16.&A#64:>F16 D# <A#:>C# <F16.&F64:A#4.&A#16RR32. F#:C# F#:D# G#:F F16.&F64:A#4 G# F# A#:F >C#:<A# >C#:<A# >D#:<G# D#16.&D#64:G#4.&G#16RR32. A#:F A#:F >C:<F# F16.&F64:>D4 D:<A# A#:F# A#:>F <B:>D# <A#:>F D#:F# <A#:>F <B16.&B64:>D#4&D#16&D#64RR32 <B:>D# <B:>D# <A#:>C# <F#16.&F#64:>C#. <F#16.&F#64:A#16 G#:F F#:D# G#:F A#:F# G#:F F#:C# G#:F A#:F G#:F F#16.&F#64:C#16.&C#64R F#:D# F#:D# G#:C# F#16.&F#64:A#4 A#:F >C#:<A# B16.&B64:>D#. <A#16.&A#64:>F16 <B:>D# <A#:>C# <F16.&F64:A#4.&A#16RR32. F#:C# F#:D# G#:F F16.&F64:A#4 G# F# A#:F >C#:<A# >C#:<A# >D#:<G# D#16.&D#64:G#4.&G#16RR32. A#:F A#:F >C:<F# F16.&F64:>D4 D:<A# A#:F# A#:>F <B:>D# <A#:>F D#:F# <A#:>F <B16.&B64:>D#4&D#16&D#64RR32 <B:>D# <B:>D# <A#:>C# <F#16.&F#64:>C#. <F#16.&F#64:A#16 G#:F F#:D# G# A# G# F#4 G# A# G#16 F#32.R2 L4A >C <A >D <G L8E D A G >C4 <A G >D4 C <A G1.&G&G64 
#NewTrack
#trackName Track 2
#instrumentName Microsoft GS Wavetable SW Synth
T73 V70 <E G# <B >G# C# G# <B L8>G# <B E >E A F# <G# >C# A C# L4<B >F# G#8 <B8 >E <B >E G# E L8<G# >E G# <B A >E F#4 <G# >C# F#4 <A >E G#4 <E >E F# <B >E2 L16<B >C# E G# <B8 >E8 <B >C# E G# <B8 >F#8 <A >E G# B G#8 <B8 B >C# E G# <B >G# C# <B F# >C# E F# L8G# C# L16F# C# <A8 >A8 C# <A F# B >E F# <B8 >G#8 <G# >E F# G# C#8 A B <A8 >E F# C# G# A >C# L8<<A >E A L16G# F# L8<B L16>G# B G#8 >C#8 <<B >C# E G# <B8 >E F# <A8 >E F# A G# E8 C# F# G# E L8A C# <B >F# F# L16E F# B >E <B F# L8E L16E G# L8D:F# L16E A G#8:E8 <A >C# <B >C# E G# L8<G# >F# <B16 >E16 F# A E L16<B >C# E G# <B >E G#8 <A >E F# G# C# F# G#8 <G# >C# F# <A L8>F# C# <A >E G# B L16<B >C# E G# L8C# A16 B16 <A >C# E L16G# A <A >E A E L8A E16 D16 <B >E B A L16<B >E G# A <B8 >E8 <A >E A B F#8 E8 <A >E A B L8F# L16C# <B >E8 G#8 A G# B A L8C# B16 >C#16 <A E <E L16A.&A64:R >C# L8A B E L16E G# <G# >C# <B >E L8C#:E:G# L16C# <B.&B64:>E L8E F# <B G#16 >E16 F# G# <B L16>C#.&C#64:R E L8E:G# D:F# <B:>G# L16E G# A8 E C# E C# G# B G#8 B8 B >C# <B >C# <F# G# F# G# E8 C#.&C#64:R <B L8>C# E >C <F# >C16 <G#16 C# >D# <F# L16F#.&F#64:A B L8E:>C# <<B >G# L16F# E L8C# <B >F#16 E16 A G# E L16C# E <B A L8F# A:>C# E32.:G# L16D.&D64:F# E C#8 A E G# B L8F# C# <E >C# E A E L16E G# <G# >C# <B >E L8F# C#16 E16 A B <B G#16 >E16 F# G# <B >C#16 E16 G# A G# L16E G# F#8 E8 E C# G# B G#8 B8 B >C# <B >C# <F# G# F# G# L8E C# C#16 E16 G# G# F >C16 <G#16 C# D# G# L16A B >C#8 <<B8 >F# G# F# E L8C# <B >A A L16F# G# F# G# F# G# F#8 E C# C#8 F# G# F# E C#8 E8 <B >E G# E C# <B >>F# E <B8 B >C# E G# F# E <B >C# E G# F# E F# E <B >C# <B >C# E G# F# E <B >C# <B4 B >C# E G# F# E F# E <B >C# E G# F# E F# E <B >C# E G# F# E G# F# <B4 >E4 L8<<B >E G# <B G# B >E C# <G# B >E G# <A >E G# <B G# >C# F# E <B >F# E C# <B >E G# <B16.&B64:>E4. <B >F# D:F# L16E A G#8:E8 <A >C# <B >C# E G# L8<G# >F# <B16 >E16 F# A E L16<B >C# E G# <B >E G#8 <A >E F# G# C# F# G#8 <G# >C# F# <A L8>F# C# <A >E G# B L16<B >C# E G# L8C# A16 B16 <A >C# E L16G# A <A >E A E L8A E16 D16 <B >E B A L16<B >E G# A <B8 >E8 <A >E A B F#8 E8 <A >E A B L8F# L16C# <B >E8 G#8 A G# B A L8C# B16 >C#16 <A E <E L16A.&A64:R >C# L8A B E L16E G# <G# >C# <B >E L8C#:E:G# L16C# <B.&B64:>E L8E F# <B G#16 >E16 F# G# <B L16>C#.&C#64:R E L8E:G# D:F# <B:>G# L16E G# A8 E C# E C# G# B G#8 B8 B >C# <B >C# <F# G# F# G# E8 C#.&C#64:R <B L8>C# E >C <F# >C16 <G#16 C# >D# <F# L16F#.&F#64:A B L8E:>C# <<B >G# L16F# E L8C# <B >F#16 E16 A G# E L16C# E <B A L8F# A:>C# E32.:G# L16D.&D64:F# E C#8 A E G# B L8F# C# <E >C# E A E L16E G# <G# >C# <B >E L8F# C#16 E16 A B <B G#16 >E16 F# G# <B >C#16 E16 G# A G# L16E G# F#8 E8 E C# G# B G#8 B8 B >C# <B >C# <F# G# F# G# L8E C# C#16 E16 G# G# F >C16 <G#16 C# D# G# L16A B >C#8 <<B8 >F# G# F# E L8C# <B >A A L16F# G# F# G# F# G# F#8 E C# C#8 F# G# F# E C#8 <B8 >F# A G# F# L8E C# F# L16<B >D# F8 C#8 F G# C# F L8A# <B:>G# D# L16A# G# L8F# C# <A#16 >F#16 G# A# <B >F# <A# >F C#:A# L16G# A# L8G# L16F# D# L8C#:A# L16>C# <F C#8:A#8 F# F:B >C# D# C# D# <F# G# F# G# D#8 F G# F:A# C# D#8:G#8 D F A# F L8F:A# L16F# D# <A#8:>F8 G# A# <G# >F# A# B C#8 G# A# G# F# L8D# <B >B:D# B L16A# >C# <A# >C# <F F# G#8 F# D# L8F L16A# >C# <F8 <B8 >G# A# G# A# L8G# L16C# <A# L8>C# F# L16<B >D# F8 C#8 F G# C# F L8A# <B:>G# D# L16G# F# L8F C# <A#16 >F#16 G# A# <B >F# <A# >F C#:A# L16G# A# L8G# L16F# D# L8C#:A# L16>C# <F C#8:A#8 F# F:B >C# D# C# D# <G# A# G# A# D#8 F G# F:A# C# D#8:G#8 D F A# F L8F:A# L16F# D# <A#8:>F8 G# A# <G# >F# A# B C#8 G# A# G# F# L8D# <B >F# B L16A# >C# <A# >C# <D# F# G#8 F# D# C#2:G#2 L4C#:F# C# L8A G >C4 <A G4. A G >D4 <G2 <A >C A E C E B D E A B <G1.&G64:>D1.&D64 