#NewTrack A轨
t96
r2r4r8o4g8>c8c8c8.d16e8c8r8c8<a8>c8c8.c16<a8g8r8g8>c8c8c8.d16e8c8r8c8d8d8d16c16d16e16d4r8<g8>c8c8c8.d16e8c8r8c8<a8>c8c8.d16c4r8<g8>c8c8c8.c16g8f8e8c8c2r4r8<g8>c8c8c8.d16e8c8r8c8<a8>c8c8.c16<a8g8r8g8>c8c8c8.d16e8c8r8c8d8d8d16c16d16e16d4r8<g8>c8c8c8.d16e8c8r8c8<a8>c8c8.d16c4r8<g8>c8c8c8.c16g8f8e8c8c2r2d16e-16e-16d16c8d16e-16e-16d16c8d16e-16e-16d16d16e-16e-16d16c8d16e-16e-16d16c8r4d16e-16e-16d16c8d16e-16e-16d16c8d16d16d16d16d16d16d16d16d8d16e-16d16d16d8r4d16e-16e-16d16c8d16e-16e-16d16c8d16e-16d16d16d16e-16e-16d16c8d16e-16e-16d16c8r4d16e-16e-16d16c8d16e-16e-16d16c8d16e-16e-16d16c2.r4r2r4r8<g8>c8c8c8.d16e8c8r8c8<a8>c8c8.c16<a8g8r8g8>c8c8c8.d16e8c8r8c8d8d8d16c16d16e16d4r8<g8>c8c8c8.d16e8c8r8c8<a8>c8c8.d16c4r8<g8>c8c8c8.c16g8f8e8c8c2r4r8<g8>c8c8c8.d16e8c8r8c8<a8>c8c8.c16<a8g8r8g8>c8c8c8.d16e8c8r8c8d8d8d16c16d16e16d4r8<g8>c8c8c8.d16e8c8r8c8<a8>c8c8.d16c4r8<g8>c8c8c8.c16g8f8e8c8c2r2d16e-16e-16d16c8d16e-16e-16d16c8d16e-16e-16d16d16e-16e-16d16c8d16e-16e-16d16c8r4d16e-16e-16d16c8d16e-16e-16d16c8d16d16d16d16d16d16d16d16d8d16e-16d16d16d8r4d16e-16e-16d16c8d16e-16e-16d16c8d16e-16d16d16d16e-16e-16d16c8d16e-16e-16d16c8r4d16e-16e-16d16c8d16e-16e-16d16c8d16e-16e-16d16c2r4r8g16a16>c4c4<a8g8e-16d16c8c8c8c8d8c4r8g16>c16c4c4<a8g8e-16d16c8e-8c8c8d8c4r4g4.e8a8g8e-16d16c8c8c8c8d8c4r8f16a16>c4c4<a8g8g16f16e8c2>c2

#NewTrack B轨
t96
r1o3c8g16>c16e8c16<g16c8g16>c16e8c16<g16<f8>c16f16a8f16c16<f8>c16f16a8f16c16c8g16>c16e8c16<g16c8g16>c16e8c16<g16<g8>d16g16b8g16d16<g8>d16g16b8g16d16c8g16>c16e8c16<g16c8g16>c16e8c16<g16<f8>c16f16a8f16c16<f8>c16f16a8f16c16<g8>d16g16b8g16d16<g8>d16g16b8g16d16c8g16>c16e8c16<g16c8g16>c16e8c16<g16c8g16>c16e8c16<g16c8g16>c16e8c16<g16<f8>c16f16a8f16c16<f8>c16f16a8f16c16c8g16>c16e8c16<g16c8g16>c16e8c16<g16<g8>d16g16b8g16d16<g8>d16g16b8g16d16c8g16>c16e8c16<g16c8g16>c16e8c16<g16<f8>c16f16a8f16c16<f8>c16f16a8f16c16<g8>d16g16b8g16d16<g8>d16g16b8g16d16c8g16>c16e8c16<g16c8g16>c16<c4:g4:>c4<c8g16>c16e8c16<g16c8g16>c16e8c16<g16c8g16>c16e8c16<g16c8g16>c16e8c16<g16c8g16>c16e8c16<g16c8g16>c16e8c16<g16<g8>d16g16b8g16d16<g8>d16g16b8g16d16c8g16>c16e8c16<g16c8g16>c16e8c16<g16<f8>c16f16a8f16c16<f8>c16f16a8f16c16<g8>d16g16b8g16d16<g8>d16g16b8g16d16c8g16>c16e8c16<g16c8g8>c4r2<c8:g8:>c8<c8:g8:>c8<c8:g8:>c8<c8:g8:>c8<c8g16>c16e8c16<g16c8g16>c16e8c16<g16<f8>c16f16a8f16c16<f8>c16f16a8f16c16c8g16>c16e8c16<g16c8g16>c16e8c16<g16<g8>d16g16b8g16d16<g8>d16g16b8g16d16c8g16>c16e8c16<g16c8g16>c16e8c16<g16<f8>c16f16a8f16c16<f8>c16f16a8f16c16<g8>d16g16b8g16d16<g8>d16g16b8g16d16c8g16>c16e8c16<g16c8g16>c16e8c16<g16c8g16>c16e8c16<g16c8g16>c16e8c16<g16<f8>c16f16a8f16c16<f8>c16f16a8f16c16c8g16>c16e8c16<g16c8g16>c16e8c16<g16<g8>d16g16b8g16d16<g8>d16g16b8g16d16c8g16>c16e8c16<g16c8g16>c16e8c16<g16<f8>c16f16a8f16c16<f8>c16f16a8f16c16<g8>d16g16b8g16d16<g8>d16g16b8g16d16c8g16>c16e8c16<g16c8g16>c16<c4:g4:>c4<c8g16>c16e8c16<g16c8g16>c16e8c16<g16c8g16>c16e8c16<g16c8g16>c16e8c16<g16c8g16>c16e8c16<g16c8g16>c16e8c16<g16<g8>d16g16b8g16d16<g8>d16g16b8g16d16c8g16>c16e8c16<g16c8g16>c16e8c16<g16<f8>c16f16a8f16c16<f8>c16f16a8f16c16<g8>d16g16b8g16d16<g8>d16g16b8g16d16c8g16>c16e8c16<g16c8g16>c16e8c16<g16c8g16>c16e8c16<g16c8g16>c16e8c16<g16<f8>c16f16a8f16c16<f8>c16f16a8f16c16c8g16>c16e8c16<g16c8g16>c16e8c16<g16<g8>d16g16b8g16d16<g8>d16g16b8g16d16c8g16>c16e8c16<g16c8g16>c16e8c16<g16<f8>c16f16a8f16c16<f8>c16f16a8f16c16<g8>d16g16b8g16d16<g8>d16g16b8g16d16c8g16>c16e8c16<g16c8g8>c4